<svg xmlns="http://www.w3.org/2000/svg" viewBox="0 0 24 24"><path d="M20.55 16.37l-3.13-3c-.3-.28-.7-.43-1.1-.42-.4.02-.8.2-1.06.5l-1.3 1.4c-.5-.3-1-.65-1.44-1.06-1-.8-1.9-1.7-2.72-2.7-.27-.3-.5-.6-.66-.97L10.6 8.7l.1-.13c.2-.3.53-1.1-.5-2.05l-3.1-3.1C6.8 3.15 6.4 3 6 3c-.4.02-.78.2-1.04.5l-1 1.2-.3.37c-.57.95-.78 2.06-.6 3.15.22 2.5 1.8 5.2 4.6 8.03 3.9 3.9 6.9 4.74 8.7 4.74h.2c.98 0 1.9-.3 2.6-1l1.4-1.5c.3-.3.44-.76.4-1.18 0-.4-.15-.76-.43-1.03zM5.9 4.3c.05-.06.1-.1.18-.1.07 0 .14.03.18.08L9.3 7.35l.08.08c.16.1.3.27.36.46l-.5.5-3.7-3.7.36-.4zm12.38 14.93c-.5.4-1.1.6-1.73.56-1.58 0-4.28-.6-8.04-4.4-6.1-6.2-3.9-9.6-3.9-9.6l.6-.7 3.64 3.7-.2.16-.34.32-.06.03c-.72.85.2 1.98.7 2.58.86 1.03 1.83 2 2.9 2.82 1.2.95 2.23 1.8 3 .94l.4-.44 3.5 3.52-.4.47zm1.42-1.5l-.6.6-3.5-3.53.52-.6c.06-.06.14-.1.22-.1.1 0 .18.03.24.1l3.12 3c.05.05.07.1.07.18.03.12 0 .25-.07.35z"/></svg>