<svg width="28" height="16" viewBox="0 0 28 16" fill="none" xmlns="http://www.w3.org/2000/svg"><path d="M26.0568 1.08735L20.426 4.10169V3.12907C20.426 2.29919 20.072 1.5033 19.4419 0.916485C18.8118 0.329669 17.9571 0 17.066 0H3.36C2.46887 0 1.61424 0.329669 0.984121 0.916485C0.353999 1.5033 0 2.29919 0 3.12907L0 12.8709C0 13.7008 0.353999 14.4967 0.984121 15.0835C1.61424 15.6703 2.46887 16 3.36 16H17.066C17.9571 16 18.8118 15.6703 19.4419 15.0835C20.072 14.4967 20.426 13.7008 20.426 12.8709V11.8983L26.0568 14.9126C27.1236 15.4837 28 15.0143 28 13.8696V2.13559C28 0.985659 27.1264 0.516297 26.0568 1.08735Z" fill="white"/></svg>