<svg xmlns="http://www.w3.org/2000/svg" width="135.72" height="40.02" viewBox="0 0 135.71649 40.018951"><defs><linearGradient x1="31.8" y1="183.29" x2="15.02" y2="166.51" gradientUnits="userSpaceOnUse" gradientTransform="matrix(.8 0 0 -.8 0 161.6)" id="i"><stop offset="0" stop-color="#00a0ff"/><stop offset=".01" stop-color="#00a1ff"/><stop offset=".26" stop-color="#00beff"/><stop offset=".51" stop-color="#00d2ff"/><stop offset=".76" stop-color="#00dfff"/><stop offset="1" stop-color="#00e3ff"/></linearGradient><linearGradient x1="43.83" y1="172" x2="19.64" y2="172" gradientUnits="userSpaceOnUse" gradientTransform="matrix(.8 0 0 -.8 0 161.6)" id="j"><stop offset="0" stop-color="#ffe000"/><stop offset=".41" stop-color="#ffbd00"/><stop offset=".78" stop-color="orange"/><stop offset="1" stop-color="#ff9c00"/></linearGradient><linearGradient x1="34.83" y1="169.7" x2="12.07" y2="146.95" gradientUnits="userSpaceOnUse" gradientTransform="matrix(.8 0 0 -.8 0 161.6)" id="k"><stop offset="0" stop-color="#ff3a44"/><stop offset="1" stop-color="#c31162"/></linearGradient><linearGradient x1="17.3" y1="191.82" x2="27.46" y2="181.66" gradientUnits="userSpaceOnUse" gradientTransform="matrix(.8 0 0 -.8 0 161.6)" id="l"><stop offset="0" stop-color="#32a071"/><stop offset=".07" stop-color="#2da771"/><stop offset=".48" stop-color="#15cf74"/><stop offset=".8" stop-color="#06e775"/><stop offset="1" stop-color="#00f076"/></linearGradient><clipPath id="a"><path d="M0 0h124v48H0V0z"/></clipPath><mask maskUnits="userSpaceOnUse" x="0" y="0" width="1" height="1" id="n"><g clip-path="url(#a)"><path d="M0 0h124v48H0V0z" fill-opacity=".2"/></g></mask><clipPath id="m"><path d="M0 0h124v48H0V0z"/></clipPath><clipPath id="b"><path d="M0 0h124v48H0V0z"/></clipPath><pattern patternTransform="matrix(1 0 0 -1 0 48)" patternUnits="userSpaceOnUse" width="124" height="48" id="o"><g clip-path="url(#b)"><path d="M29.63 20.7L18 14.1c-.64-.37-1.22-.35-1.6 0l-.05-.07.06-.06c.4-.34 1-.36 1.6 0l11.7 6.65v.07z"/></g></pattern><clipPath id="c"><path d="M0 0h124v48H0V0z"/></clipPath><mask maskUnits="userSpaceOnUse" x="0" y="0" width="1" height="1" id="q"><g clip-path="url(#c)"><path d="M0 0h124v48H0V0z" fill-opacity=".12"/></g></mask><clipPath id="p"><path d="M0 0h124v48H0V0z"/></clipPath><clipPath id="d"><path d="M0 0h124v48H0V0z"/></clipPath><pattern patternTransform="matrix(1 0 0 -1 0 48)" patternUnits="userSpaceOnUse" width="124" height="48" id="r"><g clip-path="url(#d)"><path d="M16.35 14.14c-.24.25-.37.63-.37 1.13v-.12c0-.5.13-.88.37-1.12l.06.06z"/></g></pattern><clipPath id="e"><path d="M0 0h124v48H0V0z"/></clipPath><mask maskUnits="userSpaceOnUse" x="0" y="0" width="1" height="1" id="t"><g clip-path="url(#e)"><path d="M0 0h124v48H0V0z" fill-opacity=".12"/></g></mask><clipPath id="s"><path d="M0 0h124v48H0V0z"/></clipPath><clipPath id="f"><path d="M0 0h124v48H0V0z"/></clipPath><pattern patternTransform="matrix(1 0 0 -1 0 48)" patternUnits="userSpaceOnUse" width="124" height="48" id="u"><g clip-path="url(#f)"><path d="M33.6 22.96l-3.98-2.27.08-.1 3.9 2.2c.57.3.85.7.85 1.1-.05-.4-.33-.8-.84-1.1z"/></g></pattern><clipPath id="g"><path d="M0 0h124v48H0V0z"/></clipPath><mask maskUnits="userSpaceOnUse" x="0" y="0" width="1" height="1" id="w"><g clip-path="url(#g)"><path d="M0 0h124v48H0V0z" fill-opacity=".25"/></g></mask><clipPath id="v"><path d="M0 0h124v48H0V0z"/></clipPath><clipPath id="h"><path d="M0 0h124v48H0V0z"/></clipPath><pattern patternTransform="matrix(1 0 0 -1 0 48)" patternUnits="userSpaceOnUse" width="124" height="48" id="x"><g clip-path="url(#h)"><path d="M18 33.9l15.6-8.86c.52-.3.8-.66.85-1.04 0 .42-.28.84-.84 1.16L18 34.02c-1.1.63-2.02.1-2.02-1.18v-.1c0 1.27.9 1.8 2.03 1.16z" fill="#fff"/></g></pattern></defs><path d="M130.54 39.94H5.24c-2.76 0-5-2.23-5-4.95V5.2c0-2.7 2.23-4.95 5-4.95h125.3c2.74 0 5 2.23 5 4.96V35c0 2.7-2.26 4.94-5 4.94z"/><path d="M130.54 1.1c2.32 0 4.2 1.87 4.2 4.17V35c0 2.28-1.88 4.15-4.2 4.15H5.24c-2.32 0-4.2-1.87-4.2-4.16V5.2c0-2.3 1.88-4.16 4.2-4.16h125.3m0-.8H5.24c-2.76 0-5 2.23-5 4.96V35c0 2.7 2.24 4.94 5 4.94h125.3c2.75 0 5-2.23 5-4.95V5.2c0-2.73-2.25-4.96-5-4.96z" fill="#a6a6a6"/><path d="M45.93 16.2c0 .66-.2 1.2-.6 1.6-.44.47-1.03.7-1.76.7-.7 0-1.28-.23-1.76-.7-.4-.5-.7-1.1-.7-1.8s.3-1.3.8-1.8c.5-.47 1.1-.7 1.8-.7.4 0 .7.06 1 .2.3.13.6.3.8.53l-.4.42c-.3-.38-.7-.56-1.3-.56-.5 0-.9.1-1.3.5-.3.3-.5.8-.5 1.4 0 .5.2 1 .6 1.4.4.3.8.5 1.3.5.57 0 1-.2 1.37-.6.27-.3.4-.6.44-1h-1.8v-.6H46c.03.1.03.2.03.3zm3.7-2h-2.2v1.5h1.98v.6h-1.9v1.5h2.2v.6h-2.8v-4.8h2.8v.6zm2.6 4.2h-.6l-.03-4.2h-1.33v-.6h3.3v.6H52.2v4.2zm3.72 0v-4.8h.62v4.8h-.62zm3.35 0h-.6v-4.2h-1.36v-.6h3.3v.6H59.3v4.2zm7.6-.62c-.5.5-1.07.73-1.77.73s-1.3-.2-1.76-.7c-.47-.5-.7-1.1-.7-1.8s.22-1.3.7-1.7c.47-.5 1.06-.7 1.76-.7s1.28.3 1.75.8c.48.5.7 1.1.7 1.8s-.22 1.3-.7 1.8zm-3.08-.4c.36.36.8.54 1.3.54.52 0 .96-.18 1.3-.54.37-.36.55-.82.55-1.38 0-.56-.18-1.02-.54-1.38-.35-.36-.8-.54-1.3-.54-.52 0-.95.18-1.3.54-.36.36-.54.82-.54 1.38 0 .56.1 1.02.5 1.38zm4.64 1.02v-4.8h.75l2.4 3.73h.1V13.6h.6v4.8h-.6l-2.4-3.9.06 1v3h-.6z" fill="#fff" stroke="#fff" stroke-width=".16" stroke-miterlimit="10" transform="matrix(1.3 0 0 1.2 -9.8 -9.6)"/><path d="M68.53 21.86c-2.36 0-4.28 1.78-4.28 4.22 0 2.42 1.92 4.2 4.28 4.2 2.36 0 4.28-1.78 4.28-4.2 0-2.44-1.9-4.22-4.2-4.22zm0 6.77c-1.3 0-2.4-1.05-2.4-2.55 0-1.52 1.1-2.56 2.4-2.56 1.3 0 2.4 1.04 2.4 2.56 0 1.5-1.1 2.55-2.4 2.55zm-9.34-6.77c-2.4 0-4.3 1.78-4.3 4.22 0 2.42 1.9 4.2 4.2 4.2s4.2-1.78 4.2-4.2c0-2.44-1.9-4.22-4.3-4.22zm0 6.77c-1.3 0-2.5-1.05-2.5-2.55 0-1.52 1.1-2.56 2.4-2.56 1.3 0 2.4 1.04 2.4 2.56 0 1.5-1.2 2.55-2.4 2.55zm-11.1-5.47v1.8h4.3c-.1 1-.5 1.72-1 2.24-.7.62-1.6 1.3-3.4 1.3-2.7 0-4.8-2.12-4.8-4.75S45.4 19 48.1 19c1.43 0 2.47.55 3.25 1.27L52.62 19c-1.08-1-2.52-1.8-4.53-1.8-3.7 0-6.8 2.94-6.8 6.55 0 3.6 3 6.54 6.7 6.54 1.9 0 3.4-.7 4.6-1.9 1.2-1.2 1.5-2.9 1.5-4.2 0-.4-.1-.8-.1-1.1h-6zm45.4 1.38c-.4-.94-1.5-2.68-3.7-2.68s-4 1.7-4 4.22c0 2.36 1.8 4.2 4.2 4.2 1.9 0 3.1-1.17 3.5-1.86l-1.5-.95c-.5.7-1.2 1.16-2.1 1.16-1 0-1.7-.43-2.1-1.27l5.7-2.34-.2-.48zm-5.8 1.4c-.1-1.62 1.2-2.45 2.2-2.45.7 0 1.4.3 1.6.8l-3.8 1.5zm-4.7 4.1h1.8v-12.4H83v12.4zm-3.1-7.24h-.1c-.4-.5-1.2-.94-2.3-.94-2.2 0-4.1 1.86-4.1 4.23 0 2.3 1.9 4.2 4.1 4.2 1 0 1.8-.5 2.2-1h.1v.6c0 1.6-.9 2.5-2.3 2.5-1.2 0-1.9-.9-2.2-1.5l-1.65.6c.45 1.1 1.7 2.5 3.76 2.5 2.2 0 4.07-1.3 4.07-4.4v-7.5H80v.7zm-2.2 5.83c-1.3 0-2.4-1.07-2.4-2.54 0-1.5 1.1-2.6 2.3-2.6 1.3 0 2.3 1.1 2.3 2.5s-1 2.5-2.3 2.5zm24.4-10.98h-4.5v12.4h1.8v-4.7h2.6c2 0 4.1-1.5 4.1-3.85 0-2.36-2.1-3.85-4.1-3.85zm0 5.97h-2.6v-4.25h2.6c1.4 0 2.2 1.15 2.2 2.13 0 .96-.8 2.12-2.2 2.12zm11.5-1.78c-1.4 0-2.8.6-3.38 1.9l1.65.68c.36-.68 1-.9 1.7-.9 1 0 1.96.57 2 1.6v.12c-.38-.2-1.1-.48-2-.48-1.8 0-3.6.97-3.6 2.78 0 1.66 1.45 2.73 3.1 2.73 1.25 0 1.95-.56 2.4-1.2h.05V30h1.8v-4.75c0-2.2-1.65-3.43-3.8-3.43zm-.27 6.8c-.6 0-1.48-.3-1.48-1.06 0-.96 1.05-1.33 2-1.33.8 0 1.2.18 1.7.42-.16 1.15-1.16 1.96-2.2 1.96zM124 22.1l-2.1 5.4-2.22-5.3h-2l3.35 7.5-1.9 4.2h1.94l5.16-11.7h-2.06zm-16.8 8h1.87V17.7h-1.88v12.4z" fill="#fff"/><path d="M16.35 33.97c-.24-.25-.37-.63-.37-1.13v-17.7c0-.48.13-.87.37-1.1l.06-.07 10 9.9v.25l-9.9 9.9v-.05z" fill="url(#i)" transform="matrix(1.3 0 0 -1.2 -9.8 49.9)"/><path d="M29.62 20.58l-3.3 3.3v.24l3.3 3.3.08-.04 3.9-2.23c1.13-.63 1.13-1.67 0-2.3l-3.9-2.23-.08-.04z" fill="url(#j)" transform="matrix(1.3 0 0 -1.2 -9.8 49.9)"/><path d="M29.7 20.62L26.32 24l-9.97-9.97c.37-.4.97-.44 1.66-.05l11.7 6.64" fill="url(#k)" transform="matrix(1.3 0 0 -1.2 -9.8 49.9)"/><path d="M29.7 27.38L18 34.02c-.68.4-1.28.34-1.65-.05L26.32 24l3.38 3.38z" fill="url(#l)" transform="matrix(1.3 0 0 -1.2 -9.8 49.9)"/><g clip-path="url(#m)" mask="url(#n)" transform="matrix(1.3 0 0 -1.2 -9.8 49.9)"><path d="M0 0h124v48H0V0z" fill="url(#o)"/></g><g clip-path="url(#p)" mask="url(#q)" transform="matrix(1.3 0 0 -1.2 -9.8 49.9)"><path d="M0 0h124v48H0V0z" fill="url(#r)"/></g><g clip-path="url(#s)" mask="url(#t)" transform="matrix(1.3 0 0 -1.2 -9.8 49.9)"><path d="M0 0h124v48H0V0z" fill="url(#u)"/></g><g clip-path="url(#v)" mask="url(#w)" transform="matrix(1.3 0 0 -1.2 -9.8 49.9)"><path d="M0 0h124v48H0V0z" fill="url(#x)"/></g></svg>