<svg width="74" height="74" viewBox="0 0 74 74" fill="none" xmlns="http://www.w3.org/2000/svg">
<path fill-rule="evenodd" clip-rule="evenodd" d="M50.875 4.625H23.125C21.8984 4.625 20.722 5.11228 19.8546 5.97963C18.9873 6.84699 18.5 8.02337 18.5 9.25V37C18.5 37.6133 18.2564 38.2015 17.8227 38.6352C17.389 39.0689 16.8008 39.3125 16.1875 39.3125C15.5742 39.3125 14.986 39.0689 14.5523 38.6352C14.1186 38.2015 13.875 37.6133 13.875 37V9.25C13.875 6.79675 14.8496 4.44397 16.5843 2.70926C18.319 0.974551 20.6717 0 23.125 0L50.875 0C53.3283 0 55.681 0.974551 57.4157 2.70926C59.1504 4.44397 60.125 6.79675 60.125 9.25V37C60.125 37.6133 59.8814 38.2015 59.4477 38.6352C59.014 39.0689 58.4258 39.3125 57.8125 39.3125C57.1992 39.3125 56.611 39.0689 56.1773 38.6352C55.7436 38.2015 55.5 37.6133 55.5 37V9.25C55.5 8.02337 55.0127 6.84699 54.1454 5.97963C53.278 5.11228 52.1016 4.625 50.875 4.625ZM55.5 64.75C55.5 65.9766 55.0127 67.153 54.1454 68.0204C53.278 68.8877 52.1016 69.375 50.875 69.375H23.125C21.8984 69.375 20.722 68.8877 19.8546 68.0204C18.9873 67.153 18.5 65.9766 18.5 64.75V55.5C18.5 54.8867 18.2564 54.2985 17.8227 53.8648C17.389 53.4311 16.8008 53.1875 16.1875 53.1875C15.5742 53.1875 14.986 53.4311 14.5523 53.8648C14.1186 54.2985 13.875 54.8867 13.875 55.5V64.75C13.875 67.2033 14.8496 69.556 16.5843 71.2907C18.319 73.0254 20.6717 74 23.125 74H50.875C53.3283 74 55.681 73.0254 57.4157 71.2907C59.1504 69.556 60.125 67.2033 60.125 64.75V55.5C60.125 54.8867 59.8814 54.2985 59.4477 53.8648C59.014 53.4311 58.4258 53.1875 57.8125 53.1875C57.1992 53.1875 56.611 53.4311 56.1773 53.8648C55.7436 54.2985 55.5 54.8867 55.5 55.5V64.75ZM7.92263 36.7873C8.47951 36.5303 8.91151 36.0626 9.12358 35.4871C9.33565 34.9116 9.31042 34.2755 9.05344 33.7186C8.9262 33.4428 8.74589 33.1948 8.52281 32.9888C8.29973 32.7827 8.03825 32.6226 7.75329 32.5176C7.1778 32.3055 6.54164 32.3308 5.98475 32.5877C4.37988 33.3278 2.96 34.1973 1.9055 35.224C0.851 36.2692 0 37.6429 0 39.3125C0 41.8377 1.887 43.66 3.80638 44.8671C5.84137 46.1529 8.63025 47.2259 11.877 48.0861C18.3983 49.8251 27.2782 50.875 37 50.875C37.4563 50.875 37.9096 50.8719 38.3597 50.8657L33.0503 56.1753C32.8352 56.3903 32.6647 56.6455 32.5483 56.9264C32.432 57.2073 32.3721 57.5084 32.3721 57.8125C32.3721 58.1166 32.432 58.4177 32.5483 58.6986C32.6647 58.9795 32.8352 59.2347 33.0503 59.4497C33.4845 59.884 34.0734 60.1279 34.6875 60.1279C34.9916 60.1279 35.2927 60.068 35.5736 59.9517C35.8545 59.8353 36.1097 59.6648 36.3247 59.4497L45.5747 50.1997C45.7901 49.9849 45.961 49.7298 46.0775 49.4488C46.1941 49.1679 46.2541 48.8667 46.2541 48.5625C46.2541 48.2583 46.1941 47.9571 46.0775 47.6762C45.961 47.3952 45.7901 47.1401 45.5747 46.9253L36.3247 37.6753C36.1097 37.4602 35.8545 37.2897 35.5736 37.1733C35.2927 37.057 34.9916 36.9971 34.6875 36.9971C34.3834 36.9971 34.0823 37.057 33.8014 37.1733C33.5205 37.2897 33.2653 37.4602 33.0503 37.6753C32.8352 37.8903 32.6647 38.1455 32.5483 38.4264C32.432 38.7073 32.3721 39.0084 32.3721 39.3125C32.3721 39.6166 32.432 39.9177 32.5483 40.1986C32.6647 40.4795 32.8352 40.7347 33.0503 40.9497L38.3459 46.2407L37 46.25C27.565 46.25 19.1012 45.2279 13.0702 43.6184C10.0363 42.809 7.74687 41.8886 6.2715 40.959C4.6805 39.9554 4.625 39.3402 4.625 39.3125C4.625 39.2986 4.625 39.0396 5.143 38.5262C5.67487 38.0083 6.57675 37.407 7.918 36.7873H7.92263ZM68.0153 32.5877C67.4584 32.3308 66.8222 32.3055 66.2467 32.5176C65.6712 32.7297 65.2035 33.1617 64.9466 33.7186C64.6896 34.2755 64.6644 34.9116 64.8764 35.4871C65.0885 36.0626 65.5205 36.5303 66.0774 36.7873C67.4279 37.407 68.3251 38.0083 68.8524 38.5309C69.375 39.0396 69.375 39.2986 69.375 39.3125C69.375 39.3264 69.375 39.6131 68.7738 40.1774C68.1632 40.7416 67.1458 41.3799 65.6426 42.0274C62.6595 43.3224 58.2611 44.4463 52.8638 45.2048C52.2649 45.3 51.7275 45.6267 51.3672 46.1145C51.0069 46.6022 50.8525 47.2119 50.9374 47.8123C51.0223 48.4127 51.3397 48.9557 51.8211 49.3244C52.3025 49.6931 52.9095 49.858 53.5112 49.7835C59.1167 48.9972 63.9637 47.7947 67.4788 46.2777C69.2363 45.5192 70.7764 44.6266 71.9188 43.5629C73.0565 42.5037 74 41.0793 74 39.3125C74 37.6382 73.149 36.26 72.0945 35.2286C71.04 34.1973 69.6201 33.3278 68.0153 32.5877ZM34.6875 9.25C34.0742 9.25 33.486 9.49364 33.0523 9.92732C32.6186 10.361 32.375 10.9492 32.375 11.5625C32.375 12.1758 32.6186 12.764 33.0523 13.1977C33.486 13.6314 34.0742 13.875 34.6875 13.875H39.3125C39.9258 13.875 40.514 13.6314 40.9477 13.1977C41.3814 12.764 41.625 12.1758 41.625 11.5625C41.625 10.9492 41.3814 10.361 40.9477 9.92732C40.514 9.49364 39.9258 9.25 39.3125 9.25H34.6875Z" fill="#14AE5C"/>
</svg>
