<svg width="83" height="83" viewBox="0 0 83 83" fill="none" xmlns="http://www.w3.org/2000/svg">
<path fill-rule="evenodd" clip-rule="evenodd" d="M37.177 6.9165H44.0937C50.6161 6.9165 53.8738 6.9165 55.9004 8.94309C57.927 10.9697 57.927 14.2274 57.927 20.7498V73.4894H75.2187C75.9066 73.4894 76.5663 73.7627 77.0527 74.2491C77.5391 74.7355 77.8124 75.3953 77.8124 76.0832C77.8124 76.7711 77.5391 77.4308 77.0527 77.9172C76.5663 78.4036 75.9066 78.6769 75.2187 78.6769H6.052C5.3641 78.6769 4.70437 78.4036 4.21794 77.9172C3.73152 77.4308 3.45825 76.7711 3.45825 76.0832C3.45825 75.3953 3.73152 74.7355 4.21794 74.2491C4.70437 73.7627 5.3641 73.4894 6.052 73.4894H23.3437V20.7498C23.3437 14.2274 23.3437 10.9697 25.3703 8.94309C27.3968 6.9165 30.6546 6.9165 37.177 6.9165ZM40.6353 14.6978C41.3232 14.6978 41.983 14.971 42.4694 15.4574C42.9558 15.9439 43.2291 16.6036 43.2291 17.2915V21.6144H47.552C48.2399 21.6144 48.8996 21.8877 49.3861 22.3741C49.8725 22.8605 50.1458 23.5203 50.1458 24.2082C50.1458 24.8961 49.8725 25.5558 49.3861 26.0422C48.8996 26.5287 48.2399 26.8019 47.552 26.8019H43.2291V31.1248C43.2291 31.8127 42.9558 32.4725 42.4694 32.9589C41.983 33.4453 41.3232 33.7186 40.6353 33.7186C39.9474 33.7186 39.2877 33.4453 38.8013 32.9589C38.3149 32.4725 38.0416 31.8127 38.0416 31.1248V26.8019H33.7187C33.0308 26.8019 32.371 26.5287 31.8846 26.0422C31.3982 25.5558 31.1249 24.8961 31.1249 24.2082C31.1249 23.5203 31.3982 22.8605 31.8846 22.3741C32.371 21.8877 33.0308 21.6144 33.7187 21.6144H38.0416V17.2915C38.0416 16.6036 38.3149 15.9439 38.8013 15.4574C39.2877 14.971 39.9474 14.6978 40.6353 14.6978ZM31.1249 41.4998C31.1249 40.8119 31.3982 40.1522 31.8846 39.6658C32.371 39.1794 33.0308 38.9061 33.7187 38.9061H47.552C48.2399 38.9061 48.8996 39.1794 49.3861 39.6658C49.8725 40.1522 50.1458 40.8119 50.1458 41.4998C50.1458 42.1877 49.8725 42.8475 49.3861 43.3339C48.8996 43.8203 48.2399 44.0936 47.552 44.0936H33.7187C33.0308 44.0936 32.371 43.8203 31.8846 43.3339C31.3982 42.8475 31.1249 42.1877 31.1249 41.4998ZM31.1249 51.8748C31.1249 51.1869 31.3982 50.5272 31.8846 50.0408C32.371 49.5544 33.0308 49.2811 33.7187 49.2811H47.552C48.2399 49.2811 48.8996 49.5544 49.3861 50.0408C49.8725 50.5272 50.1458 51.1869 50.1458 51.8748C50.1458 52.5627 49.8725 53.2225 49.3861 53.7089C48.8996 54.1953 48.2399 54.4686 47.552 54.4686H33.7187C33.0308 54.4686 32.371 54.1953 31.8846 53.7089C31.3982 53.2225 31.1249 52.5627 31.1249 51.8748ZM40.6353 63.1144C41.3232 63.1144 41.983 63.3877 42.4694 63.8741C42.9558 64.3605 43.2291 65.0203 43.2291 65.7082V73.4894H38.0416V65.7082C38.0416 65.0203 38.3149 64.3605 38.8013 63.8741C39.2877 63.3877 39.9474 63.1144 40.6353 63.1144Z" fill="#14AE5C"/>
<path opacity="0.5" d="M72.324 20.366C73.4895 22.109 73.4895 24.5367 73.4895 29.3957V73.4894H75.2187C75.9066 73.4894 76.5663 73.7627 77.0527 74.2491C77.5391 74.7355 77.8124 75.3953 77.8124 76.0832C77.8124 76.7711 77.5391 77.4308 77.0527 77.9172C76.5663 78.4037 75.9066 78.6769 75.2187 78.6769H6.052C5.3641 78.6769 4.70437 78.4037 4.21794 77.9172C3.73152 77.4308 3.45825 76.7711 3.45825 76.0832C3.45825 75.3953 3.73152 74.7355 4.21794 74.2491C4.70437 73.7627 5.3641 73.4894 6.052 73.4894H7.78117V29.3957C7.78117 24.5367 7.78117 22.109 8.94663 20.366C9.45139 19.6104 10.1001 18.9617 10.8556 18.457C12.3808 17.4368 19.6294 17.3088 23.3679 17.295C23.3563 18.3025 23.3517 19.3515 23.354 20.442V25.0728H14.6978C14.0099 25.0728 13.3502 25.346 12.8638 25.8324C12.3774 26.3189 12.1041 26.9786 12.1041 27.6665C12.1041 28.3544 12.3774 29.0141 12.8638 29.5006C13.3502 29.987 14.0099 30.2603 14.6978 30.2603H23.354V35.4478H14.6978C14.0099 35.4478 13.3502 35.721 12.8638 36.2074C12.3774 36.6939 12.1041 37.3536 12.1041 38.0415C12.1041 38.7294 12.3774 39.3891 12.8638 39.8756C13.3502 40.362 14.0099 40.6353 14.6978 40.6353H23.354V45.8228H14.6978C14.0099 45.8228 13.3502 46.096 12.8638 46.5824C12.3774 47.0689 12.1041 47.7286 12.1041 48.4165C12.1041 49.1044 12.3774 49.7641 12.8638 50.2506C13.3502 50.737 14.0099 51.0103 14.6978 51.0103H23.354V73.4894H57.9374V51.0103H66.5728C67.2607 51.0103 67.9205 50.737 68.4069 50.2506C68.8933 49.7641 69.1666 49.1044 69.1666 48.4165C69.1666 47.7286 68.8933 47.0689 68.4069 46.5824C67.9205 46.096 67.2607 45.8228 66.5728 45.8228H57.9374V40.6353H66.5728C67.2607 40.6353 67.9205 40.362 68.4069 39.8756C68.8933 39.3891 69.1666 38.7294 69.1666 38.0415C69.1666 37.3536 68.8933 36.6939 68.4069 36.2074C67.9205 35.721 67.2607 35.4478 66.5728 35.4478H57.9374V30.2603H66.5728C67.2607 30.2603 67.9205 29.987 68.4069 29.5006C68.8933 29.0141 69.1666 28.3544 69.1666 27.6665C69.1666 26.9786 68.8933 26.3189 68.4069 25.8324C67.9205 25.346 67.2607 25.0728 66.5728 25.0728H57.9374V20.4386C57.9397 19.3527 57.9351 18.3036 57.9235 17.2915C61.662 17.3088 68.8865 17.4368 70.415 18.457C71.1706 18.9617 71.8193 19.6104 72.324 20.366Z" fill="#14AE5C"/>
</svg>
