<svg width="201" height="156" viewBox="0 0 201 156" fill="none" xmlns="http://www.w3.org/2000/svg">
<path d="M178.897 155.281C192.726 137.101 201 114.01 201 88.8779C201 30.2705 163.576 0 100.5 0C40.205 0 0 30.2705 0 88.8779C0 114.01 8.27488 137.101 22.1034 155.281H178.897Z" fill="#C7E6FF"/>
<path d="M31.9238 143.898H32.3194C32.4498 142.568 32.7054 141.098 33.161 139.56C34.8841 133.745 34.1303 132.993 37.0376 129.357C39.9448 125.722 40.1604 118.183 40.1604 118.183C40.1604 118.183 41.5602 109.623 40.1604 105.853C38.7607 102.084 38.6529 98.3144 35.2606 94.3299C35.2606 94.3299 34.6146 99.6602 33.8069 102.083C32.9993 104.506 32.2325 106.821 32.8315 112.637C33.4305 118.452 33.8026 118.936 33.9391 120.444C34.0764 121.951 33.8608 128.307 34.1842 129.356C34.5077 130.405 32.2994 137.674 32.1377 140.797C32.0899 141.737 32.0021 142.806 31.9238 143.898Z" fill="#215E4B"/>
<path d="M33.1615 143.898C33.7223 142.604 34.7099 141.318 36.4391 140.546C40.9617 138.527 44.0133 138.572 46.1128 133.726C48.2124 128.88 48.2124 122.257 48.9401 120.884C48.9401 120.884 47.0014 120.56 45.0635 124.034C43.1247 127.507 41.8102 130.091 40.6905 132.11C39.5707 134.13 37.9553 133.564 36.5826 135.098C35.4315 136.384 34.3691 139.377 33.9657 140.895C33.8344 141.388 33.644 141.863 33.3928 142.307C33.1641 142.711 32.8946 143.203 32.7329 143.552C32.6973 143.631 32.6616 143.749 32.626 143.898H33.1615Z" fill="#3C8F7C"/>
<path d="M20.3995 120.93C20.0761 125.076 22.7147 124.753 22.8225 127.391C22.9303 130.03 26.3766 134.498 27.9728 137.675C28.8031 139.328 29.11 141.853 29.2126 143.897H30.4949C29.9985 138.724 27.8998 135.123 26.6452 132.236C25.0299 128.521 24.7874 126.825 26.161 123.917C27.5346 121.009 25.515 113.498 27.4694 110.149C29.4238 106.8 28.4223 101.544 27.9728 99.5254C27.5233 97.5058 28.0189 96.133 28.4223 94.0048C28.8257 91.8756 27.9728 88.7841 27.9728 88.7841C27.8998 91.4227 25.8915 95.0298 24.4379 97.345C22.9842 99.6602 20.2378 105.96 20.5612 108.814C20.8847 111.667 20.7229 111.883 20.7229 111.883C19.6997 115.707 20.7221 116.784 20.3995 120.93Z" fill="#215E4B"/>
<path d="M28.0949 140.529C28.2601 141.023 28.7887 142.287 29.2729 143.897H30.0597C29.7015 141.847 29.0843 139.469 28.0419 138.106C25.9423 135.359 21.7422 134.175 21.2571 132.182C20.7729 130.19 21.311 124.214 18.2421 120.875C18.2421 120.875 18.6733 124.592 18.2421 125.587C17.8117 126.583 14.1498 131.213 16.3033 135.09C18.4568 138.966 23.3028 138.482 24.8112 139.344C26.3196 140.205 27.8263 139.721 28.0949 140.529Z" fill="#3C8F7C"/>
<path d="M26.1571 122.65C26.1032 126.634 29.2261 128.141 29.1722 130.349C29.1183 132.556 29.8181 134.925 30.4102 136.702C30.7849 137.827 30.5771 140.959 30.5111 143.897H31.3778C31.5961 141.738 31.8351 138.622 31.756 137.241C31.6482 135.356 32.5098 133.848 32.6176 130.564C32.7254 127.279 33.4253 124.318 31.9716 120.172C30.518 116.026 30.7867 111.072 24.7026 106.495C24.7026 106.495 23.6255 111.341 24.4331 113.98C25.2417 116.619 26.211 118.665 26.1571 122.65Z" fill="#3C8F7C"/>
<path d="M32.3221 140.498H31.7405H23.982C23.4117 140.498 22.9909 141.032 23.1231 141.587L26.1633 154.408C26.2581 154.807 26.6137 155.087 27.0223 155.087H31.7405H32.3221H37.0403C37.4489 155.087 37.8045 154.806 37.8992 154.408L40.9395 141.587C41.0717 141.032 40.6509 140.498 40.0806 140.498H32.3221Z" fill="#9BC1F9"/>
<path d="M72.086 132.949H70.7158V152.99H72.086V132.949Z" fill="#86B1F2"/>
<path d="M91.5406 147.864C91.5406 147.864 91.8405 150.993 91.6432 152.012C91.6171 152.149 91.5588 152.322 91.491 152.512C91.2876 153.084 91.844 154.831 91.844 154.831L99.3016 154.857C99.7076 154.859 99.4364 154.613 99.106 154.387C98.5653 154.017 98.1297 153.774 96.4066 153.003C96.2944 152.953 95.8849 152.711 95.7371 152.628C95.3624 152.416 94.9851 152.079 94.6591 151.742C94.1166 151.179 94.034 148.423 94.034 148.423L91.5406 147.864Z" fill="#F7A491"/>
<path d="M95.736 152.628C93.7703 153.134 92.3088 152.823 91.489 152.519C91.2864 153.09 90.9039 155.021 91.1317 155.021C93.0017 155.021 94.5849 155.36 99.943 155.279C100.135 155.276 100.112 154.646 99.9864 154.507C99.6413 154.122 95.8846 152.712 95.736 152.628Z" fill="#F7CC7F"/>
<path d="M99.9795 142.678C99.9795 142.678 101.61 145.405 101.874 146.411C101.91 146.546 101.931 146.726 101.953 146.926C102.016 147.527 103.281 148.896 103.281 148.896L110.077 145.961C110.447 145.801 110.093 145.685 109.694 145.61C109.041 145.488 108.54 145.44 106.638 145.423C106.514 145.422 106.037 145.365 105.865 145.347C105.432 145.302 104.943 145.146 104.499 144.969C103.761 144.672 102.489 142.197 102.489 142.197L99.9795 142.678Z" fill="#F7A491"/>
<path d="M105.868 145.347C104.299 146.587 102.834 146.884 101.957 146.933C102.02 147.532 102.512 149.441 102.719 149.35C104.42 148.608 106.007 148.288 110.847 146.088C111.02 146.009 110.725 145.446 110.551 145.369C110.069 145.157 106.039 145.364 105.868 145.347Z" fill="#F7CC7F"/>
<path d="M76.7863 119.39V120.998L92.5962 124.176L96.5206 135.443L94.3341 134.016L94.8392 151.366L91.5138 151.388C91.5138 151.388 85.7523 136.831 87.6424 129.51L70.145 129.765C70.145 129.765 62.2144 126.838 66.3066 118.012L76.7863 119.39Z" fill="#F47458"/>
<path d="M76.7881 120.998C76.7881 120.998 93.1883 121.103 94.3533 121.96C95.5183 122.817 104.258 144.124 104.258 144.124L100.446 145.485C100.446 145.485 92.8623 133.397 92.4606 132.534C92.059 131.672 89.1221 125.369 88.0006 124.726C86.8791 124.083 76.7881 120.998 76.7881 120.998Z" fill="#B75742"/>
<path d="M64.1432 153.884H77.7605C78.3874 153.884 78.896 154.393 78.896 155.02C78.896 155.129 78.8073 155.218 78.6977 155.218H63.206C63.0965 155.218 63.0078 155.129 63.0078 155.02C63.0078 154.393 63.5164 153.884 64.1432 153.884Z" fill="#86B1F2"/>
<path d="M70.2756 152.99H71.9439C72.4377 152.99 72.8377 153.39 72.8377 153.884C72.8377 154.378 72.4377 154.778 71.9439 154.778H70.2756C69.7818 154.778 69.3818 154.378 69.3818 153.884C69.3827 153.39 69.7826 152.99 70.2756 152.99Z" fill="#86B1F2"/>
<path d="M77.9477 92.5024C78.0216 90.7184 77.7591 88.9562 76.961 87.2948C76.2741 85.8655 74.5745 85.0543 73.0252 85.0526C68.1036 85.0465 67.4785 91.5487 64.3452 94.0569C63.388 94.8237 62.3178 95.4479 61.4119 96.2738C58.0673 99.3254 59.574 104.975 62.6447 107.651C64.7756 109.507 68.1253 110.562 70.7518 109.11C72.1228 108.353 73.1635 107.093 73.905 105.714C74.9579 103.755 75.636 101.495 76.3845 99.4089C77.1818 97.1867 77.8495 94.8741 77.9477 92.5024Z" fill="#13375B"/>
<path d="M91.5253 111.199L80.8161 108.213C80.8161 108.213 78.5601 105.183 75.6572 101.116C74.7078 102.055 74.1809 103.499 73.2246 104.429L80.3136 112.27C80.5692 112.552 80.9326 112.715 81.3134 112.716L91.1541 112.749L94.5212 113.018V110.862L91.5253 111.199Z" fill="#F48C7F"/>
<path d="M76.1066 108.925C76.1066 108.925 72.4316 105.156 71.4858 103.519C70.5399 101.882 72.13 102.948 73.754 102.517C74.3687 102.353 74.213 98.7499 75.3763 99.9218C77.2837 101.844 79.6815 105.204 79.6815 105.204L76.1066 108.925Z" fill="#96D9C9"/>
<path d="M70.8796 98.2683C70.8796 98.2683 67.5811 97.6171 66.0762 98.8742C64.5713 100.132 66.3987 111.313 66.397 113.166C66.3953 115.02 65.3633 120.256 65.3633 120.256C65.3633 120.256 75.3604 122.006 76.9479 119.223C76.9479 119.223 77.4 108.623 77.3322 107.29C77.2653 105.957 75.7829 100.505 75.3726 99.921C74.964 99.3376 70.8796 98.2683 70.8796 98.2683Z" fill="#50BFA5"/>
<path d="M70.8584 93.1667C70.8584 93.1667 70.8411 93.2649 70.8098 93.4327C70.6602 94.2377 70.0838 96.9085 69.6952 97.6423C69.2249 98.5299 71.3053 101.359 73.3075 101.014C73.9039 100.911 72.8033 98.4134 72.8563 98.1491C72.9572 97.6423 73.0945 96.952 73.2354 96.2434C73.3145 95.8435 73.3945 95.4384 73.4701 95.0576C73.684 93.9752 73.8587 93.0902 73.8587 93.0902L70.8584 93.1667Z" fill="#F7A491"/>
<path d="M70.813 93.4327C70.8443 93.2649 70.8617 93.1667 70.8617 93.1667L73.8619 93.0919C73.8619 93.0919 73.6872 93.9769 73.4733 95.0593C73.3985 95.4384 73.3186 95.8409 73.2394 96.2382C72.776 96.1704 72.2918 95.9452 71.8067 95.521C71.2772 95.0585 70.9312 94.5029 70.7217 93.91C70.7582 93.7205 70.7895 93.5579 70.813 93.4327Z" fill="#F47458"/>
<path d="M72.8801 86.3602C72.8801 86.3602 71.4656 86.1967 70.5796 87.3417C69.6929 88.4858 68.7374 92.0243 70.9396 93.9482C73.1417 95.8722 75.3178 93.6944 75.6404 91.3853C75.9629 89.0762 76.089 86.2767 72.8801 86.3602Z" fill="#F7A491"/>
<path d="M76.2913 91.3504C76.0288 91.8608 75.5871 92.1424 75.3054 91.9807C75.0238 91.819 75.009 91.2748 75.2715 90.7645C75.5341 90.255 75.9757 89.9724 76.2574 90.1342C76.5391 90.2967 76.5539 90.841 76.2913 91.3504Z" fill="#F7A491"/>
<path d="M73.036 85.9811C73.036 85.9811 71.1468 89.3466 69.7949 89.5022C68.443 89.6578 68.2656 91.4461 68.2656 91.4461C68.2656 91.4461 68.749 87.3261 70.087 86.5315C71.4259 85.736 73.036 85.9811 73.036 85.9811Z" fill="#13375B"/>
<path d="M70.1531 90.3472C70.2627 90.9454 70.0419 91.4931 69.6593 91.5713C69.2768 91.6496 68.8777 91.2288 68.7673 90.6315C68.6578 90.0343 68.8786 89.4857 69.2611 89.4074C69.6437 89.3292 70.0436 89.75 70.1531 90.3472Z" fill="#F7A491"/>
<path d="M85.5966 110.84L76.3115 108.785C76.3115 108.785 72.9539 104.471 69.7285 100.757C68.7791 101.696 68.2522 103.14 67.2959 104.07L74.3849 111.911C74.6405 112.193 75.0039 112.356 75.3847 112.357L85.2254 112.39L88.5925 112.658V110.503L85.5966 110.84Z" fill="#F7A491"/>
<path d="M70.18 108.566C70.18 108.566 66.505 104.797 65.5591 103.16C64.6132 101.523 65.3148 98.7803 66.9389 98.3491C68.5629 97.9179 73.754 104.845 73.754 104.845L70.18 108.566Z" fill="#96D9C9"/>
<path d="M104.67 100.27H89.3561C88.9509 100.27 88.5858 100.515 88.4319 100.889L83.7172 112.39H75.2754C75.0389 112.39 74.8477 112.581 74.8477 112.817C74.8477 113.052 75.0389 113.243 75.2754 113.243H99.3028C99.9635 113.243 100.563 112.856 100.833 112.253L105.581 101.677C105.877 101.016 105.394 100.27 104.67 100.27Z" fill="#B75742"/>
<path d="M96.4257 106.966C96.3223 107.483 95.8719 107.828 95.419 107.738C94.9669 107.647 94.6835 107.155 94.7869 106.639C94.8904 106.122 95.3407 105.777 95.7937 105.868C96.2466 105.958 96.5292 106.45 96.4257 106.966Z" fill="white"/>
<path d="M73.7305 92.6763L71.6553 92.5685C71.6553 92.5685 71.6622 93.3588 72.5734 93.4327C73.6853 93.5231 73.7305 92.6763 73.7305 92.6763Z" fill="white"/>
<path d="M80.2226 130.642L79.2854 126.742C78.6299 124.014 76.2147 122.03 73.4109 121.916L61.5438 121.436L61.1777 120.227L73.4596 120.724C76.7938 120.859 79.6662 123.219 80.4452 126.463L81.4407 130.607C81.1042 130.622 80.693 130.633 80.2226 130.642Z" fill="#355389"/>
<path d="M64.3029 128.565C64.3029 128.565 80.6075 128.844 82.3072 128.565C84.0068 128.286 84.7424 130.417 84.2355 131.533C83.7278 132.649 82.3324 133.08 80.278 133.182C78.2228 133.284 61.1244 133.765 60.6419 133.309C60.2481 132.936 55.0648 115.214 53.1782 108.734C52.8009 107.439 53.5451 106.085 54.8387 105.705C56.1272 105.327 57.48 106.058 57.8694 107.343L64.3029 128.565Z" fill="#F7CC7F"/>
<path d="M73.5761 115.811H138.816C139.525 115.811 140.1 115.236 140.1 114.527C140.1 113.817 139.526 113.243 138.816 113.243H73.5761C72.8675 113.243 72.292 113.817 72.292 114.527C72.2929 115.236 72.8675 115.811 73.5761 115.811Z" fill="#13375B"/>
<path d="M47.8333 155.299H160.825C162.052 155.299 163.049 155.083 163.049 154.816C163.049 154.55 162.054 154.333 160.825 154.333H47.8333C46.6062 154.333 45.6094 154.55 45.6094 154.816C45.6109 155.083 46.6062 155.299 47.8333 155.299Z" fill="#226600"/>
<path d="M88.5918 155.219H90.4184L86.4818 115.811H84.6543L88.5918 155.219Z" fill="#13375B"/>
<path d="M73.0648 155.219H71.2373L75.1748 115.811H77.0022L73.0648 155.219Z" fill="#13375B"/>
<path d="M138.273 155.219H140.1L136.163 115.811H134.336L138.273 155.219Z" fill="#13375B"/>
<path d="M122.746 155.219H120.919L124.856 115.811H126.683L122.746 155.219Z" fill="#13375B"/>
<path d="M169.149 129.233C169.015 128.042 168.855 126.823 168.302 125.76C167.63 124.467 166.448 123.535 165.416 122.507C163.488 120.587 162.004 118.223 161.114 115.649C160.425 113.659 160.082 111.54 159.132 109.66C158.552 108.512 157.763 107.486 157.104 106.383C155.549 103.774 154.702 100.69 152.592 98.5065C152.186 101.155 152.988 103.965 154.731 105.996C155.25 106.602 155.853 107.148 156.249 107.842C156.967 109.101 156.901 110.637 156.986 112.085C157.144 114.806 157.911 117.49 159.214 119.882C160.598 122.424 162.596 124.687 163.336 127.486C163.891 129.584 163.725 131.936 164.908 133.754C165.036 133.951 165.182 134.149 165.214 134.382C165.231 134.513 165.211 134.645 165.19 134.776C165.164 134.944 165.137 135.113 165.111 135.283C164.843 137 164.564 139.184 166.04 140.469C167.062 141.359 168.377 141.379 169.112 140.196C169.851 139.005 169.786 137.262 169.731 135.923C169.64 133.69 169.401 131.452 169.149 129.233Z" fill="#3C8F7C"/>
<path d="M171.806 127.853C171.232 125.865 170.341 123.973 169.895 121.953C169.462 119.994 169.458 117.969 169.457 115.962C169.455 113.763 169.453 111.565 169.452 109.366C169.451 107.997 169.45 106.621 169.224 105.271C168.737 102.367 167.228 99.681 166.972 96.7468C166.862 95.4784 166.99 94.196 166.85 92.9293C166.77 92.206 166.585 91.4679 166.25 90.8263C165.89 90.136 164.896 90.1664 164.57 90.8732C163.836 92.4616 163.372 94.1795 163.667 95.8818C163.845 96.9025 164.287 97.8553 164.618 98.8377C166.088 103.212 165.307 108.054 166.445 112.526C166.789 113.876 167.308 115.201 167.368 116.592C167.513 119.924 165.025 122.967 165.253 126.293C165.44 129.02 167.401 131.278 168.224 133.885C168.685 135.343 168.783 136.901 169.277 138.35C169.66 139.475 170.552 140.842 171.937 140.5C173.252 140.176 172.855 139.102 172.796 138.077C172.598 134.607 172.785 131.241 171.806 127.853Z" fill="#327F6B"/>
<path d="M174.819 129.673C174.76 128.641 174.587 127.602 174.731 126.578C174.853 125.713 175.197 124.899 175.443 124.061C175.904 122.49 176.018 120.842 176.13 119.209C176.332 116.241 176.536 113.273 176.738 110.305C177.054 105.691 177.37 101.064 178.233 96.5208C178.472 95.2593 178.741 93.8927 178.175 92.7416C178.055 92.499 177.82 92.2417 177.562 92.3225C177.379 92.3799 177.289 92.5825 177.223 92.7633C175.337 97.8884 174.624 103.406 172.519 108.444C172.015 109.65 171.429 110.838 171.167 112.12C170.854 113.66 171.026 115.25 171.066 116.82C171.125 119.073 170.905 121.343 170.283 123.508C169.958 124.64 169.522 125.748 169.343 126.913C169.121 128.366 169.308 129.846 169.447 131.31C169.714 134.123 169.805 136.953 169.718 139.778C169.667 141.439 171.069 141.395 171.997 140.376C172.647 139.662 172.641 138.878 172.863 137.991C173.593 135.074 174.995 132.835 174.819 129.673Z" fill="#3C8F7C"/>
<path d="M166.058 134.177C164.818 132.185 162.349 131.053 161.556 128.844C161.354 128.282 161.276 127.677 161.029 127.133C160.482 125.925 159.238 125.242 158.016 124.687C157.846 124.609 157.653 124.733 157.65 124.92C157.646 125.217 157.787 125.5 158.033 125.666C158.975 126.299 159.691 127.269 160.009 128.361C160.386 129.656 160.223 131.076 160.692 132.34C161.086 133.401 161.898 134.268 162.279 135.335C162.628 136.309 162.591 137.374 162.755 138.396C162.918 139.418 163.373 140.503 164.311 140.935C167.708 142.498 166.858 135.464 166.058 134.177Z" fill="#327F6B"/>
<path d="M180.182 133.519C180.129 134.483 180.276 135.492 179.899 136.38C179.659 136.947 179.225 137.407 178.868 137.91C177.618 139.678 177.165 142.183 175.245 143.178C175.118 143.244 174.977 143.303 174.836 143.277C174.64 143.24 174.51 143.051 174.431 142.866C173.96 141.769 174.488 140.534 174.801 139.381C174.856 139.179 174.902 138.954 174.806 138.769C174.7 138.565 174.459 138.477 174.294 138.317C173.967 137.998 173.997 137.469 174.062 137.016C174.225 135.882 174.454 134.759 174.747 133.652C174.913 133.025 175.106 132.392 175.467 131.854C175.865 131.261 176.444 130.818 176.984 130.352C179.376 128.295 181.208 125.591 182.233 122.604C182.455 121.957 182.653 121.275 183.111 120.769C183.569 120.263 184.387 120.002 184.945 120.395C185.343 120.675 183.715 123.293 183.526 123.607C182.983 124.504 182.976 125.285 182.67 126.28C181.92 128.72 180.325 130.904 180.182 133.519Z" fill="#3C8F7C"/>
<path d="M178.288 134.633C178.643 133.714 179.001 132.784 179.118 131.806C179.248 130.718 179.075 129.606 179.261 128.527C179.5 127.14 180.309 125.919 180.71 124.57C180.999 123.595 181.07 122.571 181.244 121.57C181.74 118.705 183.088 115.906 182.701 113.024C182.616 112.398 182.334 111.667 181.711 111.56C181.148 111.464 180.635 111.979 180.489 112.531C180.343 113.084 180.452 113.669 180.492 114.24C180.604 115.833 180.149 117.459 179.228 118.762C178.343 120.014 177.06 120.957 176.264 122.267C175.287 123.874 175.154 125.836 174.656 127.65C173.665 131.258 171.179 134.405 170.727 138.119C170.547 139.597 170.893 141.394 172.258 141.985C176.204 143.69 177.395 136.944 178.288 134.633Z" fill="#327F6B"/>
<path d="M171.391 139.211H170.76H162.337C161.718 139.211 161.262 139.79 161.404 140.394L164.704 154.311C164.807 154.744 165.193 155.049 165.637 155.049H170.76H171.391H176.513C176.958 155.049 177.344 154.744 177.446 154.311L180.746 140.394C180.89 139.79 180.433 139.211 179.814 139.211H171.391Z" fill="#9BC1F9"/>
<path d="M90.3638 42.1431L90.3301 42.407L118.128 45.9633L118.162 45.6995L90.3638 42.1431Z" fill="#9BC1F9"/>
<path d="M90.5631 45.217L90.6901 44.9831L52.1499 24.2316L67.5555 20.3993L67.4912 20.142L51.417 24.1395L90.5631 45.217Z" fill="#9BC1F9"/>
<path d="M27.5117 52.2642L27.4268 52.5172L77.8577 69.4446L77.9426 69.1916L27.5117 52.2642Z" fill="#9BC1F9"/>
<path d="M175.159 70.5789L175.35 70.3929L150.26 44.7449L150.237 44.7345L107.336 26.2199L92.5324 24.0543L92.4941 24.3168L107.28 26.4808L150.107 44.9692L175.159 70.5789Z" fill="#9BC1F9"/>
<path d="M95.1992 76.6733L97.1128 62.9169L97.0154 62.8787L75.1945 54.3143L55.7097 46.0055L55.6045 46.2498L75.0937 54.5603L96.8198 63.0882L94.9358 76.6368L95.1992 76.6733Z" fill="#9BC1F9"/>
<path d="M93.7285 76.7725L93.8519 76.5369L76.3789 67.4039V53.2537L58.4929 68.3489L26.8853 52.8312L59.3414 43.9582L59.3666 43.8999L69.1847 21.6809L92.0575 24.3029L89.8779 42.2637L90.1413 42.2959L92.3539 24.0682L92.2209 24.0534L69.0203 21.394L68.9803 21.4835L59.1484 43.7347L26.1367 52.7599L58.532 68.6645L58.5981 68.6089L76.1128 53.8266V67.5648L93.7285 76.7725Z" fill="#9BC1F9"/>
<path d="M148.88 46.5098L148.885 46.2429L119.162 45.6378L127.608 20.5985L127.356 20.5133L118.794 45.896L148.88 46.5098Z" fill="#9BC1F9"/>
<path d="M186.658 62.6309L186.786 62.3971L153.089 43.9338L131.204 24.2212L131.025 24.4186L152.936 44.1494L186.658 62.6309Z" fill="#9BC1F9"/>
<path d="M158.539 67.0031L158.448 67.254L175.226 73.3421L175.317 73.0912L158.539 67.0031Z" fill="#9BC1F9"/>
<path d="M158.45 66.654L142.361 70.8916L142.429 71.1497L158.518 66.9121L158.45 66.654Z" fill="#9BC1F9"/>
<path d="M141.495 70.838L122.815 72.1469L122.834 72.4123L141.514 71.1034L141.495 70.838Z" fill="#9BC1F9"/>
<path d="M105.624 52.0174L105.666 52.013L146.392 48.7137L146.37 48.4485L105.687 51.7444L93.204 44.332L93.0684 44.5615L105.624 52.0174Z" fill="#9BC1F9"/>
<path d="M114.814 69.5739L115.049 69.4469L105.674 52.1295L97.5195 63.1995L97.7334 63.3577L105.639 52.6251L114.814 69.5739Z" fill="#9BC1F9"/>
<path d="M90.4404 43.5095L106.602 27.0537L128.944 20.6837L128.871 20.428L106.461 26.8163L106.436 26.8424L90.25 43.3235L90.4404 43.5095Z" fill="#9BC1F9"/>
<path d="M36.7222 40.5502L36.6699 40.8111L52.8859 44.0592L52.9381 43.7984L36.7222 40.5502Z" fill="#9BC1F9"/>
<path d="M40.4105 73.3871L40.5026 73.1376L26.0629 67.7908V51.441L37.7971 42.3289L37.7719 42.242L32.8763 25.6505L32.6207 25.7261L37.4911 42.2298L25.7969 51.3115V67.976L40.4105 73.3871Z" fill="#9BC1F9"/>
<path d="M54.7327 49.2096L26.4424 67.0026L26.5845 67.2285L54.8748 49.4355L54.7327 49.2096Z" fill="#9BC1F9"/>
<path d="M128.944 22.1043L128.867 22.359L146.338 27.6056L146.414 27.3508L128.944 22.1043Z" fill="#9BC1F9"/>
<path d="M119.728 46.4871L118.84 71.0024L119.106 71.012L119.994 46.4967L119.728 46.4871Z" fill="#9BC1F9"/>
<path d="M77.2034 70.6911L87.8161 40.3971L87.5648 40.3085L76.9521 70.6024L77.2034 70.6911Z" fill="#9BC1F9"/>
<path d="M34.4448 24.4545L34.2646 24.6514L56.7061 45.1886L56.8863 44.9917L34.4448 24.4545Z" fill="#9BC1F9"/>
<path d="M25.587 52.726V68.1229L40.5371 73.6583L40.777 73.0115L26.2773 67.643V67.1414L26.5155 67.5204L39.319 59.4681L58.563 68.9158L58.7352 68.7697L63.4082 64.8253L77.1333 69.4418L76.6812 70.7311L77.3323 70.9606L77.787 69.6617L77.9887 69.7296L78.2087 69.0749L78.0157 69.0097L78.0783 68.8306L93.8178 77.0577L94.1368 76.4456L78.3087 68.1716L82.0427 57.5129L96.5894 63.223L94.6985 76.816L95.3818 76.9107L97.2771 63.283L97.7778 63.6525L105.611 53.0181L114.728 69.8591L115.335 69.5305L105.954 52.2009L119.348 51.1159L118.622 71.1988L119.312 71.2232L120.042 51.0602L146.62 48.9067L146.565 48.2191L120.066 50.3656L120.214 46.2838L119.524 46.2594L119.374 50.4221L105.737 51.5271L93.1292 44.0408L92.7771 44.6346L105.406 52.1331L97.2962 63.143L97.3466 62.7788L97.0928 62.6797L82.2696 56.8617L86.947 43.5104L90.6479 45.5031L90.9757 44.8962L87.1773 42.8514L88.0832 40.2659L87.4321 40.0363L86.5618 42.5193L65.2704 31.0555L69.3122 21.9078L91.819 24.4873L89.6386 42.4463L90.1011 42.5028L90.0898 42.5932L90.6028 42.6584L89.949 43.3244L90.441 43.8078L91.4617 42.768L118.31 46.189L118.398 45.5039L92.0694 42.149L106.712 27.2398L107.792 26.932L122.779 33.4011L118.495 46.0995L149.083 46.7228L149.096 46.0325L119.45 45.4283L123.414 33.675L149.981 45.144L152.215 47.4279L142.613 68.6567L134.178 53.5302L120.151 72.795L120.731 73.1697L134.09 54.9342L142.634 70.286L152.734 47.9565L175.154 70.8754L175.647 70.3929L153.042 47.2853L153.427 46.4333L152.797 46.1499L152.523 46.7559L150.383 44.5676L123.639 33.0256L127.597 21.2896L129.208 20.8306L129.019 20.1672L127.865 20.4967L127.874 20.4672L127.221 20.2464L127.059 20.7263L107.836 26.206L107.395 26.0156L92.3537 23.8143L92.3476 23.8552L92.245 23.8439L68.8888 21.1662L68.7862 21.3992L64.6636 30.7295L52.7338 24.3064L67.8134 20.555L67.6464 19.8856L50.835 24.0665L64.3845 31.3624L58.996 43.5574L56.4061 44.2651L34.4331 24.1569L33.9671 24.6664L55.6193 44.4807L27.7405 52.1018L27.3858 51.9827L27.3058 52.2209L26.2773 52.5017V51.5453L38.0436 42.408L37.9767 42.182L37.6968 41.2344L53.0554 44.3085L53.1911 43.6321L37.4768 40.4867L33.0212 25.3888L32.3587 25.5827L36.7117 40.3337L36.5578 40.3032L36.4222 40.9796L36.9326 41.0813L37.2481 42.1516L25.587 51.208V52.6912L25.54 52.7043L25.587 52.726ZM108.837 26.6373L126.791 21.5192L123.002 32.7508L108.837 26.6373ZM92.5119 24.5342L106.512 26.5825L106.351 26.6286L106.287 26.6946L91.2139 42.042L90.3993 41.9386L92.5119 24.5342ZM27.7187 52.8234L41.3178 57.3964L39.279 58.6787L27.4831 52.8877L27.7187 52.8234ZM81.6289 56.6104L76.5908 54.6334V52.7973L75.1102 54.0466L55.6001 45.7265L55.3289 46.3603L74.5207 54.5448L63.2604 64.0481L42.9166 57.206L55.1646 49.5031L54.7968 48.9189L42.0715 56.9225L28.9133 52.4973L56.2209 45.0319L56.7217 45.49L57.1877 44.9806L57.0077 44.8163L59.4942 44.1364L59.5602 43.9851L64.9931 31.6902L86.3332 43.1809L81.6289 56.6104ZM75.9013 54.2831V54.3631L75.837 54.3378L75.9013 54.2831ZM77.6914 67.8508L76.5908 67.2753V55.3742L81.4002 57.2616L77.6914 67.8508ZM64.0263 64.3054L75.2371 54.843L75.9005 55.1038V67.6934L77.4601 68.5089L77.361 68.7906L64.0263 64.3054ZM40.0067 59.036L42.1619 57.6806L62.6431 64.5688L58.4622 68.0977L40.0067 59.036ZM26.2773 53.0651L38.5914 59.1108L26.2773 66.8553V53.0651Z" fill="#9BC1F9"/>
<path d="M185.951 62.4849L154.755 45.3883L151.784 45.4404L151.772 44.7501L153.534 44.7197L152.813 44.3241L152.01 43.6017L151.436 45.1509L150.789 44.911L151.458 43.1044L130.727 24.4342L131.189 23.9221L151.715 42.4115L159.523 21.3339L160.17 21.5739L152.267 42.9079L153.213 43.7599L154.919 44.6954L181.415 46.0847L181.427 46.775L156.141 45.3639L185.778 61.6024L180.645 46.4959L181.323 46.3637L186.566 62.0345L187.074 62.3127L186.742 62.9187L186.739 62.917L187.106 64.7827L177.565 70.9275L177.191 70.3477L186.339 64.4567L185.951 62.4849Z" fill="#9BC1F9"/>
<path d="M158.718 66.8318L175.583 72.955L175.348 73.6044L158.171 67.3682L158.226 67.2196L142.282 71.4179L142.107 70.7493L158.606 66.405L158.718 66.8318Z" fill="#9BC1F9"/>
<path d="M141.693 70.6113L122.59 71.9499L122.638 72.6376L141.741 71.2991L141.693 70.6113Z" fill="#9BC1F9"/>
<path d="M128.803 21.8294L128.604 22.4906L146.485 27.8515L146.683 27.1902L128.803 21.8294Z" fill="#9BC1F9"/>
<path d="M159.647 21.6117L151.06 44.7903L151.309 44.8827L159.896 21.7042L159.647 21.6117Z" fill="#9BC1F9"/>
<path d="M74.1221 25.6842C76.1132 22.4626 75.1156 18.2369 71.894 16.2458C68.6725 14.2548 64.4468 15.2523 62.4557 18.4739C60.4647 21.6955 61.4622 25.9212 64.6838 27.9122C67.9054 29.9033 72.1311 28.9057 74.1221 25.6842Z" fill="white"/>
<path d="M48.1013 73.3825C48.7156 69.5975 46.1452 66.0311 42.3602 65.4168C38.5751 64.8025 35.0088 67.3729 34.3945 71.158C33.7802 74.943 36.3506 78.5093 40.1356 79.1236C43.9207 79.7379 47.487 77.1675 48.1013 73.3825Z" fill="white"/>
<path d="M124.06 45.7674C124.06 48.5755 121.783 50.8525 118.975 50.8525C116.167 50.8525 113.89 48.5755 113.89 45.7674C113.89 42.9592 116.167 40.6823 118.975 40.6823C121.783 40.6823 124.06 42.9584 124.06 45.7674Z" fill="white"/>
<path d="M153.857 54.4249C159.01 53.3945 162.351 48.3824 161.321 43.2301C160.291 38.0777 155.278 34.7361 150.126 35.7665C144.974 36.7969 141.632 41.809 142.663 46.9614C143.693 52.1137 148.705 55.4553 153.857 54.4249Z" fill="white"/>
<path d="M108.79 30.5586C111.113 29.7436 112.336 27.1995 111.521 24.8761C110.706 22.5528 108.162 21.33 105.839 22.145C103.515 22.96 102.293 25.5041 103.108 27.8275C103.923 30.1508 106.467 31.3736 108.79 30.5586Z" fill="white"/>
<path d="M165.346 24.3513C165.698 20.7917 163.098 17.6204 159.539 17.2681C155.979 16.9157 152.808 19.5157 152.455 23.0753C152.103 26.6349 154.703 29.8062 158.263 30.1585C161.822 30.5109 164.993 27.9109 165.346 24.3513Z" fill="white"/>
<path d="M35.0877 32.4509C38.2649 32.4509 40.8405 29.8753 40.8405 26.6981C40.8405 23.521 38.2649 20.9454 35.0877 20.9454C31.9106 20.9454 29.335 23.521 29.335 26.6981C29.335 29.8753 31.9106 32.4509 35.0877 32.4509Z" fill="white"/>
<path d="M99.4401 44.1078C100.045 39.488 96.7914 35.2523 92.172 34.6471C87.5527 34.0419 83.3174 37.2964 82.7121 41.9162C82.1069 46.536 85.3609 50.7716 89.9802 51.3768C94.5995 51.982 98.8349 48.7276 99.4401 44.1078Z" fill="white"/>
<path d="M33.5937 53.695C34.5928 49.4637 31.9727 45.2236 27.7414 44.2245C23.5102 43.2254 19.2701 45.8456 18.271 50.0768C17.2719 54.3081 19.892 58.5481 24.1233 59.5473C28.3545 60.5464 32.5946 57.9262 33.5937 53.695Z" fill="white"/>
<path d="M186.509 46.8333C186.509 49.9144 184.011 52.4131 180.929 52.4131C177.847 52.4131 175.35 49.9153 175.35 46.8333C175.35 43.7522 177.847 41.2535 180.929 41.2535C184.011 41.2535 186.509 43.7513 186.509 46.8333Z" fill="white"/>
<path d="M101.364 64.1693C101.851 62.1067 100.574 60.0398 98.5111 59.5528C96.4485 59.0658 94.3816 60.343 93.8946 62.4056C93.4075 64.4682 94.6848 66.5351 96.7473 67.0221C98.8099 67.5091 100.877 66.2319 101.364 64.1693Z" fill="white"/>
<path d="M147.481 69.4748C147.481 72.156 145.307 74.3295 142.626 74.3295C139.945 74.3295 137.771 72.156 137.771 69.4748C137.771 66.7936 139.945 64.6193 142.626 64.6193C145.307 64.6193 147.481 66.7928 147.481 69.4748Z" fill="white"/>
<path d="M136.506 23.3466C137.454 19.1531 134.822 14.9854 130.629 14.0378C126.435 13.0903 122.268 15.7216 121.32 19.9152C120.373 24.1087 123.004 28.2764 127.198 29.2239C131.391 30.1715 135.559 27.5401 136.506 23.3466Z" fill="white"/>
<path d="M132.489 20.2646C132.533 19.2196 132.379 18.1885 131.911 17.2157C131.509 16.3784 130.514 15.9037 129.606 15.9029C126.725 15.8994 126.358 19.7056 124.525 21.1749C123.964 21.6235 123.338 21.9886 122.808 22.4729C120.85 24.2595 121.732 27.5675 123.529 29.1333C124.777 30.22 126.738 30.8382 128.276 29.9879C129.079 29.5445 129.688 28.8073 130.123 27.9987C130.739 26.852 131.137 25.5297 131.575 24.3073C132.042 23.0067 132.432 21.653 132.489 20.2646Z" fill="#13375B"/>
<path d="M131.412 29.8792C131.412 29.8792 129.26 27.6727 128.706 26.7138C128.152 25.7548 129.083 26.379 130.034 26.1269C130.394 26.0313 130.302 23.9213 130.983 24.6072C132.099 25.7322 133.503 27.6996 133.503 27.6996L131.412 29.8792Z" fill="#96D9C9"/>
<path d="M128.353 23.6404C128.353 23.6404 126.422 23.2596 125.54 23.9952C124.659 24.7315 125.729 31.2772 125.728 32.3622C125.727 33.4472 125.123 36.2814 125.123 36.2814C125.123 36.2814 130.976 37.5377 131.906 35.9084C131.906 35.9084 132.17 29.7018 132.131 28.9211C132.092 28.1404 131.224 24.9489 130.984 24.6072C130.745 24.2664 128.353 23.6404 128.353 23.6404Z" fill="#50BFA5"/>
<path d="M128.341 20.6532C128.341 20.6532 128.331 20.7106 128.312 20.8088C128.225 21.2801 127.887 22.8441 127.66 23.2736C127.384 23.7935 128.602 25.4497 129.775 25.248C130.123 25.188 129.48 23.7257 129.51 23.5709C129.57 23.2744 129.65 22.8702 129.732 22.4555C129.778 22.2216 129.825 21.9843 129.87 21.7617C129.995 21.1279 130.097 20.6098 130.097 20.6098L128.341 20.6532Z" fill="#F7A491"/>
<path d="M128.31 20.8088C128.328 20.7106 128.339 20.6532 128.339 20.6532L130.096 20.6098C130.096 20.6098 129.993 21.1279 129.868 21.7617C129.824 21.9834 129.777 22.219 129.731 22.452C129.46 22.412 129.177 22.2807 128.892 22.0321C128.583 21.7617 128.379 21.4365 128.257 21.0888C128.279 20.9775 128.297 20.8819 128.31 20.8088Z" fill="#F47458"/>
<path d="M129.524 16.6679C129.524 16.6679 128.696 16.5723 128.177 17.2426C127.658 17.9129 127.098 19.9846 128.388 21.1105C129.677 22.2372 130.951 20.9618 131.14 19.6099C131.329 18.258 131.403 16.6192 129.524 16.6679Z" fill="#F7A491"/>
<path d="M130.813 16.328C130.813 16.328 129.199 18.6406 127.663 18.3311L127.62 17.3443L127.762 16.9705L128.541 16.4706L129.806 16.1819L130.813 16.328Z" fill="#13375B"/>
<path d="M131.519 19.59C131.365 19.8882 131.107 20.0542 130.942 19.9594C130.778 19.8647 130.768 19.5465 130.922 19.2474C131.076 18.9492 131.334 18.7832 131.499 18.8779C131.664 18.9727 131.673 19.2918 131.519 19.59Z" fill="#F7A491"/>
<path d="M127.925 19.0031C127.99 19.3526 127.86 19.6743 127.636 19.7195C127.411 19.7655 127.178 19.5186 127.113 19.1691C127.049 18.8196 127.178 18.4988 127.403 18.4528C127.627 18.4067 127.861 18.6527 127.925 19.0031Z" fill="#F7A491"/>
<path d="M130.022 20.3663L128.808 20.3037C128.808 20.3037 128.812 20.7663 129.345 20.8097C129.995 20.8619 130.022 20.3663 130.022 20.3663Z" fill="white"/>
<path d="M130.022 20.3663L128.808 20.3037C128.808 20.3037 128.812 20.7663 129.345 20.8097C129.995 20.8619 130.022 20.3663 130.022 20.3663Z" fill="white"/>
<path d="M126.269 29.8027C126.269 29.8027 125.002 26.9937 124.809 25.9035C124.617 24.8133 125.552 23.4448 126.532 23.5326C127.512 23.6213 128.98 28.4717 128.98 28.4717L126.269 29.8027Z" fill="#96D9C9"/>
<path d="M65.4392 47.137C66.5656 42.3665 63.6115 37.5861 58.841 36.4596C54.0705 35.3332 49.2901 38.2873 48.1636 43.0578C47.0372 47.8283 49.9913 52.6087 54.7618 53.7352C59.5323 54.8616 64.3127 51.9075 65.4392 47.137Z" fill="white"/>
<path d="M81.7552 68.0821C81.7552 70.7346 79.6043 72.8855 76.9518 72.8855C74.2993 72.8855 72.1484 70.7346 72.1484 68.0821C72.1484 65.4296 74.2993 63.2787 76.9518 63.2787C79.6043 63.2787 81.7552 65.4296 81.7552 68.0821Z" fill="white"/>
<path d="M119.449 79.5883C124.619 79.3305 128.601 74.9302 128.343 69.7598C128.086 64.5895 123.685 60.6072 118.515 60.8649C113.345 61.1227 109.362 65.5231 109.62 70.6934C109.878 75.8637 114.278 79.8461 119.449 79.5883Z" fill="white"/>
<path d="M181.446 69.7435C181.446 73.1176 178.71 75.8536 175.336 75.8536C171.962 75.8536 169.226 73.1176 169.226 69.7435C169.226 66.3685 171.962 63.6334 175.336 63.6334C178.71 63.6334 181.446 66.3694 181.446 69.7435Z" fill="white"/>
<path d="M131.581 54.6056C131.581 56.0175 132.726 57.1625 134.138 57.1625C135.55 57.1625 136.695 56.0175 136.695 54.6056C136.695 53.1929 135.55 52.0488 134.138 52.0488C132.726 52.0479 131.581 53.1929 131.581 54.6056Z" fill="white"/>
<path d="M144.863 27.4675C144.863 28.3082 145.545 28.989 146.385 28.989C147.225 28.989 147.906 28.3074 147.906 27.4675C147.906 26.6268 147.225 25.9461 146.385 25.9461C145.545 25.9461 144.863 26.6277 144.863 27.4675Z" fill="white"/>
<path d="M160.521 67.9539C160.985 66.8342 160.454 65.5505 159.334 65.0867C158.214 64.6229 156.931 65.1546 156.467 66.2743C156.003 67.394 156.535 68.6776 157.654 69.1414C158.774 69.6052 160.058 69.0735 160.521 67.9539Z" fill="white"/>
<path d="M90.3477 24.1856C90.3477 25.3819 91.3179 26.3522 92.5142 26.3522C93.7105 26.3522 94.6807 25.3819 94.6807 24.1856C94.6807 22.9894 93.7105 22.0191 92.5142 22.0191C91.3179 22.0191 90.3477 22.9894 90.3477 24.1856Z" fill="white"/>
<path d="M53.2657 25.6688C54.0846 24.8499 54.0846 23.5222 53.2657 22.7033C52.4468 21.8844 51.1191 21.8844 50.3002 22.7033C49.4812 23.5222 49.4812 24.8499 50.3002 25.6688C51.1191 26.4877 52.4468 26.4877 53.2657 25.6688Z" fill="white"/>
<path d="M73.8984 54.4378C73.8984 55.8497 75.0434 56.9947 76.4553 56.9947C77.8681 56.9947 79.0122 55.8497 79.0122 54.4378C79.0122 53.0251 77.8672 51.8809 76.4553 51.8809C75.0426 51.8809 73.8984 53.0259 73.8984 54.4378Z" fill="white"/>
<path d="M92.5137 76.6543C92.5137 78.0662 93.6587 79.2112 95.0705 79.2112C96.4824 79.2112 97.6274 78.0662 97.6274 76.6543C97.6274 75.2415 96.4824 74.0974 95.0705 74.0974C93.6587 74.0974 92.5137 75.2424 92.5137 76.6543Z" fill="white"/>
<path d="M103.999 51.881C103.999 52.7973 104.741 53.5406 105.659 53.5406C106.576 53.5406 107.318 52.7982 107.318 51.881C107.318 50.9646 106.575 50.2213 105.659 50.2213C104.742 50.2213 103.999 50.9646 103.999 51.881Z" fill="white"/>
<path d="M56.7998 68.5072C56.7998 69.454 57.5675 70.2217 58.5142 70.2217C59.461 70.2217 60.2287 69.454 60.2287 68.5072C60.2287 67.5605 59.461 66.7928 58.5142 66.7928C57.5675 66.7928 56.7998 67.5605 56.7998 68.5072Z" fill="white"/>
<path d="M26.1133 70.4352C27.5218 70.335 28.5826 69.112 28.4825 67.7034C28.3823 66.2948 27.1593 65.2341 25.7507 65.3342C24.3421 65.4343 23.2814 66.6574 23.3815 68.066C23.4816 69.4745 24.7047 70.5353 26.1133 70.4352Z" fill="white"/>
<path d="M35.0898 40.6823C35.0898 42.0942 36.2348 43.2392 37.6467 43.2392C39.0586 43.2392 40.2036 42.0942 40.2036 40.6823C40.2036 39.2704 39.0586 38.1254 37.6467 38.1254C36.2348 38.1254 35.0898 39.2695 35.0898 40.6823Z" fill="white"/>
<path d="M184.165 63.2787C184.165 64.6906 185.31 65.8356 186.722 65.8356C188.134 65.8356 189.279 64.6906 189.279 63.2787C189.279 61.8668 188.134 60.7218 186.722 60.7218C185.31 60.7218 184.165 61.8668 184.165 63.2787Z" fill="white"/>
<path d="M88.9898 37.5612C91.1311 36.4241 93.6262 37.443 93.8132 40.4302C94.0001 43.4174 91.8918 44.4703 89.8679 44.2729C87.8439 44.0756 85.853 38.8149 88.9898 37.5612Z" fill="#13375B"/>
<path d="M90.2822 45.4979C90.2822 46.6742 91.2359 47.6279 92.4122 47.6279C93.5885 47.6279 94.5422 46.6742 94.5422 45.4979C94.5422 44.3216 93.5885 43.3679 92.4122 43.3679C91.2359 43.3679 90.2822 44.3216 90.2822 45.4979Z" fill="#13375B"/>
<path d="M87.841 46.7211L80.5677 46.4707C80.5677 46.4707 74.8992 44.6989 74.7236 44.6502C74.548 44.6015 73.6795 42.3315 73.45 42.5263C73.2196 42.7202 73.9525 43.6626 73.6569 43.8321C73.3613 44.0017 70.594 43.0949 70.5992 43.3192C70.6079 43.7391 72.2719 43.9417 72.2398 44.139C72.2085 44.3364 70.5236 43.7617 70.3575 44.0721C70.1906 44.3824 72.0024 44.4616 72.052 44.6189C72.1015 44.7763 70.3367 44.7798 70.4671 45.1119C70.5384 45.2927 72.0363 45.0701 71.9955 45.2944C71.9546 45.5196 70.8331 45.8726 70.9339 46.0725C71.0348 46.2725 71.8364 45.6465 72.4441 45.73C73.0518 45.8143 73.5352 45.5509 74.4611 45.976C75.387 46.4012 78.4768 48.2956 80.5573 48.5112C82.6368 48.7268 87.2307 49.2145 87.2307 49.2145L87.841 46.7211Z" fill="#F29383"/>
<path d="M89.2263 46.3882C93.209 46.5742 89.7071 49.9092 89.7071 49.9092L83.8222 49.0737C83.6448 47.9 83.9474 46.4994 83.9622 46.1873C85.1828 46.1117 88.2448 46.3429 89.2263 46.3882Z" fill="#C24C32"/>
<path d="M92.3058 45.7509C92.3058 45.7509 94.0177 45.7205 94.9271 46.7142C95.8373 47.7079 93.4969 55.4551 93.3317 56.72C93.1665 57.985 94.175 61.3487 94.175 61.3487C94.175 61.3487 88.7718 62.438 87.2277 61.4139C87.2277 61.4139 87.0625 52.3166 87.2277 51.4133C87.3929 50.5091 88.7718 46.8342 89.103 46.4734C89.4342 46.1126 92.3058 45.7509 92.3058 45.7509Z" fill="#F47458"/>
<path d="M91.5383 42.6706C91.5383 42.6706 91.5505 42.7384 91.5714 42.854C91.6739 43.4087 92.0686 45.2466 92.3356 45.7526C92.6581 46.3629 91.2314 48.3112 89.8595 48.0739C89.4509 48.0035 90.2047 46.2838 90.1682 46.1021C90.0986 45.7535 90.0047 45.2779 89.9082 44.7902C89.8543 44.5154 89.7987 44.2364 89.7474 43.9738C89.6004 43.2288 89.4805 42.6193 89.4805 42.6193L91.5383 42.6706Z" fill="#F7A491"/>
<path d="M91.5715 42.854C91.5497 42.7384 91.5384 42.6706 91.5384 42.6706L89.4814 42.6193C89.4814 42.6193 89.6014 43.2288 89.7483 43.9738C89.7996 44.2346 89.8544 44.512 89.9083 44.785C90.2256 44.738 90.5577 44.5833 90.8899 44.2911C91.2524 43.973 91.4906 43.5904 91.634 43.1818C91.608 43.0523 91.5871 42.9401 91.5715 42.854Z" fill="#F47458"/>
<path d="M90.1552 37.9846C90.1552 37.9846 91.1246 37.8725 91.7323 38.6601C92.34 39.4478 92.9946 41.8838 91.4854 43.2088C89.9761 44.5329 88.4842 43.034 88.2634 41.4448C88.0426 39.8547 87.9565 37.9272 90.1552 37.9846Z" fill="#F7A491"/>
<path d="M87.8169 41.4214C87.9969 41.7726 88.2994 41.9665 88.4924 41.8552C88.6854 41.7439 88.6959 41.3692 88.5159 41.018C88.3359 40.6667 88.0334 40.472 87.8404 40.5833C87.6474 40.6954 87.6369 41.0701 87.8169 41.4214Z" fill="#F7A491"/>
<path d="M90.0469 37.7247C90.0469 37.7247 91.3423 40.0416 92.269 40.1485C93.1958 40.2555 93.3175 41.4865 93.3175 41.4865C93.3175 41.4865 92.9863 38.6497 92.0691 38.1028C91.1519 37.556 90.0469 37.7247 90.0469 37.7247Z" fill="#13375B"/>
<path d="M92.0272 40.7302C91.9516 41.1414 92.1037 41.5187 92.3654 41.5726C92.628 41.6265 92.9018 41.337 92.9766 40.9258C93.0522 40.5146 92.9001 40.1373 92.6384 40.0833C92.3758 40.0294 92.102 40.319 92.0272 40.7302Z" fill="#F7A491"/>
<path d="M90.008 53.6032C90.008 53.6032 94.1898 51.461 95.1113 50.3187C96.0329 49.1771 95.8312 46.9898 94.6427 46.4646C93.4551 45.9395 88.623 50.7786 88.623 50.7786L90.008 53.6032Z" fill="#C24C32"/>
<path d="M108.775 23.5666C107.62 22.9529 106.274 23.5023 106.173 25.1142C106.072 26.726 107.21 27.2937 108.302 27.1877C109.393 27.0807 110.467 24.243 108.775 23.5666Z" fill="#13375B"/>
<path d="M106.87 26.2026C106.87 26.506 106.624 26.7521 106.321 26.7521C106.018 26.7521 105.771 26.506 105.771 26.2026C105.771 25.8992 106.018 25.6532 106.321 25.6532C106.624 25.6532 106.87 25.8992 106.87 26.2026Z" fill="#13375B"/>
<path d="M107.417 26.7225C107.417 27.0259 107.171 27.272 106.869 27.272C106.565 27.272 106.319 27.0259 106.319 26.7225C106.319 26.4191 106.565 26.1731 106.869 26.1731C107.171 26.1731 107.417 26.4191 107.417 26.7225Z" fill="#13375B"/>
<path d="M108.14 27.1163C108.14 27.4198 107.894 27.6658 107.59 27.6658C107.287 27.6658 107.041 27.4198 107.041 27.1163C107.041 26.8129 107.287 26.5669 107.59 26.5669C107.895 26.5677 108.14 26.8138 108.14 27.1163Z" fill="#13375B"/>
<path d="M106.63 25.2976C106.63 25.601 106.384 25.8471 106.081 25.8471C105.777 25.8471 105.531 25.601 105.531 25.2976C105.531 24.9942 105.777 24.7482 106.081 24.7482C106.384 24.7482 106.63 24.9942 106.63 25.2976Z" fill="#13375B"/>
<path d="M106.817 24.3543C106.817 24.6577 106.571 24.9029 106.267 24.9029C105.964 24.9029 105.718 24.6569 105.718 24.3543C105.718 24.0509 105.964 23.8049 106.267 23.8049C106.571 23.8057 106.817 24.0518 106.817 24.3543Z" fill="#13375B"/>
<path d="M107.454 23.7545C107.454 24.0579 107.208 24.3039 106.905 24.3039C106.602 24.3039 106.355 24.0579 106.355 23.7545C106.355 23.451 106.602 23.205 106.905 23.205C107.208 23.205 107.454 23.451 107.454 23.7545Z" fill="#13375B"/>
<path d="M108.294 23.5049C108.294 23.8083 108.048 24.0544 107.745 24.0544C107.441 24.0544 107.195 23.8083 107.195 23.5049C107.195 23.2015 107.441 22.9563 107.745 22.9563C108.048 22.9563 108.294 23.2015 108.294 23.5049Z" fill="#13375B"/>
<path d="M109.165 23.5736C109.165 23.877 108.919 24.123 108.616 24.123C108.312 24.123 108.066 23.877 108.066 23.5736C108.066 23.2702 108.312 23.025 108.616 23.025C108.92 23.0241 109.165 23.2702 109.165 23.5736Z" fill="#13375B"/>
<path d="M109.82 24.2595C109.82 24.5629 109.574 24.809 109.27 24.809C108.967 24.809 108.721 24.5629 108.721 24.2595C108.721 23.9561 108.967 23.7101 109.27 23.7101C109.574 23.7101 109.82 23.9561 109.82 24.2595Z" fill="#13375B"/>
<path d="M109.803 26.0088C109.803 26.3122 109.557 26.5582 109.254 26.5582C108.95 26.5582 108.704 26.3122 108.704 26.0088C108.704 25.7054 108.95 25.4593 109.254 25.4593C109.557 25.4593 109.803 25.7054 109.803 26.0088Z" fill="#13375B"/>
<path d="M109.251 26.8321C109.251 27.1355 109.005 27.3816 108.702 27.3816C108.398 27.3816 108.152 27.1355 108.152 26.8321C108.152 26.5287 108.398 26.2826 108.702 26.2826C109.005 26.2826 109.251 26.5287 109.251 26.8321Z" fill="#13375B"/>
<path d="M110.025 25.0828C110.025 25.3863 109.779 25.6323 109.475 25.6323C109.172 25.6323 108.926 25.3863 108.926 25.0828C108.926 24.7794 109.172 24.5334 109.475 24.5334C109.779 24.5334 110.025 24.7794 110.025 25.0828Z" fill="#13375B"/>
<path d="M108.497 27.0372C108.497 27.3406 108.251 27.5867 107.948 27.5867C107.644 27.5867 107.398 27.3406 107.398 27.0372C107.398 26.7338 107.644 26.4878 107.948 26.4878C108.251 26.4886 108.497 26.7347 108.497 27.0372Z" fill="#13375B"/>
<path d="M109.397 28.5083L113.322 28.3735C113.322 28.3735 116.38 27.4181 116.475 27.3911C116.57 27.365 117.039 26.1401 117.163 26.2453C117.287 26.3496 116.892 26.8582 117.052 26.9503C117.212 27.0416 118.704 26.5521 118.702 26.6739C118.696 26.9008 117.799 27.0094 117.817 27.1164C117.833 27.2224 118.743 26.9129 118.832 27.0799C118.922 27.2468 117.944 27.2903 117.918 27.3746C117.891 27.4598 118.844 27.4615 118.773 27.6406C118.735 27.738 117.926 27.618 117.948 27.7389C117.97 27.8606 118.576 28.051 118.521 28.1588C118.466 28.2666 118.034 27.9284 117.706 27.9745C117.378 28.0197 117.118 27.878 116.618 28.1075C116.118 28.337 114.451 29.3594 113.329 29.475C112.206 29.5915 109.728 29.855 109.728 29.855L109.397 28.5083Z" fill="#F29383"/>
<path d="M108.649 28.3292C106.5 28.4292 108.389 30.2288 108.389 30.2288L111.564 29.7785C111.659 29.1455 111.496 28.3892 111.488 28.2205C110.83 28.1796 109.177 28.3048 108.649 28.3292Z" fill="#C24C32"/>
<path d="M106.989 27.9849C106.989 27.9849 106.066 27.9684 105.575 28.5048C105.084 29.0412 106.347 33.2213 106.436 33.9037C106.525 34.5862 105.981 36.4015 105.981 36.4015C105.981 36.4015 108.896 36.9892 109.729 36.4372C109.729 36.4372 109.818 31.5286 109.729 31.0408C109.639 30.5531 108.896 28.57 108.717 28.3753C108.539 28.1805 106.989 27.9849 106.989 27.9849Z" fill="#F47458"/>
<path d="M107.4 26.3235C107.4 26.3235 107.393 26.36 107.381 26.4226C107.326 26.7216 107.113 27.7136 106.969 27.9866C106.795 28.3161 107.565 29.3672 108.305 29.2385C108.526 29.2003 108.119 28.2726 108.139 28.1744C108.176 27.9866 108.226 27.7301 108.279 27.4667C108.308 27.318 108.338 27.1676 108.365 27.0268C108.445 26.6251 108.509 26.2965 108.509 26.2965L107.4 26.3235Z" fill="#BF7154"/>
<path d="M107.383 26.4226C107.394 26.36 107.401 26.3235 107.401 26.3235L108.51 26.2957C108.51 26.2957 108.446 26.6243 108.367 27.026C108.339 27.1668 108.309 27.3163 108.281 27.4641C108.109 27.4389 107.93 27.3555 107.751 27.1981C107.556 27.0268 107.427 26.8199 107.35 26.5999C107.363 26.5295 107.374 26.4687 107.383 26.4226Z" fill="#A85D42"/>
<path d="M108.147 23.7953C108.147 23.7953 107.623 23.7344 107.295 24.1596C106.968 24.5847 106.614 25.8992 107.428 26.6139C108.243 27.3285 109.048 26.52 109.167 25.6619C109.287 24.8038 109.333 23.764 108.147 23.7953Z" fill="#BF7154"/>
<path d="M109.41 25.6488C109.313 25.8383 109.149 25.9435 109.046 25.8827C108.941 25.8227 108.936 25.6201 109.034 25.4315C109.131 25.2419 109.294 25.1368 109.398 25.1976C109.502 25.2576 109.507 25.4593 109.41 25.6488Z" fill="#BF7154"/>
<path d="M108.207 23.6545C108.207 23.6545 107.508 24.9047 107.008 24.962C106.509 25.0194 106.443 25.6836 106.443 25.6836C106.443 25.6836 106.622 24.1535 107.117 23.8579C107.612 23.5632 108.207 23.6545 108.207 23.6545Z" fill="#13375B"/>
<path d="M107.139 25.2759C107.18 25.4976 107.098 25.701 106.956 25.7306C106.815 25.7593 106.667 25.6036 106.627 25.3811C106.586 25.1594 106.668 24.9559 106.809 24.9264C106.951 24.8977 107.099 25.0542 107.139 25.2759Z" fill="#BF7154"/>
<path d="M108.228 32.2223C108.228 32.2223 105.972 31.066 105.474 30.4505C104.977 29.8341 105.086 28.6543 105.727 28.3709C106.368 28.0875 108.975 30.6983 108.975 30.6983L108.228 32.2223Z" fill="#C24C32"/>
<path d="M154.952 39.8825C153.151 38.9305 150.449 39.4278 149.747 42.9784C149.329 45.0936 148.288 47.3158 148.288 47.3158C151.014 48.5329 153.947 48.5842 156.299 48.1739C156.299 48.1747 158.337 41.2352 154.952 39.8825Z" fill="#F47458"/>
<path d="M156.191 49.7683L164.041 49.4979C164.041 49.4979 170.159 47.5861 170.348 47.5331C170.537 47.4801 171.474 45.031 171.723 45.2405C171.972 45.45 171.181 46.4664 171.501 46.6498C171.82 46.8332 174.805 45.8543 174.801 46.096C174.791 46.5498 172.996 46.768 173.03 46.981C173.064 47.194 174.882 46.5742 175.062 46.9089C175.242 47.2436 173.286 47.3297 173.233 47.4992C173.18 47.6687 175.084 47.6722 174.943 48.0313C174.867 48.226 173.25 47.9861 173.294 48.2286C173.338 48.4712 174.549 48.8528 174.44 49.0685C174.331 49.2841 173.465 48.6085 172.81 48.699C172.154 48.7894 171.633 48.506 170.633 48.965C169.633 49.424 166.299 51.468 164.054 51.7001C161.809 51.9322 156.852 52.46 156.852 52.46L156.191 49.7683Z" fill="#F29383"/>
<path d="M154.696 49.4093C150.398 49.6093 154.177 53.2094 154.177 53.2094L160.529 52.3079C160.72 51.0412 160.394 49.5302 160.378 49.1928C159.06 49.1111 155.755 49.3598 154.696 49.4093Z" fill="#C5DBFC"/>
<path d="M151.374 48.7216C151.374 48.7216 149.527 48.6886 148.545 49.7614C147.564 50.8342 150.088 59.1943 150.267 60.5601C150.447 61.9259 149.357 65.5556 149.357 65.5556C149.357 65.5556 155.188 66.7319 156.855 65.6261C156.855 65.6261 157.033 55.808 156.855 54.8334C156.677 53.858 155.188 49.8918 154.831 49.5023C154.474 49.1111 151.374 48.7216 151.374 48.7216Z" fill="#9BC1F9"/>
<path d="M152.199 45.397C152.199 45.397 152.186 45.4701 152.164 45.5952C152.053 46.1934 151.627 48.1773 151.339 48.7233C150.991 49.3823 152.53 51.4845 154.011 51.228C154.452 51.1515 153.638 49.2962 153.677 49.0998C153.752 48.7233 153.854 48.2104 153.957 47.6844C154.016 47.3879 154.076 47.0863 154.131 46.8037C154.289 45.9995 154.419 45.3423 154.419 45.3423L152.199 45.397Z" fill="#F7A491"/>
<path d="M152.164 45.5953C152.188 45.4709 152.2 45.3971 152.2 45.3971L154.42 45.3414C154.42 45.3414 154.29 45.9987 154.132 46.8029C154.076 47.0845 154.017 47.3836 153.959 47.6783C153.616 47.6279 153.258 47.461 152.899 47.1454C152.508 46.802 152.251 46.389 152.097 45.9482C152.125 45.8091 152.148 45.6874 152.164 45.5953Z" fill="#F5866E"/>
<path d="M153.695 40.3406C153.695 40.3406 152.649 40.2198 151.993 41.0692C151.337 41.9195 150.631 44.5485 152.259 45.9778C153.888 47.4071 155.497 45.7891 155.736 44.0738C155.976 42.3585 156.069 40.278 153.695 40.3406Z" fill="#F7A491"/>
<path d="M156.217 44.0486C156.022 44.4277 155.696 44.6372 155.488 44.5172C155.28 44.3973 155.269 43.993 155.463 43.6139C155.657 43.2349 155.983 43.0253 156.192 43.1453C156.401 43.2653 156.412 43.6696 156.217 44.0486Z" fill="#F7A491"/>
<path d="M153.812 40.0589C153.812 40.0589 152.414 42.5593 151.414 42.6741C150.414 42.7897 150.283 44.1181 150.283 44.1181C150.283 44.1181 150.641 41.057 151.631 40.4667C152.62 39.8772 153.812 40.0589 153.812 40.0589Z" fill="#F47458"/>
<path d="M151.674 43.3027C151.756 43.7469 151.591 44.1538 151.309 44.2121C151.025 44.2703 150.731 43.9573 150.649 43.5139C150.567 43.0697 150.732 42.6628 151.014 42.6046C151.297 42.5463 151.593 42.8593 151.674 43.3027Z" fill="#F7A491"/>
<path d="M153.852 57.1955C153.852 57.1955 149.339 54.883 148.344 53.651C147.35 52.4191 147.568 50.0587 148.849 49.4919C150.132 48.925 155.346 54.1475 155.346 54.1475L153.852 57.1955Z" fill="#C5DBFC"/>
<path d="M173.287 65.9581C174.889 65.107 176.757 65.8694 176.896 68.1046C177.036 70.3399 175.458 71.1275 173.943 70.9797C172.43 70.8328 170.941 66.8971 173.287 65.9581Z" fill="#F7CC7F"/>
<path d="M174.255 71.8978C174.255 72.7776 174.969 73.4914 175.848 73.4914C176.728 73.4914 177.442 72.7776 177.442 71.8978C177.442 71.0171 176.728 70.3042 175.848 70.3042C174.969 70.3042 174.255 71.0171 174.255 71.8978Z" fill="#F7CC7F"/>
<path d="M172.427 72.8124L166.984 72.6255C166.984 72.6255 162.742 71.2997 162.611 71.2631C162.48 71.2266 161.829 69.5287 161.657 69.6739C161.485 69.8191 162.033 70.5242 161.812 70.6511C161.591 70.778 159.52 70.099 159.524 70.2677C159.531 70.5824 160.775 70.7337 160.751 70.8815C160.728 71.0293 159.467 70.5989 159.343 70.8311C159.219 71.0632 160.574 71.1223 160.611 71.2405C160.647 71.3579 159.327 71.3605 159.425 71.6092C159.478 71.7439 160.599 71.5779 160.569 71.7457C160.538 71.9135 159.699 72.1786 159.774 72.3281C159.85 72.4777 160.45 72.0091 160.904 72.0717C161.359 72.1343 161.721 71.9378 162.414 72.256C163.107 72.5742 165.419 73.9913 166.975 74.153C168.532 74.3138 171.969 74.6799 171.969 74.6799L172.427 72.8124Z" fill="#F29383"/>
<path d="M173.461 72.5638C176.441 72.7029 173.821 75.1989 173.821 75.1989L169.417 74.5738C169.285 73.6958 169.511 72.6473 169.522 72.4143C170.435 72.3569 172.727 72.5299 173.461 72.5638Z" fill="#96D9C9"/>
<path d="M175.768 72.0865C175.768 72.0865 177.049 72.0639 177.73 72.8072C178.41 73.5514 176.659 79.3476 176.536 80.2944C176.412 81.2412 177.167 83.7581 177.167 83.7581C177.167 83.7581 173.124 84.5736 171.969 83.8068C171.969 83.8068 171.845 76.9994 171.969 76.323C172.092 75.6466 173.124 72.8968 173.372 72.6264C173.619 72.3569 175.768 72.0865 175.768 72.0865Z" fill="#50BFA5"/>
<path d="M175.194 69.7817C175.194 69.7817 175.203 69.833 175.219 69.9191C175.296 70.3338 175.592 71.7091 175.791 72.0873C176.033 72.5446 174.966 74.0017 173.939 73.8244C173.633 73.7713 174.197 72.4846 174.17 72.349C174.118 72.0882 174.047 71.7326 173.976 71.3675C173.935 71.1614 173.894 70.9528 173.855 70.7572C173.746 70.1999 173.656 69.7443 173.656 69.7443L175.194 69.7817Z" fill="#F7A491"/>
<path d="M175.219 69.9191C175.204 69.833 175.194 69.7817 175.194 69.7817L173.655 69.7435C173.655 69.7435 173.745 70.199 173.854 70.7563C173.893 70.951 173.933 71.1588 173.974 71.3631C174.212 71.3284 174.46 71.2127 174.709 70.9936C174.98 70.7554 175.158 70.4694 175.265 70.1642C175.247 70.0677 175.231 69.9834 175.219 69.9191Z" fill="#F47458"/>
<path d="M174.159 66.2754C174.159 66.2754 174.885 66.1911 175.339 66.7805C175.794 67.37 176.284 69.1931 175.154 70.1842C174.025 71.1753 172.908 70.0538 172.743 68.8636C172.578 67.6751 172.514 66.2328 174.159 66.2754Z" fill="#F7A491"/>
<path d="M172.407 68.8471C172.542 69.1097 172.768 69.2549 172.912 69.1723C173.057 69.0888 173.064 68.8089 172.93 68.5463C172.795 68.2838 172.568 68.1377 172.424 68.2212C172.279 68.3038 172.272 68.5837 172.407 68.8471Z" fill="#F7A491"/>
<path d="M174.075 66.0807C174.075 66.0807 175.045 67.8143 175.737 67.8943C176.43 67.9743 176.522 68.8958 176.522 68.8958C176.522 68.8958 176.274 66.7736 175.587 66.3642C174.901 65.9547 174.075 66.0807 174.075 66.0807Z" fill="#F7CC7F"/>
<path d="M175.558 68.3298C175.502 68.6376 175.616 68.9202 175.811 68.9602C176.008 69.0001 176.212 68.7837 176.269 68.4759C176.325 68.1681 176.211 67.8856 176.016 67.8456C175.82 67.8056 175.615 68.0221 175.558 68.3298Z" fill="#F7A491"/>
<path d="M174.046 77.9627C174.046 77.9627 177.175 76.3595 177.864 75.5049C178.554 74.6503 178.403 73.0141 177.514 72.6212C176.626 72.2282 173.01 75.8492 173.01 75.8492L174.046 77.9627Z" fill="#96D9C9"/>
<path d="M110.398 48.7424C110.398 48.7424 112.123 48.2817 112.144 48.4208C112.589 51.4654 112.781 52.5652 112.844 52.5956C113.057 52.6982 115.779 50.0752 116.272 49.8892C116.508 49.8005 116.767 49.8074 117.015 49.8083C117.607 49.81 117.724 49.8092 117.724 49.8092C117.74 49.81 117.746 49.81 117.746 49.81L117.757 50.3665C117.107 50.9837 116.467 62.9005 116.338 62.8979C116.195 62.8953 113.49 62.8805 113.619 62.6544C113.619 62.6544 114.272 58.9847 114.787 56.5652C114.96 55.7532 115.442 54.0553 115.442 54.0553C114.781 54.4091 112.197 55.7654 111.778 55.6063C110.475 55.1099 110.398 48.7424 110.398 48.7424Z" fill="#F47458"/>
<path d="M115.511 55.9897C115.807 54.53 116.566 52.1348 116.789 51.5914C117.299 50.3438 117.729 49.8153 117.729 49.8153L119.748 49.8752C119.748 49.8752 119.795 49.8883 119.809 49.89C119.974 49.9161 119.98 55.7984 119.89 57.9971C119.801 60.1967 119.313 63.0587 119.313 63.0587L118.736 63.0039C118.727 63.3004 118.72 63.496 118.72 63.496C115.798 64.0116 114.166 62.571 114.166 62.571C114.166 62.571 115.127 57.8823 115.511 55.9897Z" fill="#466EB6"/>
<path d="M119.746 49.8743C119.746 49.8743 121.743 49.7292 122.253 49.4814C122.563 49.3318 125.078 47.194 125.078 47.194L124.904 41.6508L126.708 41.4656C126.708 41.4656 127.806 47.5687 127.499 48.2477C127.182 48.9493 123.496 51.8992 122.776 53.1563C122.361 53.8805 122.755 63.7133 122.62 63.8037C121.66 64.3358 117.626 64.807 117.688 64.4975C119.42 55.9566 119.746 49.8743 119.746 49.8743Z" fill="#F47458"/>
<path d="M119.641 48.0956L119.746 49.8753C119.746 49.8753 118.499 52.1592 117.821 51.8636C117.251 51.6149 117.706 49.8909 117.706 49.8909C117.706 49.8909 117.793 49.4962 117.917 49.0415C118.003 48.7242 118.072 48.3808 118.06 48.1304C118.03 47.5209 119.641 48.0956 119.641 48.0956Z" fill="#F7A491"/>
<path d="M118.058 48.1295C118.028 47.5209 119.64 48.0947 119.64 48.0947L119.651 48.2686C119.599 48.3512 119.541 48.4216 119.478 48.4755C119.058 48.8354 118.441 49.0084 117.935 48.9641C118.011 48.6694 118.069 48.3599 118.058 48.1295Z" fill="#F47458"/>
<path d="M117.975 44.0738C117.975 44.0738 117.336 45.0945 117.308 45.9395C117.281 46.7854 117.474 47.3566 117.474 47.3566L119.543 44.7484L117.975 44.0738Z" fill="#184655"/>
<path d="M117.083 45.7734C117.06 46.0699 117.182 46.3203 117.354 46.3333C117.526 46.3463 117.684 46.1168 117.706 45.8204C117.729 45.5239 117.607 45.2735 117.435 45.2605C117.264 45.2474 117.105 45.4769 117.083 45.7734Z" fill="#F48C7F"/>
<path d="M120.244 45.1397C120.293 45.1284 120.353 47.5853 119.655 48.1826C118.958 48.7798 117.72 48.8624 117.343 48.2895C116.926 47.6557 117.239 45.0562 118.284 44.479C119.329 43.9008 120.244 45.1397 120.244 45.1397Z" fill="#F7A491"/>
<path d="M120.387 43.6113C120.944 44.0738 121.216 44.4154 121.606 45.2527C122.086 46.2829 121.217 47.3862 120.475 47.8348C119.733 48.2834 119.685 48.8041 119.685 48.8041L119.646 48.4851C119.627 48.3686 119.629 48.2738 119.647 48.1903C119.668 48.093 119.711 48.0121 119.747 47.9278C119.808 47.7896 120.001 47.3149 120.079 47.1888C120.282 46.8567 120.322 46.7845 120.209 46.4776C120.122 46.2412 120.202 45.7117 120.066 45.3214L119.047 45.1292C119.047 45.1292 118.409 44.9936 118.08 44.6328C117.134 43.5965 118.92 42.3663 120.387 43.6113Z" fill="#184655"/>
<path d="M119.973 46.7533C119.855 47.0262 119.888 47.3027 120.047 47.3714C120.205 47.4401 120.429 47.274 120.546 47.001C120.664 46.728 120.631 46.4516 120.473 46.3829C120.314 46.3142 120.09 46.4803 119.973 46.7533Z" fill="#F7A491"/>
<path d="M12.8516 56.4244C12.8516 56.4244 15.4519 55.7289 15.4832 55.9393C16.1535 60.5288 16.4448 62.1876 16.5387 62.2328C16.8603 62.3875 20.9639 58.4327 21.7072 58.1527C22.0628 58.0188 22.4531 58.0293 22.8278 58.0301C23.7207 58.0327 23.8963 58.0319 23.8963 58.0319C23.9215 58.0327 23.9294 58.0336 23.9294 58.0336L23.9467 58.8726C22.9661 59.8028 22.0019 77.7697 21.808 77.7653C21.5916 77.761 17.5141 77.7392 17.708 77.3993C17.708 77.3993 18.6939 71.8665 19.4694 68.2185C19.7293 66.9944 20.457 64.4341 20.457 64.4341C19.4598 64.967 15.5658 67.0118 14.9338 66.7719C12.9663 66.0242 12.8516 56.4244 12.8516 56.4244Z" fill="#F7CC7F"/>
<path d="M20.5561 67.35C21.0029 65.1487 22.1479 61.5373 22.4826 60.7192C23.252 58.8387 23.8997 58.0415 23.8997 58.0415L26.9452 58.1319C26.9452 58.1319 27.0156 58.151 27.0374 58.1545C27.286 58.1936 27.2939 67.0623 27.16 70.3773C27.0261 73.6931 26.2897 78.0079 26.2897 78.0079L25.4212 77.9253C25.4073 78.3722 25.3968 78.6669 25.3968 78.6669C20.9908 79.4441 18.5312 77.2715 18.5312 77.2715C18.5312 77.2715 19.9762 70.2034 20.5561 67.35Z" fill="#F7CC7F"/>
<path d="M26.9446 58.131C26.9446 58.131 29.9561 57.911 30.7247 57.5389C31.1907 57.3129 34.983 54.0901 34.983 54.0901L34.7204 45.7335L37.4399 45.4544C37.4399 45.4544 39.0952 54.6552 38.6318 55.6793C38.1536 56.7365 32.5965 61.1843 31.5106 63.0796C30.8855 64.1715 31.4784 78.9947 31.2759 79.132C29.8283 79.9345 23.7452 80.6439 23.84 80.1779C26.4534 67.3005 26.9446 58.131 26.9446 58.131Z" fill="#F7CC7F"/>
<path d="M26.7869 55.4481L26.9433 58.131C26.9433 58.131 25.0637 61.5747 24.0404 61.1287C23.1824 60.754 23.8674 58.1545 23.8674 58.1545C23.8674 58.1545 23.9987 57.5589 24.1848 56.8739C24.3143 56.3948 24.4195 55.8775 24.4004 55.5002C24.3552 54.583 26.7869 55.4481 26.7869 55.4481Z" fill="#BF7154"/>
<path d="M24.4019 55.5002C24.3567 54.583 26.7875 55.4481 26.7875 55.4481L26.8031 55.7106C26.7249 55.8349 26.6388 55.941 26.5423 56.0227C25.9094 56.5652 24.9791 56.826 24.2158 56.7591C24.3323 56.314 24.4193 55.8471 24.4019 55.5002Z" fill="#A3573C"/>
<path d="M24.2728 49.3858C24.2728 49.3858 23.3095 50.9246 23.2678 52.1992C23.226 53.4737 23.5181 54.3353 23.5181 54.3353L26.6366 50.403L24.2728 49.3858Z" fill="#184655"/>
<path d="M22.9298 51.9471C22.8959 52.3939 23.0794 52.7721 23.3393 52.7912C23.5992 52.8112 23.8366 52.4643 23.8705 52.0175C23.9044 51.5706 23.721 51.1924 23.461 51.1733C23.2011 51.1542 22.9637 51.5011 22.9298 51.9471Z" fill="#A3573C"/>
<path d="M27.6993 50.9916C27.7723 50.9742 27.8627 54.6787 26.8116 55.5785C25.7606 56.4783 23.894 56.6044 23.3254 55.7402C22.6959 54.7847 23.168 50.8664 24.7434 49.9952C26.3187 49.125 27.6993 50.9916 27.6993 50.9916Z" fill="#BF7154"/>
<path d="M27.9103 48.6877C28.7493 49.3849 29.1596 49.8996 29.7474 51.1629C30.4707 52.7156 29.1605 54.3796 28.0425 55.056C26.9253 55.7324 26.8514 56.5174 26.8514 56.5174L26.7923 56.0367C26.7653 55.861 26.7679 55.7176 26.7949 55.5933C26.8271 55.4463 26.8905 55.3246 26.9462 55.1977C27.0375 54.989 27.3287 54.2735 27.4452 54.0831C27.7512 53.5824 27.8112 53.4746 27.6417 53.0103C27.5113 52.653 27.6304 51.8558 27.4278 51.2672L25.8916 50.9777C25.8916 50.9777 24.9301 50.7734 24.4328 50.2291C23.0044 48.666 25.6977 46.8115 27.9103 48.6877Z" fill="#184655"/>
<path d="M27.2869 53.4241C27.1096 53.8353 27.1591 54.2527 27.3991 54.3561C27.6382 54.4596 27.9755 54.2092 28.1537 53.798C28.3311 53.3867 28.2815 52.9694 28.0416 52.866C27.8016 52.7634 27.4643 53.0129 27.2869 53.4241Z" fill="#BF7154"/>
<path d="M78.9649 26.0644C78.9649 26.0644 76.8184 25.4906 76.7932 25.6636C76.2394 29.4524 75.9994 30.8208 75.9221 30.8582C75.6569 30.986 72.2689 27.7215 71.6559 27.4902C71.363 27.3798 71.0404 27.3885 70.7309 27.3893C69.9945 27.392 69.8485 27.3911 69.8485 27.3911C69.8276 27.392 69.8215 27.392 69.8215 27.392L69.8076 28.084C70.617 28.8517 71.4125 43.6817 71.5725 43.6783C71.7516 43.6748 75.117 43.6565 74.957 43.3757C74.957 43.3757 74.1433 38.8088 73.5034 35.7981C73.2887 34.787 72.6879 32.6744 72.6879 32.6744C73.5104 33.1143 76.7254 34.8027 77.247 34.6044C78.8702 33.988 78.9649 26.0644 78.9649 26.0644Z" fill="#13375B"/>
<path d="M72.6057 35.0826C72.2362 33.2656 71.292 30.2853 71.0156 29.6089C70.3809 28.057 69.8462 27.3989 69.8462 27.3989L67.3328 27.4728C67.3328 27.4728 67.2746 27.4893 67.2572 27.4919C67.052 27.5241 67.0459 34.8444 67.1563 37.5812C67.2667 40.3181 67.8744 43.88 67.8744 43.88L68.5917 43.8121C68.6039 44.1816 68.6117 44.4242 68.6117 44.4242C72.2484 45.0658 74.2784 43.2723 74.2784 43.2723C74.2784 43.2723 73.0838 37.4378 72.6057 35.0826Z" fill="#466EB6"/>
<path d="M67.3312 27.4728C67.3312 27.4728 64.8456 27.292 64.2109 26.9842C63.8267 26.7982 60.696 24.137 60.696 24.137L60.9124 17.2392L58.6677 17.0088C58.6677 17.0088 57.3019 24.6038 57.6835 25.4489C58.0782 26.3217 62.6651 29.9932 63.5615 31.5572C64.077 32.4588 63.5876 44.6946 63.7554 44.8076C64.9499 45.4701 69.9715 46.0561 69.8933 45.6709C67.7372 35.0418 67.3312 27.4728 67.3312 27.4728Z" fill="#13375B"/>
<path d="M67.4606 25.2585L67.3311 27.4728C67.3311 27.4728 68.882 30.3149 69.7271 29.9471C70.4357 29.6385 69.8705 27.4919 69.8705 27.4919C69.8705 27.4919 69.7619 27.0007 69.6089 26.4348C69.5019 26.0392 69.415 25.6123 69.4306 25.3011C69.468 24.5447 67.4606 25.2585 67.4606 25.2585Z" fill="#F7A491"/>
<path d="M69.4266 25.3019C69.4639 24.5447 67.4574 25.2593 67.4574 25.2593L67.4443 25.4758C67.5087 25.5784 67.58 25.6662 67.6599 25.734C68.1825 26.1818 68.9501 26.3974 69.5804 26.3417C69.4848 25.9731 69.4126 25.588 69.4266 25.3019Z" fill="#F47458"/>
<path d="M69.532 20.2551C69.532 20.2551 70.3275 21.5253 70.3614 22.5773C70.3953 23.6292 70.1545 24.3404 70.1545 24.3404L67.5811 21.095L69.532 20.2551Z" fill="#F47458"/>
<path d="M70.642 22.3694C70.6698 22.7381 70.5185 23.0502 70.3038 23.0667C70.089 23.0832 69.8934 22.7972 69.8656 22.4286C69.8378 22.0599 69.9891 21.7478 70.2038 21.7313C70.4177 21.7139 70.6141 21.9999 70.642 22.3694Z" fill="#F48C7F"/>
<path d="M66.7082 21.58C66.6473 21.5652 66.5734 24.6229 67.4411 25.3662C68.3087 26.1087 69.8493 26.213 70.3188 25.5001C70.8378 24.7116 70.4483 21.4774 69.1486 20.7584C67.8479 20.0395 66.7082 21.58 66.7082 21.58Z" fill="#F7A491"/>
<path d="M66.5335 19.6787C65.8415 20.2542 65.5024 20.6785 65.0173 21.7217C64.42 23.0041 65.5016 24.3769 66.424 24.935C67.3464 25.4932 67.4073 26.1409 67.4073 26.1409L67.456 25.7436C67.4786 25.5984 67.476 25.4801 67.4534 25.3775C67.4273 25.2567 67.3742 25.1558 67.329 25.0506C67.2534 24.8785 67.0134 24.2873 66.9169 24.1308C66.6639 23.7179 66.6144 23.6283 66.7544 23.2458C66.8622 22.9511 66.7639 22.2929 66.9308 21.8069L68.1984 21.5679C68.1984 21.5679 68.9922 21.3992 69.4025 20.9497C70.5823 19.6604 68.3593 18.1294 66.5335 19.6787Z" fill="#F47458"/>
<path d="M67.0473 23.5883C67.1933 23.9282 67.1525 24.2725 66.9551 24.3577C66.7578 24.4429 66.4787 24.2369 66.3326 23.8969C66.1866 23.557 66.2274 23.2127 66.4248 23.1275C66.6221 23.0423 66.9012 23.2484 67.0473 23.5883Z" fill="#F7A491"/>
<path d="M91.3613 65.5973C91.3613 65.5973 92.6211 65.2609 92.6367 65.3617C92.9619 67.5856 93.1027 68.389 93.1479 68.4116C93.3035 68.4863 95.2918 66.5702 95.6518 66.4346C95.8239 66.3694 96.0134 66.3746 96.1943 66.3755C96.6264 66.3772 96.7124 66.3763 96.7124 66.3763C96.7246 66.3772 96.7281 66.3772 96.7281 66.3772L96.7368 66.7841C96.2612 67.2344 95.7944 75.9396 95.7005 75.9379C95.5953 75.9362 93.62 75.9249 93.7139 75.7605C93.7139 75.7605 94.1912 73.0793 94.5668 71.3127C94.6928 70.7198 95.0449 69.4792 95.0449 69.4792C94.5616 69.7374 92.675 70.7285 92.369 70.612C91.417 70.2486 91.3613 65.5973 91.3613 65.5973Z" fill="#F7CC7F"/>
<path d="M95.0929 70.8911C95.3094 69.8243 95.864 68.0751 96.0266 67.6778C96.3996 66.7667 96.7134 66.3807 96.7134 66.3807L98.1888 66.4241C98.1888 66.4241 98.2227 66.4337 98.2331 66.4354C98.354 66.4546 98.3574 70.7511 98.2922 72.3577C98.227 73.9644 97.8706 76.0552 97.8706 76.0552L97.4498 76.0153C97.4428 76.2317 97.4376 76.3743 97.4376 76.3743C95.3033 76.7508 94.1113 75.6988 94.1113 75.6988C94.1113 75.6988 94.8121 72.2734 95.0929 70.8911Z" fill="#466EB6"/>
<path d="M98.1872 66.4241C98.1872 66.4241 99.646 66.3181 100.019 66.1372C100.245 66.0277 102.082 64.4663 102.082 64.4663L101.955 60.4175L103.272 60.2828C103.272 60.2828 104.074 64.741 103.85 65.2374C103.618 65.7495 100.925 67.9047 100.4 68.8228C100.097 69.3514 100.384 76.5343 100.286 76.6004C99.5843 76.989 96.6371 77.3333 96.6832 77.1072C97.9499 70.8667 98.1872 66.4241 98.1872 66.4241Z" fill="#F7CC7F"/>
<path d="M98.1147 65.1244L98.1903 66.4241C98.1903 66.4241 97.2801 68.0925 96.7836 67.8769C96.3681 67.6952 96.6993 66.4354 96.6993 66.4354C96.6993 66.4354 96.7628 66.1468 96.8532 65.8147C96.9158 65.5825 96.9671 65.3321 96.9575 65.1496C96.9366 64.7053 98.1147 65.1244 98.1147 65.1244Z" fill="#F7A491"/>
<path d="M96.9549 65.1496C96.9332 64.7053 98.1112 65.1244 98.1112 65.1244L98.119 65.2513C98.0816 65.3113 98.039 65.3626 97.9929 65.4026C97.686 65.6651 97.2357 65.792 96.8662 65.759C96.921 65.5434 96.9636 65.3174 96.9549 65.1496Z" fill="#F47458"/>
<path d="M96.8931 62.1867C96.8931 62.1867 96.4262 62.9318 96.4062 63.5499C96.3862 64.1672 96.5279 64.5845 96.5279 64.5845L98.039 62.6788L96.8931 62.1867Z" fill="#13375B"/>
<path d="M96.2412 63.4282C96.2247 63.6447 96.3134 63.8281 96.4395 63.8377C96.5655 63.8472 96.6803 63.6794 96.6968 63.463C96.7133 63.2465 96.6246 63.063 96.4986 63.0535C96.3734 63.0439 96.2578 63.2117 96.2412 63.4282Z" fill="#F48C7F"/>
<path d="M98.5531 62.9648C98.5888 62.9561 98.6322 64.7514 98.1228 65.187C97.6133 65.6234 96.7091 65.6842 96.4335 65.2652C96.1284 64.8027 96.357 62.9039 97.1204 62.4814C97.8837 62.0589 98.5531 62.9648 98.5531 62.9648Z" fill="#F7A491"/>
<path d="M98.6534 61.8485C99.0594 62.1867 99.2585 62.4354 99.5436 63.0474C99.894 63.8003 99.2594 64.6062 98.7177 64.934C98.1761 65.2617 98.1404 65.6417 98.1404 65.6417L98.1118 65.4087C98.0987 65.3235 98.0996 65.2539 98.1135 65.1939C98.1291 65.1226 98.1596 65.0635 98.1865 65.0027C98.2309 64.901 98.3717 64.5549 98.4282 64.4628C98.5769 64.2202 98.6056 64.1681 98.5239 63.9429C98.4604 63.7699 98.5186 63.383 98.4204 63.0978L97.6762 62.9579C97.6762 62.9579 97.2102 62.8587 96.9694 62.5953C96.2765 61.8381 97.5814 60.9391 98.6534 61.8485Z" fill="#13375B"/>
<path d="M98.3523 64.1437C98.2662 64.3428 98.2906 64.5453 98.4062 64.5949C98.5218 64.6453 98.6853 64.5236 98.7713 64.3245C98.8574 64.1254 98.8331 63.9229 98.7174 63.8733C98.6018 63.8229 98.4384 63.9446 98.3523 64.1437Z" fill="#F7A491"/>
<path d="M150.098 72.2064C150.098 72.2064 148.578 71.8004 148.56 71.923C148.168 74.6059 147.998 75.5753 147.943 75.6023C147.755 75.6927 145.356 73.381 144.922 73.2175C144.714 73.1393 144.485 73.1454 144.267 73.1462C143.745 73.148 143.643 73.1471 143.643 73.1471C143.628 73.148 143.624 73.148 143.624 73.148L143.613 73.6383C144.187 74.1825 144.75 84.6839 144.863 84.6822C144.99 84.6796 147.373 84.6665 147.26 84.4683C147.26 84.4683 146.684 81.2342 146.231 79.1016C146.079 78.3861 145.654 76.8898 145.654 76.8898C146.236 77.2011 148.513 78.3965 148.882 78.2565C150.031 77.8183 150.098 72.2064 150.098 72.2064Z" fill="#F47458"/>
<path d="M145.594 78.593C145.333 77.3063 144.664 75.1955 144.469 74.7164C144.019 73.6175 143.64 73.1515 143.64 73.1515L141.86 73.2046C141.86 73.2046 141.819 73.2159 141.806 73.2176C141.661 73.2402 141.657 78.4244 141.735 80.3623C141.813 82.3001 142.244 84.8222 142.244 84.8222L142.751 84.7744C142.76 85.0361 142.765 85.2083 142.765 85.2083C145.341 85.6621 146.778 84.3928 146.778 84.3928C146.778 84.3928 145.933 80.2614 145.594 78.593Z" fill="#466EB6"/>
<path d="M141.86 73.2045C141.86 73.2045 140.099 73.0759 139.651 72.8585C139.379 72.7264 137.162 70.8424 137.162 70.8424L137.316 65.9573L135.726 65.7947C135.726 65.7947 134.759 71.1728 135.029 71.7718C135.308 72.3899 138.557 74.9903 139.192 76.0979C139.557 76.736 139.211 85.4012 139.329 85.4812C140.175 85.9498 143.731 86.3654 143.676 86.0924C142.148 78.5643 141.86 73.2045 141.86 73.2045Z" fill="#F47458"/>
<path d="M141.953 71.6362L141.861 73.2046C141.861 73.2046 142.96 75.2172 143.558 74.9564C144.06 74.7373 143.66 73.2176 143.66 73.2176C143.66 73.2176 143.584 72.8698 143.475 72.4691C143.399 72.1891 143.338 71.8866 143.349 71.6666C143.374 71.1311 141.953 71.6362 141.953 71.6362Z" fill="#F7A491"/>
<path d="M143.348 71.6665C143.374 71.1301 141.953 71.6361 141.953 71.6361L141.944 71.7891C141.99 71.8622 142.041 71.9239 142.096 71.9717C142.467 72.289 143.01 72.4412 143.456 72.402C143.388 72.1421 143.338 71.87 143.348 71.6665Z" fill="#F47458"/>
<path d="M143.421 68.0925C143.421 68.0925 143.985 68.9914 144.009 69.7365C144.034 70.4816 143.862 70.985 143.862 70.985L142.04 68.6863L143.421 68.0925Z" fill="#184655"/>
<path d="M144.206 69.5895C144.226 69.8503 144.118 70.072 143.967 70.0833C143.815 70.0946 143.677 69.8921 143.657 69.6312C143.637 69.3704 143.744 69.1487 143.896 69.1374C144.048 69.1261 144.187 69.3287 144.206 69.5895Z" fill="#F48C7F"/>
<path d="M141.419 69.0314C141.376 69.021 141.323 71.1866 141.938 71.7126C142.553 72.2386 143.644 72.3116 143.976 71.8074C144.344 71.2492 144.068 68.9584 143.147 68.4489C142.227 67.9403 141.419 69.0314 141.419 69.0314Z" fill="#F7A491"/>
<path d="M141.296 67.6847C140.805 68.0925 140.565 68.3933 140.222 69.1314C139.799 70.0391 140.565 71.0119 141.218 71.4075C141.871 71.8031 141.915 72.2612 141.915 72.2612L141.949 71.9804C141.965 71.8778 141.963 71.7944 141.948 71.7213C141.929 71.6353 141.892 71.564 141.859 71.4901C141.806 71.3684 141.636 70.9493 141.568 70.8389C141.389 70.5459 141.354 70.4833 141.453 70.2121C141.529 70.0034 141.459 69.5374 141.578 69.1931L142.476 69.0236C142.476 69.0236 143.039 68.9036 143.329 68.5863C144.163 67.6717 142.588 66.5876 141.296 67.6847Z" fill="#184655"/>
<path d="M141.659 70.4537C141.762 70.6945 141.734 70.938 141.594 70.9988C141.454 71.0588 141.256 70.9127 141.153 70.6728C141.049 70.432 141.078 70.1885 141.218 70.1277C141.357 70.0668 141.555 70.2129 141.659 70.4537Z" fill="#F7A491"/>
<path d="M116.811 80.0258C116.811 80.0258 118.785 77.388 119.507 76.1396C120.228 74.8911 119.016 75.704 117.778 75.3754C117.309 75.2511 117.698 72.6907 116.811 73.5844C115.357 75.0494 113.899 78.2235 113.899 78.2235L116.811 80.0258Z" fill="#13375B"/>
<path d="M117.023 73.4097C118.3 73.0228 120.692 72.8202 120.692 72.8202C120.692 72.8202 122.192 72.5768 122.68 72.682C123.397 72.8376 124.744 72.908 124.869 76.0222C124.958 78.2504 125.212 83.7632 125.467 87.4851L116.334 88.0398C116.748 82.3114 115.813 73.7757 117.023 73.4097Z" fill="#47637F"/>
<path d="M119.445 70.159L120.88 72.7967C120.88 72.7967 119.799 74.7224 118.778 74.7737C117.921 74.8172 118.055 73.5487 118.055 73.5487C118.055 73.5487 117.921 71.9099 117.508 71.1753C117.096 70.4407 119.445 70.159 119.445 70.159Z" fill="#F7A491"/>
<path d="M119.315 71.2153C118.993 71.5587 118.455 72.0117 117.872 72.2994C117.786 71.8882 117.669 71.4631 117.508 71.1762C117.319 70.8371 117.717 70.5946 118.2 70.432C118.849 70.2598 119.446 70.1599 119.446 70.1599L119.722 70.6667C119.651 70.8441 119.422 71.1005 119.315 71.2153Z" fill="#F47458"/>
<path d="M118.708 65.7155C118.767 65.6729 120.182 68.9705 119.568 70.1572C118.954 71.3439 117.333 72.1272 116.514 71.5552C115.609 70.9223 114.618 67.2308 115.71 65.8824C116.803 64.5331 118.708 65.7155 118.708 65.7155Z" fill="#F7A491"/>
<path d="M115.72 63.9054C116.832 63.8272 117.693 64.281 118.02 64.4853C118.514 64.4088 119.237 64.4923 120.217 65.4164C121.422 66.5527 121.233 68.235 120.48 69.2452C119.728 70.2555 119.979 71.1084 119.979 71.1084L119.703 70.7067C119.498 70.4015 119.353 70.0581 119.292 69.6956C119.255 69.4782 119.237 69.2365 119.273 69.0244C119.366 68.4645 118.547 68.3376 118.229 67.9811C117.984 67.7073 117.773 66.9831 117.38 66.5267L116.973 66.2085C116.973 66.2085 116.145 65.8677 115.52 66.2032C114.894 66.5371 114.293 64.0054 115.72 63.9054Z" fill="#F7CC7F"/>
<path d="M118.443 68.5775C118.553 68.9974 118.838 69.2869 119.08 69.2235C119.323 69.16 119.431 68.7688 119.321 68.3489C119.212 67.9289 118.927 67.6394 118.684 67.7029C118.441 67.7664 118.334 68.1585 118.443 68.5775Z" fill="#F7A491"/>
<path d="M117.289 69.9399L115.949 70.239C115.949 70.239 116.094 70.7406 116.686 70.6267C117.41 70.4859 117.289 69.9399 117.289 69.9399Z" fill="white"/>
<path d="M121.638 80.4882C121.638 80.4882 124.036 77.441 124.622 76.2439C125.208 75.0476 124.582 73.1532 123.419 72.9289C122.257 72.7046 118.891 78.1713 118.891 78.1713L121.638 80.4882Z" fill="#13375B"/>
<path d="M36.3682 32.9621C36.3682 32.9621 35.2049 31.4077 34.7798 30.6721C34.3547 29.9366 35.0693 30.4157 35.7987 30.2218C36.0752 30.1488 35.8457 28.6404 36.3682 29.1664C37.2245 30.0297 38.0835 31.8997 38.0835 31.8997L36.3682 32.9621Z" fill="#96D9C9"/>
<path d="M36.2402 29.0638C35.4873 28.836 34.078 28.716 34.078 28.716C34.078 28.716 33.1947 28.5726 32.9069 28.6343C32.4844 28.7256 31.6907 28.7673 31.6168 30.6026C31.5637 31.9154 31.4142 35.1634 31.2646 37.3569L36.6453 37.6838C36.4028 34.3088 36.9531 29.2802 36.2402 29.0638Z" fill="#50BFA5"/>
<path d="M34.8148 27.1493L33.9697 28.7038C33.9697 28.7038 34.6061 29.8384 35.2086 29.8688C35.7137 29.894 35.6346 29.1472 35.6346 29.1472C35.6346 29.1472 35.7137 28.1813 35.9563 27.7492C36.1988 27.3154 34.8148 27.1493 34.8148 27.1493Z" fill="#F7A491"/>
<path d="M34.8924 27.7718C35.0819 27.9744 35.3993 28.2405 35.7427 28.4109C35.7922 28.1683 35.8626 27.9179 35.9574 27.7492C36.0696 27.5493 35.8348 27.4067 35.5497 27.3111C35.168 27.2094 34.8159 27.1502 34.8159 27.1502L34.6533 27.4493C34.6942 27.5528 34.8289 27.704 34.8924 27.7718Z" fill="#F47458"/>
<path d="M35.2499 24.5307C35.2152 24.5055 34.3814 26.4486 34.7431 27.1476C35.1048 27.8466 36.0594 28.3082 36.5419 27.9709C37.0757 27.598 37.659 25.4236 37.0157 24.629C36.3723 23.8344 35.2499 24.5307 35.2499 24.5307Z" fill="#F7A491"/>
<path d="M37.009 23.464C36.3535 23.4179 35.8466 23.6848 35.6536 23.8057C35.3624 23.7605 34.9364 23.81 34.3591 24.3543C33.6488 25.0237 33.7601 26.0148 34.2044 26.6103C34.6486 27.205 34.5 27.7084 34.5 27.7084L34.6617 27.4719C34.7825 27.2919 34.8686 27.0902 34.9042 26.8764C34.926 26.7477 34.9364 26.606 34.9155 26.4808C34.8608 26.1504 35.3433 26.0757 35.5311 25.8661C35.6754 25.7044 35.7988 25.2776 36.031 25.0089L36.2709 24.8211C36.2709 24.8211 36.7595 24.6203 37.1273 24.8176C37.4959 25.015 37.8497 23.524 37.009 23.464Z" fill="#184655"/>
<path d="M35.4037 26.2174C35.3394 26.4652 35.1716 26.6356 35.0282 26.5982C34.8856 26.5608 34.8221 26.3304 34.8865 26.0826C34.9508 25.8348 35.1186 25.6644 35.262 25.7018C35.4046 25.7392 35.4681 25.9705 35.4037 26.2174Z" fill="#F7A491"/>
<path d="M36.0865 27.0198L36.8759 27.1963C36.8759 27.1963 36.7907 27.4919 36.4412 27.4249C36.0152 27.3423 36.0865 27.0198 36.0865 27.0198Z" fill="white"/>
<path d="M33.5231 33.2351C33.5231 33.2351 32.1104 31.4398 31.7652 30.7347C31.4201 30.0296 31.7887 28.9133 32.4738 28.7812C33.1589 28.649 35.142 31.8701 35.142 31.8701L33.5231 33.2351Z" fill="#96D9C9"/>
<path d="M61.7365 48.446C61.8878 48.4521 62.3016 48.5912 62.9076 49.7362C63.6813 51.1985 64.8124 55.6159 64.8124 55.6159L61.4366 56.8731L61.0027 55.9515L60.2881 48.8538C60.289 48.8521 61.6948 48.4443 61.7365 48.446Z" fill="#8CA5D2"/>
<path d="M57.2729 47.8088C58.2379 47.8096 60.6261 48.0913 61.7346 48.446C61.7346 48.446 62.5492 55.4446 61.0017 60.7636C60.6557 61.9538 61.2886 65.6983 61.2886 65.6983L51.2871 65.5661C51.2871 65.5661 52.4721 56.5131 52.0252 55.0508C51.5792 53.5885 51.5679 48.4921 51.5679 48.4921C51.5679 48.4921 51.6366 48.4817 53.8153 48.1052C54.8308 47.9305 56.2418 47.8079 57.2729 47.8088Z" fill="#466EB6"/>
<path d="M51.4587 49.2711C52.3941 48.9199 52.8514 57.346 52.9775 60.8149C54.6337 60.974 57.5201 60.8158 58.2391 60.7619C58.5773 60.7367 59.3562 60.4506 59.6927 60.4072C60.037 60.362 60.3491 60.3385 60.5186 60.3681C60.5803 60.3785 62.307 61.0844 62.4548 61.2392C62.6382 61.4313 63.1329 61.9156 63.0494 62.1251C62.966 62.3346 62.0974 61.5417 62.0974 61.5417L61.6732 61.3035C62.2018 61.8199 63.2094 62.4998 63.0642 62.7476C62.9225 62.9893 62.0131 62.299 61.3654 61.8286C61.9209 62.3303 62.6121 63.2292 62.453 63.3692C62.3104 63.4953 61.5245 62.4546 60.6855 62.1555C60.3743 62.0442 60.0648 62.352 59.8196 62.3894C59.6397 62.4163 59.3623 62.4746 59.1858 62.425L58.2773 62.1677C57.9678 62.1955 57.96 62.379 57.647 62.445C57.2836 62.5224 56.6889 62.6033 56.2264 62.7163C53.5643 63.3666 52.6767 63.6683 51.8621 63.6683C49.3921 63.6657 49.2487 50.1005 51.4587 49.2711Z" fill="#F7A491"/>
<path d="M49.6841 57.1817C49.5084 53.6294 49.5345 49.2502 51.5263 48.5034C52.3122 48.2087 53.6972 49.9814 53.4485 57.2539C52.3844 57.3417 50.8238 57.4121 49.6841 57.1817Z" fill="#8CA5D2"/>
<path d="M59.5177 39.2609C59.2334 39.1653 58.9526 39.0566 58.6822 38.9262C58.3762 38.7784 57.9798 38.6063 57.7294 38.5671C57.2025 38.4863 56.2966 38.5402 55.7967 39.0827C55.1734 39.7582 54.0666 39.2044 54.2901 42.7437C54.5422 46.749 56.7696 46.3099 56.8235 46.2421C56.8774 46.1743 58.81 43.6792 58.81 43.6792C58.81 43.6792 59.4856 45.1571 59.4856 45.1032C59.4864 45.0502 62.9362 40.412 59.5177 39.2609Z" fill="#0E2E35"/>
<path d="M57.8274 46.5377L58.0195 47.9688C58.0195 47.9688 58.4499 50.031 57.8961 50.4283C57.3423 50.8256 55.54 47.9096 55.54 47.9096L55.7304 44.2825L57.8274 46.5377Z" fill="#F7A491"/>
<path d="M55.6699 45.4588C56.1272 46.696 57.2174 47.4567 57.9921 47.7514L57.8286 46.5377L55.7317 44.2834L55.6699 45.4588Z" fill="#F47458"/>
<path d="M57.7147 40.3364C58.8893 40.1469 59.9421 41.091 59.9125 42.2664C59.8995 42.7776 59.8578 43.4149 59.7517 44.1026C59.4961 45.7544 58.3694 47.2098 57.6234 47.0803C56.8784 46.9507 55.0022 45.5249 55.3326 43.1741C55.5378 41.7213 56.4828 40.5355 57.7147 40.3364Z" fill="#F7A491"/>
<path d="M55.8504 43.454C55.7879 43.8174 55.4966 44.0704 55.2001 44.0183C54.9037 43.9661 54.715 43.6305 54.7776 43.2671C54.8402 42.9037 55.1315 42.6507 55.4279 42.7029C55.7244 42.7542 55.913 43.0906 55.8504 43.454Z" fill="#F7A491"/>
<path d="M55.4276 42.7028C55.4276 42.7028 56.3292 42.9271 56.663 42.3473C56.9978 41.7674 58.1932 40.5172 59.7137 41.0353C61.2343 41.5544 58.3757 39.7747 58.254 39.7747C58.1323 39.7747 56.6726 39.7643 56.6726 39.7643C56.6726 39.7643 55.5476 40.6893 55.5067 40.791C55.4659 40.8928 55.1416 42.0012 55.1416 42.0012L55.4276 42.7028Z" fill="#0E2E35"/>
<path d="M57.0736 45.1215L58.7133 45.4353C58.7133 45.4353 58.5568 46.0526 57.8317 45.9361C56.9475 45.7926 57.0736 45.1215 57.0736 45.1215Z" fill="white"/>
<path d="M79.3272 69.713C79.4055 69.7165 79.6211 69.7887 79.9358 70.3833C80.3383 71.1432 80.926 73.4393 80.926 73.4393L79.1716 74.093L78.9464 73.614L78.5752 69.9252C78.5752 69.9243 79.3055 69.7122 79.3272 69.713Z" fill="#FADFAE"/>
<path d="M77.011 69.3818C77.5126 69.3827 78.7541 69.5287 79.3296 69.7131C79.3296 69.7131 79.753 73.3506 78.9488 76.1153C78.7689 76.7343 79.0975 78.68 79.0975 78.68L73.8994 78.6113C73.8994 78.6113 74.5149 73.9061 74.2837 73.1463C74.0516 72.3864 74.0463 69.7374 74.0463 69.7374C74.0463 69.7374 74.082 69.7322 75.2139 69.5357C75.7417 69.4453 76.4746 69.381 77.011 69.3818Z" fill="#F7CC7F"/>
<path d="M73.9878 70.1417C74.4738 69.9591 74.712 74.3391 74.7772 76.1413C75.6379 76.2239 77.1385 76.1422 77.5115 76.1135C77.6871 76.1005 78.0922 75.9518 78.267 75.9292C78.4461 75.9057 78.6086 75.8936 78.6965 75.9092C78.7286 75.9144 79.6258 76.2813 79.7023 76.3622C79.7971 76.4621 80.0544 76.7134 80.011 76.8229C79.9675 76.9316 79.5163 76.5195 79.5163 76.5195L79.2955 76.3961C79.5702 76.6647 80.0944 77.0177 80.0188 77.1464C79.9449 77.2715 79.4728 76.9134 79.1355 76.6691C79.4241 76.9299 79.7832 77.3967 79.7006 77.4698C79.6267 77.535 79.2181 76.9942 78.7816 76.8386C78.6199 76.7812 78.4591 76.9403 78.3313 76.9603C78.2374 76.9742 78.094 77.0046 78.0018 76.9786L77.5297 76.8447C77.3689 76.8594 77.3645 76.9542 77.202 76.989C77.0133 77.029 76.7038 77.0716 76.4639 77.1298C75.0807 77.468 74.619 77.6245 74.1956 77.6245C72.9133 77.6236 72.8385 70.5729 73.9878 70.1417Z" fill="#F7A491"/>
<path d="M73.0645 74.253C72.9732 72.4064 72.9871 70.1312 74.0217 69.7426C74.4303 69.5896 75.1502 70.5103 75.0207 74.2904C74.4677 74.3365 73.6566 74.373 73.0645 74.253Z" fill="#FADFAE"/>
<path d="M78.1754 64.9392C78.0276 64.8897 77.8816 64.8332 77.7416 64.7653C77.5825 64.6888 77.3765 64.5993 77.2469 64.5784C76.9731 64.5358 76.5027 64.5645 76.2428 64.8462C75.9194 65.1974 75.3438 64.9097 75.4594 66.7493C75.5907 68.8315 76.7479 68.6028 76.7766 68.5672C76.8044 68.5316 77.8094 67.2353 77.8094 67.2353C77.8094 67.2353 78.1607 68.0038 78.1607 67.9751C78.1589 67.9482 79.9525 65.5374 78.1754 64.9392Z" fill="#0E2E35"/>
<path d="M77.2977 68.7211L77.3977 69.4653C77.3977 69.4653 77.622 70.5373 77.3334 70.7442C77.0456 70.9511 76.1084 69.4349 76.1084 69.4349L76.2075 67.55L77.2977 68.7211Z" fill="#BF7154"/>
<path d="M76.1758 68.1603C76.414 68.8036 76.98 69.1984 77.3825 69.3514L77.2982 68.7211L76.208 67.5491L76.1758 68.1603Z" fill="#96482A"/>
<path d="M77.2378 65.4983C77.8481 65.4 78.3958 65.8904 78.3802 66.5016C78.3732 66.7676 78.3515 67.0988 78.2967 67.4561C78.1637 68.3151 77.5777 69.0715 77.1909 69.0037C76.8031 68.9359 75.8285 68.1951 76.0007 66.9736C76.1058 66.2181 76.5979 65.6017 77.2378 65.4983Z" fill="#BF7154"/>
<path d="M76.2678 67.1188C76.2347 67.3075 76.0835 67.4387 75.9296 67.4118C75.7757 67.3848 75.6775 67.2101 75.7105 67.0214C75.7435 66.8328 75.8948 66.7015 76.0487 66.7284C76.2017 66.7545 76.2999 66.9293 76.2678 67.1188Z" fill="#BF7154"/>
<path d="M76.0492 66.7275C76.0492 66.7275 76.5178 66.844 76.6916 66.5424C76.8655 66.2407 77.4871 65.5913 78.2774 65.8608C79.0677 66.1303 77.5819 65.2052 77.5184 65.2052C77.455 65.2052 76.6969 65.2 76.6969 65.2C76.6969 65.2 76.1118 65.6808 76.0909 65.7338C76.07 65.7869 75.9014 66.3624 75.9014 66.3624L76.0492 66.7275Z" fill="#0E2E35"/>
<path d="M76.9055 67.9847L77.7575 68.1473C77.7575 68.1473 77.6758 68.4681 77.2994 68.4072C76.8403 68.3342 76.9055 67.9847 76.9055 67.9847Z" fill="white"/>
<path d="M154.195 32.1475L156.917 32.4257C156.917 32.4257 157.043 30.194 157.043 29.1298C157.043 27.8388 156.933 26.1748 156.777 26.2113C156.338 26.3121 155.749 26.5538 155.399 27.0355C154.184 28.7038 154.195 32.1475 154.195 32.1475Z" fill="#B75742"/>
<path d="M155.532 28.902C155.475 29.2959 154.429 39.9998 154.429 39.9998C159.385 42.3932 162.119 40.4258 162.119 40.4258C162.119 40.4258 161.957 32.909 162.152 31.8858C162.28 31.2085 162.44 26.7111 162.002 26.5851C161.439 26.4234 160.794 26.2521 160.09 26.1791C159.489 26.1165 157.157 26.0808 156.74 26.2208C156.74 26.2208 155.772 27.2458 155.532 28.902Z" fill="#F47458"/>
<path d="M159.427 24.1099L159.746 26.2156C159.746 26.2156 158.58 28.7229 157.883 28.5055C157.299 28.323 157.658 26.1051 157.658 26.1051C157.658 26.1051 157.976 24.9141 157.881 24.3177C157.787 23.7213 159.427 24.1099 159.427 24.1099Z" fill="#F7A491"/>
<path d="M157.883 24.3177C157.787 23.7213 159.429 24.1108 159.429 24.1108L159.455 24.2856C159.408 24.4021 159.349 24.502 159.277 24.5794C158.91 24.9741 158.337 25.2106 157.843 25.2288C157.891 24.9063 157.922 24.562 157.883 24.3177Z" fill="#F47458"/>
<path d="M159.699 21.1313C159.745 21.1148 160.071 23.5291 159.453 24.1942C158.836 24.8584 157.633 25.0758 157.201 24.5532C156.723 23.9742 156.748 21.3791 157.708 20.6949C158.668 20.0107 159.699 21.1313 159.699 21.1313Z" fill="#F7A491"/>
<path d="M158.075 19.403C158.818 19.5543 159.297 20.0081 159.475 20.2011C159.812 20.2411 160.269 20.4271 160.742 21.2104C161.324 22.1729 160.895 23.2396 160.217 23.763C159.54 24.2864 159.55 24.8906 159.55 24.8906L159.443 24.5776C159.364 24.3411 159.331 24.0899 159.357 23.8412C159.373 23.6926 159.405 23.5309 159.467 23.3987C159.63 23.0492 159.117 22.8171 158.973 22.5258C158.863 22.3015 158.858 21.7895 158.683 21.42L158.475 21.1374C158.475 21.1374 157.994 20.7636 157.525 20.8688C157.055 20.9748 157.123 19.2091 158.075 19.403Z" fill="#0E2E35"/>
<path d="M159.006 22.9562C159.001 23.2509 159.135 23.4917 159.305 23.4952C159.475 23.4978 159.617 23.2613 159.622 22.9666C159.627 22.6719 159.493 22.4311 159.322 22.4276C159.153 22.425 159.01 22.6614 159.006 22.9562Z" fill="#F7A491"/>
<path d="M157.999 23.6369L157.068 23.5891C157.068 23.5891 157.072 23.9438 157.48 23.9769C157.979 24.016 157.999 23.6369 157.999 23.6369Z" fill="white"/>
<path d="M167.028 40.1137C167.031 40.0911 167.031 40.0676 167.029 40.045C166.956 39.3034 166.34 33.0786 166.237 32.8143C166.143 32.5752 163.383 28.6273 163.383 28.6273L162.025 30.4756L164.681 34.0167C164.74 34.2418 165.698 38.4436 165.698 38.4436C165.698 38.4436 165.894 39.2095 165.982 39.6686C165.942 39.779 165.903 39.8833 165.867 39.9694C165.779 40.1528 165.675 40.3024 165.581 40.4293C165.462 40.5884 165.266 40.9361 165.242 41.0292C165.214 41.137 165.163 41.3621 165.134 41.4978C165.106 41.6334 165.067 41.7916 165.06 41.8647C165.055 41.9099 165.009 41.9985 164.973 42.062C164.92 42.1559 165.011 42.2672 165.113 42.2333C165.21 42.2011 165.285 42.0768 165.332 41.9985C165.462 41.7786 165.532 41.3778 165.565 41.3995C165.597 41.4204 165.712 42.1011 165.73 42.1776C165.748 42.255 165.885 43.0444 165.963 43.1887C166.04 43.3331 166.143 43.3087 166.17 43.2183C166.193 43.1401 166.085 42.0351 166.085 42.0351C166.085 42.0351 166.071 41.8942 166.132 41.9386C166.194 41.9829 166.295 42.9862 166.338 43.1331C166.38 43.28 166.478 43.3574 166.562 43.24C166.663 43.0966 166.489 42.0325 166.489 42.0325C166.489 42.0325 166.47 41.8986 166.526 41.9107C166.584 41.9229 166.655 42.7784 166.699 42.8523C166.744 42.9262 166.856 42.9531 166.91 42.8297C166.973 42.6845 166.81 41.736 166.81 41.736C166.81 41.736 166.817 41.6604 166.853 41.6856C166.889 41.7108 167.002 42.435 167.076 42.5019C167.137 42.5584 167.19 42.5037 167.19 42.5037C167.325 42.4115 167.117 41.7221 167.119 41.3795C167.121 41.037 166.963 40.6519 167.01 40.2441C167.014 40.2154 167.023 40.1528 167.028 40.1137Z" fill="#F8A492"/>
<path d="M165.54 31.1268L163.182 32.7099C163.182 32.7099 161.852 30.7321 161.14 30.0279C160.246 29.1463 161.465 26.4442 162.041 26.5972C163.328 26.9398 165.54 31.1268 165.54 31.1268Z" fill="#F47458"/>
<path d="M178.263 50.8794C178.963 48.7564 179.746 48.8468 179.746 48.8468L179.141 53.3102C178.708 53.192 178.145 52.9286 177.714 52.8069C177.857 52.1357 178.091 51.4019 178.263 50.8794Z" fill="#47637F"/>
<path d="M178.48 45.3579C178.694 43.9616 179.958 42.9575 181.278 43.6348C181.576 43.7869 181.978 44.0964 182.183 44.3598C182.738 45.0719 182.88 45.9517 183.454 46.6428C183.243 46.8028 182.988 46.9697 182.685 47.1306L182.329 46.655L182.451 47.2488C181.564 47.6731 180.312 48.0234 178.598 48.0139C178.382 47.0445 178.366 46.103 178.48 45.3579Z" fill="#F7CC7F"/>
<path d="M181.537 48.4651C181.537 48.4651 182.673 48.3164 183.184 48.8737C183.694 49.431 182.206 53.9066 182.113 54.6152C182.02 55.3246 182.764 57.1025 182.764 57.1025C182.764 57.1025 179.515 57.7137 178.649 57.139C178.649 57.139 178.598 52.1461 178.69 51.6392C178.783 51.1324 179.556 49.0719 179.741 48.8694C179.927 48.6677 181.537 48.4651 181.537 48.4651Z" fill="#13375B"/>
<path d="M181.109 46.7385C181.109 46.7385 181.116 46.7767 181.127 46.8411C181.184 47.1514 181.406 48.1825 181.556 48.466C181.736 48.8085 180.937 49.9005 180.167 49.7674C179.938 49.7275 180.361 48.7642 180.34 48.6616C180.301 48.466 180.249 48.1991 180.195 47.9261C180.165 47.7722 180.133 47.6157 180.105 47.4688C180.022 47.0515 179.955 46.7098 179.955 46.7098L181.109 46.7385Z" fill="#F7A491"/>
<path opacity="0.5" d="M181.129 46.8411C181.117 46.7767 181.111 46.7385 181.111 46.7385L179.958 46.7098C179.958 46.7098 180.025 47.0515 180.108 47.4688C180.136 47.6148 180.167 47.7705 180.197 47.9235C180.375 47.8974 180.561 47.8104 180.747 47.647C180.951 47.4688 181.084 47.254 181.165 47.0254C181.149 46.9524 181.138 46.8889 181.129 46.8411Z" fill="#F47458"/>
<path d="M180.333 44.1112C180.333 44.1112 180.876 44.0486 181.217 44.4902C181.558 44.9319 181.925 46.2977 181.079 47.0402C180.232 47.7826 179.396 46.9419 179.272 46.0508C179.148 45.1597 179.1 44.079 180.333 44.1112Z" fill="#F7A491"/>
<path d="M179.019 46.0377C179.12 46.2342 179.29 46.3438 179.398 46.2812C179.506 46.2186 179.512 46.0091 179.411 45.8117C179.31 45.6152 179.141 45.5057 179.032 45.5683C178.924 45.63 178.918 45.8404 179.019 46.0377Z" fill="#F7A491"/>
<path d="M180.272 43.9651C180.272 43.9651 180.998 45.264 181.518 45.324C182.038 45.3839 182.106 46.0742 182.106 46.0742C182.106 46.0742 181.92 44.4841 181.406 44.1772C180.891 43.8703 180.272 43.9651 180.272 43.9651Z" fill="#F7CC7F"/>
<path d="M181.38 45.65C181.338 45.8804 181.423 46.0925 181.57 46.123C181.717 46.1534 181.87 45.9908 181.912 45.7604C181.955 45.53 181.87 45.3179 181.723 45.2875C181.576 45.2571 181.422 45.4196 181.38 45.65Z" fill="#F7A491"/>
<path d="M180.741 46.488L179.955 46.6428C179.955 46.6428 180.032 46.9375 180.379 46.8793C180.804 46.8088 180.741 46.488 180.741 46.488Z" fill="white"/>
<path d="M182.98 48.719C182.98 48.719 183.408 48.9224 183.785 49.8005C184.144 50.6351 184.249 54.8012 184.249 54.8012L182.686 54.543L182.105 52.6217C181.925 51.8609 181.723 50.1056 182.474 49.0789C182.674 48.8059 182.858 48.6398 182.98 48.719Z" fill="#47637F"/>
<path d="M44.0637 71.431C44.0976 70.6094 43.9768 69.7982 43.609 69.0332C43.2926 68.3751 42.5101 68.0021 41.7964 68.0003C39.5299 67.9977 39.2421 70.9919 37.7998 72.1465C37.359 72.4994 36.866 72.7863 36.4496 73.1671C34.9099 74.5721 35.6037 77.1733 37.0173 78.4061C37.9989 79.2607 39.5412 79.7467 40.7505 79.0781C41.3817 78.7295 41.8607 78.1496 42.2024 77.5141C42.6866 76.6125 42.9996 75.5719 43.3439 74.6103C43.7108 73.5879 44.0185 72.5229 44.0637 71.431Z" fill="#F7CC7F"/>
<path d="M43.2159 78.9929C43.2159 78.9929 41.5232 77.2576 41.0876 76.5039C40.6521 75.7501 41.3841 76.2405 42.1318 76.0422C42.4152 75.9675 42.343 74.3078 42.8786 74.8468C43.7567 75.7319 44.8608 77.2794 44.8608 77.2794L43.2159 78.9929Z" fill="#F47458"/>
<path d="M40.812 74.0861C40.812 74.0861 39.2931 73.7862 38.6002 74.3652C37.9073 74.9442 38.7489 80.0927 38.748 80.9456C38.7472 81.7994 38.2725 84.0285 38.2725 84.0285C38.2725 84.0285 42.8759 85.017 43.6071 83.7355C43.6071 83.7355 43.8148 78.8539 43.7844 78.2401C43.7531 77.6263 43.0706 75.1155 42.882 74.8468C42.6933 74.5782 40.812 74.0861 40.812 74.0861Z" fill="#B75742"/>
<path d="M40.8028 71.7361C40.8028 71.7361 40.795 71.7814 40.7802 71.8587C40.7115 72.2291 40.4464 73.4593 40.2673 73.7975C40.0508 74.2061 41.0089 75.5093 41.9304 75.3502C42.2052 75.3033 41.6983 74.1531 41.7226 74.0313C41.7696 73.7984 41.8322 73.4802 41.8974 73.1541C41.9339 72.9698 41.9704 72.7838 42.0052 72.6082C42.1034 72.11 42.1843 71.7022 42.1843 71.7022L40.8028 71.7361Z" fill="#F7A491"/>
<path d="M40.778 71.8596C40.7927 71.7822 40.8006 71.737 40.8006 71.737L42.182 71.7022C42.182 71.7022 42.1012 72.11 42.0029 72.6081C41.9681 72.7829 41.9316 72.9681 41.8951 73.1506C41.6821 73.1193 41.4587 73.0159 41.2353 72.8203C40.9918 72.6073 40.8319 72.3517 40.7354 72.0787C40.7527 71.9917 40.7666 71.917 40.778 71.8596Z" fill="#F47458"/>
<path d="M41.7301 68.602C41.7301 68.602 41.0789 68.5272 40.6703 69.054C40.2617 69.5809 39.8218 71.2101 40.8364 72.096C41.8501 72.982 42.8525 71.9795 43.0011 70.9163C43.1498 69.853 43.2072 68.5637 41.7301 68.602Z" fill="#F7A491"/>
<path d="M42.7489 68.3351C42.7489 68.3351 41.4796 70.1538 40.2702 69.9104L40.2363 69.134L40.3476 68.8402L40.9597 68.4472L41.9551 68.2203L42.7489 68.3351Z" fill="#F7CC7F"/>
<path d="M43.3028 70.9007C43.182 71.1354 42.9785 71.2658 42.849 71.191C42.7194 71.1163 42.7125 70.8659 42.8333 70.6312C42.9542 70.3964 43.1576 70.266 43.2872 70.3408C43.4167 70.4147 43.4236 70.6659 43.3028 70.9007Z" fill="#F7A491"/>
<path d="M40.4743 70.4382C40.5247 70.7138 40.423 70.9659 40.2465 71.0015C40.07 71.0381 39.8866 70.8442 39.8362 70.5686C39.7857 70.293 39.8874 70.0409 40.0639 70.0052C40.2396 69.9696 40.4239 70.1635 40.4743 70.4382Z" fill="#F7A491"/>
<path d="M42.1244 71.511L41.1689 71.4614C41.1689 71.4614 41.1724 71.8257 41.5915 71.8596C42.1035 71.9004 42.1244 71.511 42.1244 71.511Z" fill="white"/>
<path d="M42.1244 71.511L41.1689 71.4614C41.1689 71.4614 41.1724 71.8257 41.5915 71.8596C42.1035 71.9004 42.1244 71.511 42.1244 71.511Z" fill="white"/>
<path d="M39.1703 78.9321C39.1703 78.9321 38.174 76.7229 38.0219 75.8649C37.8706 75.0076 38.6061 73.9313 39.3764 74C40.1467 74.0696 41.3021 77.8844 41.3021 77.8844L39.1703 78.9321Z" fill="#F47458"/>
</svg>
