<svg xmlns="http://www.w3.org/2000/svg" viewBox="0 0 54.13 54.13"><defs><style>.cls-1{fill:#030202;}.cls-2{fill:#ffc144;}.cls-3{fill:#f28086;}</style></defs><title>Asset 4</title><g id="Layer_2" data-name="Layer 2"><g id="Layer_1-2" data-name="Layer 1"><path class="cls-1" d="M44.51,54.13H35.74a9.8,9.8,0,0,1-.72-1Q33.26,50,31.54,46.76a.49.49,0,0,0-.65-.29,16.34,16.34,0,0,1-7.63,0,.49.49,0,0,0-.66.29q-1.72,3.2-3.48,6.38a9.8,9.8,0,0,1-.72,1H9.62c-.7-.54-.76-.83-.32-1.65q2.7-5.07,5.41-10.14a.61.61,0,0,0-.09-.86A15.76,15.76,0,0,1,10.78,35c-.37-1.27-.51-2.61-.75-3.91l-.08-.59a17.11,17.11,0,0,1,2.54-9.71h-.65c-3.49,0-7,0-10.46,0A1.52,1.52,0,0,1,0,20.19v-7a1.43,1.43,0,0,1,1.35-.59H22.28L22,12.3A7.18,7.18,0,0,1,24.15.64C24.74.37,25.39.21,26,0h2a.56.56,0,0,0,.16.1A7,7,0,0,1,33.91,5a6.92,6.92,0,0,1-1.75,7.3c-.08.08-.14.17-.26.32H52.78a1.43,1.43,0,0,1,1.35.59v7a1.52,1.52,0,0,1-1.38.56c-3.49,0-7,0-10.46,0h-.65a17.11,17.11,0,0,1,2.54,9.71l-.08.59c-.06.56-.08,1.12-.18,1.67a16.74,16.74,0,0,1-4.39,8.73.68.68,0,0,0-.11.94q2.73,5.06,5.41,10.14C45.27,53.31,45.2,53.6,44.51,54.13Zm7.8-39.67H1.83v4.48H13.64c.51,0,1.05-.06,1.36.49s-.09,1-.39,1.42A14.67,14.67,0,0,0,12,32.58,14.9,14.9,0,0,0,22,44.21,15.31,15.31,0,0,0,40.68,22.73c-.41-.81-1-1.55-1.46-2.32A.9.9,0,0,1,40,18.94c.16,0,.32,0,.48,0H52.32ZM27,12.62A5.41,5.41,0,1,0,21.67,7,5.42,5.42,0,0,0,27,12.62Zm6.16,33.31s0,0,0,.09c1.09,2,2.18,4,3.29,6a.71.71,0,0,0,.53.28c1.76,0,3.52,0,5.28,0a3,3,0,0,0,.39-.06l-4.81-9ZM11.47,52.25c.11,0,.14.07.17.07,1.86,0,3.73,0,5.59,0a.67.67,0,0,0,.45-.32c.68-1.21,1.34-2.43,2-3.65L21,45.94l-4.72-2.7Z"/><path class="cls-1" d="M0,29.82l4.75,0H6.84l-1.26-1L7,27.33l2.94,3.13L10,31c-.07,0-.16,0-.21,0l-3,2.74L5.75,32.68l1-.95-.06-.12H0Z"/><path class="cls-1" d="M44.19,30.46l2.92-3.12,1.31,1.41-1.06.89.06.12.44,0h5.71c.19,0,.38,0,.58,0v1.8H47.38l1.16,1-1.46,1.31c-.13-.12-.35-.33-.56-.56L44.26,31s-.1,0-.16.05Z"/><path class="cls-2" d="M52.32,14.46v4.48H40.44c-.16,0-.32,0-.48,0a.9.9,0,0,0-.75,1.47c.49.77,1.05,1.51,1.46,2.32A15.31,15.31,0,0,1,22,44.21,14.9,14.9,0,0,1,12,32.58a14.67,14.67,0,0,1,2.59-11.73c.3-.42.72-.83.39-1.42s-.85-.49-1.36-.49H1.83V14.46ZM27.08,21c-.4-.43-.66-.77-1-1a3.67,3.67,0,0,0-5.41.52,4,4,0,0,0,.44,5.38q2.5,2.62,5,5.22c.7.73,1.13.72,1.85,0l3.81-4c.57-.6,1.17-1.18,1.68-1.83a4,4,0,0,0-.42-5.2A3.67,3.67,0,0,0,28,20,11.71,11.71,0,0,0,27.08,21ZM22.6,37v1.75H24.3V37Zm9,1.76V37H29.82v1.73Zm-5.36,0h1.74V37H26.19Zm0,1.86v1.75h1.7V40.62Z"/><path class="cls-2" d="M27,12.62a5.41,5.41,0,1,1,5.47-5.23A5.42,5.42,0,0,1,27,12.62Z"/><path class="cls-2" d="M33.16,45.93l4.71-2.69,4.81,9a3,3,0,0,1-.39.06c-1.76,0-3.52,0-5.28,0a.71.71,0,0,1-.53-.28c-1.11-2-2.2-4-3.29-6C33.16,46,33.14,45.9,33.16,45.93Z"/><path class="cls-2" d="M11.47,52.25l4.8-9L21,45.94l-1.31,2.4c-.66,1.22-1.32,2.44-2,3.65a.67.67,0,0,1-.45.32c-1.86,0-3.73,0-5.59,0C11.6,52.32,11.57,52.3,11.47,52.25Z"/><path class="cls-1" d="M27.08,21A11.71,11.71,0,0,1,28,20a3.67,3.67,0,0,1,5.11,0,4,4,0,0,1,.42,5.2c-.51.65-1.11,1.23-1.68,1.83L28,31c-.72.75-1.15.75-1.85,0q-2.51-2.61-5-5.22a4,4,0,0,1-.44-5.38,3.67,3.67,0,0,1,5.41-.52C26.43,20.19,26.69,20.52,27.08,21Zm-.15,8.29c.73-.66,1.43-1.25,2.07-1.89,1-1,2-2.05,3-3.14a2.12,2.12,0,0,0-.21-3,2,2,0,0,0-2.83.23c-.37.38-.73.77-1.1,1.14a1,1,0,0,1-1.56,0c-.44-.43-.85-.89-1.29-1.32a1.81,1.81,0,0,0-1.64-.54,2.1,2.1,0,0,0-1.16,3.5C23.75,26,25.4,27.64,26.93,29.25Z"/><path class="cls-1" d="M22.6,37H24.3v1.75H22.6Z"/><path class="cls-1" d="M31.55,38.77H29.82V37h1.73Z"/><path class="cls-1" d="M26.19,38.77V37h1.74v1.72Z"/><path class="cls-1" d="M26.22,40.62h1.7v1.75h-1.7Z"/><path class="cls-3" d="M26.93,29.25c-1.54-1.6-3.18-3.24-4.73-5a2.1,2.1,0,0,1,1.16-3.5,1.81,1.81,0,0,1,1.64.54c.44.43.85.89,1.29,1.32a1,1,0,0,0,1.56,0c.38-.37.73-.76,1.1-1.14a2,2,0,0,1,2.83-.23,2.12,2.12,0,0,1,.21,3c-1,1.08-2,2.12-3,3.14C28.36,28,27.66,28.59,26.93,29.25Z"/></g></g></svg>