<svg xmlns="http://www.w3.org/2000/svg" viewBox="0 0 48.96 48.96"><defs><style>.cls-1{fill:#030302;}.cls-2{fill:#bc832c;}.cls-3{fill:#ffc144;}</style></defs><title>Asset 8</title><g id="Layer_2" data-name="Layer 2"><g id="Layer_1-2" data-name="Layer 1"><path class="cls-1" d="M5.16,49a4.51,4.51,0,0,1-1.29-3,40.84,40.84,0,0,1,0-6.11,5.3,5.3,0,0,1,2.58-4c1.49-.94,3-1.83,4.58-2.65a5.54,5.54,0,0,1,5.44.05q2.2,1.19,4.34,2.5a5.48,5.48,0,0,1,2.77,4.64c.07,1.8,0,3.6,0,5.4a5.3,5.3,0,0,1-.77,2.58,1.83,1.83,0,0,1-.59.67H21.8a1,1,0,0,1-.49-.75,5,5,0,0,1,.25-.51,4.07,4.07,0,0,0,.66-2.11c0-1.72,0-3.44,0-5.16a4.15,4.15,0,0,0-2.15-3.56c-1.38-.82-2.76-1.64-4.17-2.41a4.26,4.26,0,0,0-4.37,0q-2,1.14-4,2.31a4.32,4.32,0,0,0-2.25,3.89c0,1.26,0,2.52,0,3.77a5.45,5.45,0,0,0,.81,3.42,1.3,1.3,0,0,1,.11.31,1.16,1.16,0,0,1-.44.75Z"/><path class="cls-1" d="M22.28,0a4.16,4.16,0,0,1,1.23,2.3,4.51,4.51,0,0,1,.14,1.23c0,1.61,0,3.22,0,4.83a5.69,5.69,0,0,1-3,5q-2,1.18-4,2.31a5.7,5.7,0,0,1-5.83,0C9.45,14.95,8,14.14,6.66,13.29a5.67,5.67,0,0,1-2.82-5c0-1.56,0-3.12,0-4.68A5.85,5.85,0,0,1,4.52.86,2.84,2.84,0,0,1,5.16,0h.57a1.16,1.16,0,0,1,.44.75A3.69,3.69,0,0,1,6,1.22a4.67,4.67,0,0,0-.71,2.58c0,1.48,0,3,0,4.44a4.3,4.3,0,0,0,2.21,3.87q2,1.21,4.09,2.36a4.2,4.2,0,0,0,4.24.06Q18,13.34,20.18,12a4,4,0,0,0,2-3.29c.08-1.16,0-2.32.05-3.48A6.88,6.88,0,0,0,21.36.89a.57.57,0,0,1,0-.13A1,1,0,0,1,21.8,0Z"/><path class="cls-1" d="M26.68,49a4.17,4.17,0,0,1-1.23-2.3,4.71,4.71,0,0,1-.14-1.28c0-1.59,0-3.19,0-4.78a5.69,5.69,0,0,1,3-5c1.3-.76,2.61-1.53,3.92-2.27a5.72,5.72,0,0,1,5.91,0c1.38.76,2.74,1.55,4.09,2.36a5.71,5.71,0,0,1,2.9,5.06c0,1.56,0,3.12,0,4.68a5.82,5.82,0,0,1-.67,2.7,3,3,0,0,1-.66.9h-.57a1.13,1.13,0,0,1-.44-.75,3.84,3.84,0,0,1,.21-.47,4.69,4.69,0,0,0,.7-2.58c0-1.46,0-2.93,0-4.39a4.33,4.33,0,0,0-2.25-3.94c-1.34-.79-2.68-1.58-4-2.33a4.28,4.28,0,0,0-4.41,0c-1,.55-2,1.11-2.93,1.69a9.31,9.31,0,0,0-1.76,1.12,4,4,0,0,0-1.53,2.75c-.15,1.27,0,2.54-.07,3.81A6.56,6.56,0,0,0,27.57,48a.86.86,0,0,1,.07.18,1,1,0,0,1-.49.75Z"/><path class="cls-1" d="M43.8,0a4.51,4.51,0,0,1,1.29,3,40.11,40.11,0,0,1,0,6.11,5.39,5.39,0,0,1-2.7,4.13c-1.41.86-2.84,1.7-4.29,2.48a5.68,5.68,0,0,1-5.78-.06q-2-1.13-4-2.31A5.62,5.62,0,0,1,25.32,8.5c-.05-1.75,0-3.5,0-5.26A5.34,5.34,0,0,1,26.12.63,1.67,1.67,0,0,1,26.68,0h.48a1,1,0,0,1,.49.75,5.08,5.08,0,0,1-.25.51,4.06,4.06,0,0,0-.66,2.11c0,1.72-.05,3.44,0,5.15A4.1,4.1,0,0,0,28.81,12c1.42.87,2.87,1.7,4.33,2.5a4,4,0,0,0,3.39.3,2,2,0,0,0,.79-.31c1.41-.8,2.82-1.59,4.21-2.43A4.29,4.29,0,0,0,43.7,8.25c0-1.19,0-2.39,0-3.58A5.7,5.7,0,0,0,42.88,1a1,1,0,0,1-.09-.27A1.13,1.13,0,0,1,43.22,0Z"/><path class="cls-1" d="M0,14.92A3.86,3.86,0,0,1,2.42,14a5.62,5.62,0,0,1,3.53.75c1.33.77,2.68,1.52,4,2.31a5.74,5.74,0,0,1,3,5.2q0,2.25,0,4.49a5.74,5.74,0,0,1-3,5.2c-1.34.8-2.69,1.57-4,2.33a5.72,5.72,0,0,1-5,.36A2.08,2.08,0,0,1,0,34v-.57A1.15,1.15,0,0,1,.75,33l.35.13a4.47,4.47,0,0,0,4.33-.27c1.23-.73,2.48-1.43,3.71-2.15a4.38,4.38,0,0,0,2.34-4q0-2.22,0-4.45a4.35,4.35,0,0,0-2.31-4L5.31,16A4.76,4.76,0,0,0,4,15.49,4.86,4.86,0,0,0,.75,16,1.16,1.16,0,0,1,0,15.49Z"/><path class="cls-1" d="M49,34a3.74,3.74,0,0,1-2.37.94,5.54,5.54,0,0,1-3.5-.7c-1.41-.8-2.82-1.59-4.21-2.44a5.63,5.63,0,0,1-2.85-5q0-2.39,0-4.78a5.62,5.62,0,0,1,2.83-4.95c1.39-.86,2.82-1.67,4.25-2.46a5.69,5.69,0,0,1,5.1-.26A1.3,1.3,0,0,1,49,15v.48a1.16,1.16,0,0,1-.76.46l-.39-.16a4.39,4.39,0,0,0-4.2.25c-1.27.75-2.56,1.47-3.84,2.22a4.31,4.31,0,0,0-2.3,3.91q0,2.32,0,4.63a4.29,4.29,0,0,0,2.26,3.88c1.33.78,2.67,1.54,4,2.31a4.45,4.45,0,0,0,2,.59A5.59,5.59,0,0,0,48.21,33a1.15,1.15,0,0,1,.75.45Z"/><path class="cls-1" d="M49,23.81v1.43a10.63,10.63,0,0,1-.76,1.54L48,27a3.77,3.77,0,0,1-6.57-2.71A3.72,3.72,0,0,1,44,20.92a3.76,3.76,0,0,1,4.24,1.26A7.64,7.64,0,0,1,49,23.81Zm-6.12.68a2.34,2.34,0,1,0,2.32-2.37A2.35,2.35,0,0,0,42.84,24.49Z"/><path class="cls-1" d="M0,25.25V23.72a10.34,10.34,0,0,1,.76-1.54l.3-.31a3.78,3.78,0,0,1,6.5,2.82A3.74,3.74,0,0,1,5,28.06,3.78,3.78,0,0,1,.76,26.78,10.26,10.26,0,0,1,0,25.25Zm6.13-.77A2.34,2.34,0,1,0,3.8,26.83,2.35,2.35,0,0,0,6.13,24.47Z"/><path class="cls-1" d="M20.93,16c-.18-.61-.1-.82.45-1.13a5.81,5.81,0,0,1,6.16,0l3.8,2.2a5.62,5.62,0,0,1,3,4.78,40.54,40.54,0,0,1,0,5.73,5.39,5.39,0,0,1-2.62,4.23c-1.49.94-3,1.83-4.58,2.65a5.55,5.55,0,0,1-5.44-.07c-1.47-.79-2.91-1.63-4.33-2.5a5.48,5.48,0,0,1-2.76-4.54,41,41,0,0,1,0-5.78,5.52,5.52,0,0,1,2.68-4.29c.33-.22.68-.41,1-.61.52-.3.73-.27,1.18.15a.74.74,0,0,1-.31,1c-.27.15-.23.24,0,.43q2.16,2.13,4.3,4.28l3.07,3.08a2.26,2.26,0,0,0-.75-3c-.48-.35-.61-.75-.34-1.12s.68-.38,1.18,0a3.78,3.78,0,0,1,1.18,4.91c-.12.22-.17.35,0,.56q1.63,1.58,3.21,3.21c.22.22.33.19.53,0A4.69,4.69,0,0,0,33,26.8a1.72,1.72,0,0,0-.58-1.46c-2.23-2.18-4.43-4.4-6.63-6.61-.09-.09-.18-.18-.27-.27a.72.72,0,0,1,0-1,.71.71,0,0,1,1,0c.1.08.18.18.27.27l5.78,5.78c.11.11.2.28.42.3,0-.54,0-1,0-1.55a4.4,4.4,0,0,0-2.3-4c-1.25-.73-2.51-1.44-3.76-2.18a4.43,4.43,0,0,0-4.83,0A.84.84,0,0,1,20.93,16Zm-4.83,9.55-.11.07c0,.41,0,.82,0,1.23a4.35,4.35,0,0,0,2.21,3.83c1.37.81,2.74,1.61,4.13,2.38a4.2,4.2,0,0,0,4.16.07c1.13-.58,2.21-1.26,3.32-1.89.24-.13.19-.21,0-.37q-1.51-1.5-3-3a.36.36,0,0,0-.52-.06,3.77,3.77,0,0,1-5.12-5.14.36.36,0,0,0-.08-.52c-.94-.93-1.87-1.87-2.81-2.8-.73-.73-.72-.73-1.38.11A5.18,5.18,0,0,0,16,22.94a1,1,0,0,0,.33.79q3.24,3.22,6.45,6.45a2.1,2.1,0,0,1,.35.39.71.71,0,0,1-1,.95,2.3,2.3,0,0,1-.35-.32l-3.92-3.92Zm9.31,1.08-3.06-3.06a2.3,2.3,0,0,0,3.06,3.06Z"/><path class="cls-2" d="M20.93,16a.84.84,0,0,0,1.16.11,4.43,4.43,0,0,1,4.83,0c1.25.73,2.51,1.45,3.76,2.18a4.4,4.4,0,0,1,2.3,4c0,.51,0,1,0,1.55-.22,0-.31-.18-.42-.3l-5.78-5.78c-.09-.09-.18-.19-.27-.27a.71.71,0,0,0-1,0,.72.72,0,0,0,0,1c.08.1.18.18.27.27,2.21,2.21,4.4,4.43,6.63,6.61A1.72,1.72,0,0,1,33,26.8,4.69,4.69,0,0,1,31.58,30c-.2.19-.31.23-.53,0q-1.59-1.62-3.21-3.21c-.22-.21-.16-.34,0-.56a3.78,3.78,0,0,0-1.18-4.91c-.5-.34-.91-.32-1.18,0s-.14.77.34,1.12a2.26,2.26,0,0,1,.75,3l-3.07-3.08q-2.14-2.15-4.3-4.28c-.19-.19-.23-.28,0-.43a.74.74,0,0,0,.31-1A15.62,15.62,0,0,1,20.93,16Z"/><path class="cls-3" d="M21.31,48.21H6.18a1.31,1.31,0,0,0-.11-.31,5.45,5.45,0,0,1-.81-3.42c0-1.26,0-2.52,0-3.77a4.32,4.32,0,0,1,2.25-3.89q2-1.18,4-2.31a4.26,4.26,0,0,1,4.37,0c1.41.77,2.79,1.58,4.17,2.41a4.15,4.15,0,0,1,2.15,3.56c.06,1.72,0,3.44,0,5.16a4.07,4.07,0,0,1-.66,2.11A5,5,0,0,0,21.31,48.21Zm-3-6.08a3.78,3.78,0,1,0-7.55,0,3.78,3.78,0,0,0,7.55,0Z"/><path class="cls-3" d="M6.18.75H21.31a.57.57,0,0,0,0,.13,6.88,6.88,0,0,1,.88,4.36c0,1.16,0,2.33-.05,3.48a4,4,0,0,1-2,3.29Q18,13.34,15.8,14.54a4.2,4.2,0,0,1-4.24-.06Q9.5,13.33,7.48,12.12A4.3,4.3,0,0,1,5.27,8.25c0-1.48,0-3,0-4.44A4.67,4.67,0,0,1,6,1.22,3.69,3.69,0,0,0,6.18.75Zm12.1,6.1a3.78,3.78,0,1,0-3.76,3.77A3.78,3.78,0,0,0,18.28,6.85Z"/><path class="cls-3" d="M42.79,48.21H30.13a3.29,3.29,0,0,0-.62-.51,2.91,2.91,0,0,1-1.2-2.33c0-2.69,0-5.38,0-8.07a9.31,9.31,0,0,1,1.76-1.12C31,35.61,32,35,33,34.5a4.28,4.28,0,0,1,4.41,0c1.36.76,2.7,1.54,4,2.33a4.33,4.33,0,0,1,2.25,3.94c0,1.46,0,2.93,0,4.39a4.69,4.69,0,0,1-.7,2.58A3.84,3.84,0,0,0,42.79,48.21ZM37,40.6a1.87,1.87,0,0,0-1.28-1.21c.06-.69-.15-1-.85-1A3.81,3.81,0,0,0,31,40.55a3.78,3.78,0,1,0,7.13.72C38,40.63,37.69,40.45,37,40.6Z"/><path class="cls-3" d="M28.31,37.31c0,2.69,0,5.38,0,8.07a2.91,2.91,0,0,0,1.2,2.33,3.29,3.29,0,0,1,.62.51H27.65a.87.87,0,0,0-.07-.18,6.56,6.56,0,0,1-.86-4.16c0-1.27-.08-2.55.07-3.81A4,4,0,0,1,28.31,37.31Z"/><path class="cls-3" d="M28.3.77H42.79a1,1,0,0,0,.09.27,5.7,5.7,0,0,1,.83,3.65c0,1.19,0,2.39,0,3.58a4.29,4.29,0,0,1-2.17,3.84c-1.39.84-2.8,1.63-4.21,2.43a2,2,0,0,1-.79.31c0-.18-.16-.22-.28-.29l-1-.59c-1.76-1-3.51-2.05-5.29-3a2.9,2.9,0,0,1-1.63-2.7C28.29,5.73,28.3,3.25,28.3.77Zm2.38,6.07a3.78,3.78,0,1,0,7.55,0,3.78,3.78,0,0,0-7.55,0Z"/><path class="cls-3" d="M28.3.77c0,2.48,0,5,0,7.45a2.9,2.9,0,0,0,1.63,2.7c1.78,1,3.53,2,5.29,3l1,.59c.12.07.27.11.28.29a4,4,0,0,1-3.39-.3c-1.46-.8-2.91-1.63-4.33-2.5a4.1,4.1,0,0,1-2.06-3.51c-.06-1.72,0-3.43,0-5.15a4.06,4.06,0,0,1,.66-2.11,5.08,5.08,0,0,0,.25-.51Z"/><path class="cls-3" d="M.76,22.18q0-3.11,0-6.23A4.86,4.86,0,0,1,4,15.49,4.76,4.76,0,0,1,5.31,16l3.88,2.24a4.35,4.35,0,0,1,2.31,4q0,2.22,0,4.45a4.38,4.38,0,0,1-2.34,4c-1.24.72-2.48,1.42-3.71,2.15a4.47,4.47,0,0,1-4.33.27L.75,33q0-3.12,0-6.24A3.78,3.78,0,0,0,5,28.06a3.74,3.74,0,0,0,2.6-3.37,3.78,3.78,0,0,0-6.5-2.82Z"/><path class="cls-3" d="M48.2,16q0,3.11,0,6.23A3.76,3.76,0,0,0,44,20.92a3.72,3.72,0,0,0-2.56,3.4A3.77,3.77,0,0,0,48,27l.23-.24q0,3.12,0,6.24a5.59,5.59,0,0,1-2.44.57,4.45,4.45,0,0,1-2-.59c-1.33-.77-2.68-1.53-4-2.31a4.29,4.29,0,0,1-2.26-3.88q0-2.32,0-4.63a4.31,4.31,0,0,1,2.3-3.91c1.28-.74,2.57-1.47,3.84-2.22a4.39,4.39,0,0,1,4.2-.25Z"/><path class="cls-2" d="M42.84,24.49a2.34,2.34,0,1,1,2.34,2.34A2.35,2.35,0,0,1,42.84,24.49Z"/><path class="cls-2" d="M6.13,24.47a2.34,2.34,0,1,1-2.34-2.35A2.35,2.35,0,0,1,6.13,24.47Z"/><path class="cls-2" d="M16.11,25.51l1.73,1.77,3.92,3.92a2.3,2.3,0,0,0,.35.32.71.71,0,0,0,1-.95,2.1,2.1,0,0,0-.35-.39Q19.54,27,16.31,23.73a1,1,0,0,1-.33-.79,5.18,5.18,0,0,1,.95-3.52c.65-.84.65-.84,1.38-.11.93.93,1.87,1.87,2.81,2.8a.36.36,0,0,1,.08.52,3.77,3.77,0,0,0,5.12,5.14.36.36,0,0,1,.52.06q1.49,1.52,3,3c.16.16.2.24,0,.37-1.11.62-2.19,1.3-3.32,1.89A4.2,4.2,0,0,1,22.33,33c-1.39-.77-2.77-1.57-4.13-2.38A4.35,4.35,0,0,1,16,26.81c0-.41,0-.82,0-1.23Z"/><path class="cls-2" d="M25.42,26.6a2.3,2.3,0,0,1-3.06-3.06Z"/><path class="cls-1" d="M18.28,42.12a3.78,3.78,0,1,1-3.75-3.78A3.78,3.78,0,0,1,18.28,42.12ZM14.5,39.77a2.35,2.35,0,1,0,2.36,2.36A2.33,2.33,0,0,0,14.5,39.77Z"/><path class="cls-1" d="M18.28,6.85a3.78,3.78,0,1,1-7.55,0,3.78,3.78,0,0,1,7.55,0ZM14.49,9.19a2.35,2.35,0,1,0,0-4.69,2.35,2.35,0,0,0,0,4.69Z"/><path class="cls-1" d="M37,40.6c.67-.15,1,0,1.11.67a3.8,3.8,0,0,1-1.77,4.1A3.78,3.78,0,0,1,31,40.55a3.81,3.81,0,0,1,3.89-2.2c.7.08.91.35.85,1-.27.45-.69.42-1.13.39a2.29,2.29,0,0,0-2.3,1.36,2.35,2.35,0,0,0,.46,2.6,2.34,2.34,0,0,0,4-2.07C36.66,41.27,36.63,40.88,37,40.6Z"/><path class="cls-2" d="M37,40.6c-.39.28-.36.66-.27,1.07a2.34,2.34,0,0,1-4,2.07,2.35,2.35,0,0,1-.46-2.6,2.29,2.29,0,0,1,2.3-1.36c.44,0,.86.06,1.13-.39A1.87,1.87,0,0,1,37,40.6Z"/><path class="cls-1" d="M30.68,6.84a3.78,3.78,0,1,1,3.75,3.78A3.78,3.78,0,0,1,30.68,6.84Zm3.77,2.35a2.35,2.35,0,1,0-2.35-2.33A2.32,2.32,0,0,0,34.45,9.19Z"/><path class="cls-2" d="M14.5,39.77a2.35,2.35,0,1,1,0,4.69,2.35,2.35,0,0,1,0-4.69Z"/><path class="cls-2" d="M14.49,9.19a2.35,2.35,0,1,1,2.37-2.31A2.33,2.33,0,0,1,14.49,9.19Z"/><path class="cls-2" d="M34.45,9.19a2.35,2.35,0,0,1,0-4.69,2.35,2.35,0,1,1,0,4.69Z"/></g></g></svg>