<svg xmlns="http://www.w3.org/2000/svg" viewBox="0 0 73.52 53.32"><defs><style>.cls-1{fill:#ae5e3c;}.cls-2{fill:#ffc144;}.cls-3{fill:#899835;}</style></defs><title>Asset 6</title><g id="Layer_2" data-name="Layer 2"><g id="Layer_1-2" data-name="Layer 1"><path d="M39.68,0c.84.18,1.7.32,2.53.55A16.54,16.54,0,0,1,54.54,16.63c0,.41,0,.82,0,1.23a7.4,7.4,0,0,0,1.36,4.83,7,7,0,0,1,0,8,7.92,7.92,0,0,0-1.41,4.21,11,11,0,0,1-.65,3A1.22,1.22,0,0,0,54,39a11.47,11.47,0,0,1,1.73,7.63A7.86,7.86,0,0,1,41.59,50.1c-1.54-2.17-3-4.42-4.45-6.63-.1-.15-.21-.28-.37-.52l-.5.71c-1.39,2.09-2.73,4.21-4.19,6.25a7.47,7.47,0,0,1-8,3.23,7.44,7.44,0,0,1-6.14-5.95,10.86,10.86,0,0,1,1.54-8.1,1.53,1.53,0,0,0,.15-1.4A14.35,14.35,0,0,1,19,34.48a6.23,6.23,0,0,0-1-3.24,7.45,7.45,0,0,1,0-9.15,5.69,5.69,0,0,0,1-3.55,18.65,18.65,0,0,1,1.18-8.14A16.33,16.33,0,0,1,33.42.14,2.71,2.71,0,0,0,33.84,0Z"/><path class="cls-1" d="M51.8,36.31A16.7,16.7,0,0,0,52,34.58a7.7,7.7,0,0,1,1.42-4.69,5.09,5.09,0,0,0,0-6.47A7.59,7.59,0,0,1,52,18.64c0-.82,0-1.64,0-2.46A14,14,0,0,0,42.81,3.37a19.29,19.29,0,0,0-8.12-.77C29,3,24.94,6,22.59,11.19a16.09,16.09,0,0,0-1.05,7.31,7.88,7.88,0,0,1-1.45,5,5,5,0,0,0,0,6.33,7.9,7.9,0,0,1,1.46,4.84,12.73,12.73,0,0,0,.2,1.64,13,13,0,0,1,6.69-3.19l-.67-.61a10.31,10.31,0,0,1-3.57-7c-.19-3.73-.1-7.48-.12-11.22a1.53,1.53,0,0,1,.1-.32c3.38.39,5.61-1.33,7.08-4.24.69.39,1.26.73,1.84,1.05A25.49,25.49,0,0,0,45.28,14c1,0,1.6-.45,1.62-1.24s-.57-1.3-1.62-1.32h-.86V9c3-.51,5,1.16,5,4.14q0,5.34,0,10.68a11.44,11.44,0,0,1-4,9,4.11,4.11,0,0,0-.32.37A12.85,12.85,0,0,1,51.8,36.31Z"/><path class="cls-2" d="M46.8,16.42a27.45,27.45,0,0,1-14.67-3.26,1.27,1.27,0,0,0-.22.16,8.53,8.53,0,0,1-4.86,3,.81.81,0,0,0-.42.64c0,2.46,0,4.92,0,7.38a8.89,8.89,0,0,0,5.74,8.08,14.63,14.63,0,0,0,6,.56,8.56,8.56,0,0,0,8.38-7.55A83.25,83.25,0,0,0,46.8,16.42Z"/><path class="cls-2" d="M22.79,38.91a8.9,8.9,0,0,0-2.08,3.62,7.37,7.37,0,0,0-.18,4.53,5.06,5.06,0,0,0,4.19,3.62A5.11,5.11,0,0,0,30,48.39c1.61-2.34,3.09-4.77,4.76-7.07,1-1.33.77-2.7.56-4.1a2.19,2.19,0,0,0-2.13-1.69,2.49,2.49,0,0,0-2.57,1.3,2.29,2.29,0,0,0,.47,2.69c.37.38.81.7,1.29,1.11L25.76,46l1.69,1.23L25.64,49c-.18-.17-.38-.36-.58-.55-.75-.77-1.78-1.42-2.17-2.34s-.1-2.07-.1-3.11C22.78,41.72,22.79,40.4,22.79,38.91Z"/><path class="cls-2" d="M41.18,40.7c.45-.42.81-.74,1.15-1.09a2.33,2.33,0,0,0,0-3.47,2.75,2.75,0,0,0-3.74.26c-.56.67-.86,3.33-.39,4.05,1.85,2.8,3.66,5.62,5.62,8.34a4.85,4.85,0,0,0,5.13,1.88,5,5,0,0,0,4.1-3.8,8.27,8.27,0,0,0-1-6.14c-.32-.6-.76-1.14-1.14-1.71-.16,2.27-.16,4.45-.17,6.62a1.15,1.15,0,0,1-.15.71c-.89.94-1.82,1.85-2.69,2.71L46,47.26l1.59-1.41Z"/><path class="cls-3" d="M45.35,35.67l-.15.16a5,5,0,0,1-.25,4.64L48.17,43c0-2.12,0-4.06,0-6a.47.47,0,0,0-.22-.35C47.08,36.34,46.21,36,45.35,35.67Z"/><path class="cls-3" d="M28.3,35.85l-.14-.16-2.28.84a.78.78,0,0,0-.54.87c0,1.64,0,3.28,0,4.92a6.58,6.58,0,0,0,.08.67l3.17-2.54A5,5,0,0,1,28.3,35.85Z"/><path d="M71,26.64h2.49v2.49L71,29.23l0,0V26.61Z"/><path d="M68.43,29.23H66V26.64h2.41v2.62Z"/><path d="M68.43,26.64l.11-2.49H71v2.49l0,0H68.42Z"/><path d="M62.11,38v2.57H59.69V38l0,0h2.48Z"/><path d="M62.11,35.56h2.55V38H62.11l0,0V35.53Z"/><path d="M59.69,38H57.12V35.56h2.57l0,0V38Z"/><path d="M59.69,35.56V33h2.42v2.55l0,0H59.66Z"/><path d="M71,29.23v2.42H68.54l-.11-2.42,0,0h2.64Z"/><path d="M5.09,26.64H7.5v2.59H5.09l0,0V26.64Z"/><path d="M2.49,29.23H0v-2.6H2.49l0,0v2.64Z"/><path d="M2.49,26.64V24.14H5l.12,2.49v0H2.47Z"/><path d="M13.83,38v2.57H11.41V38l0,0h2.48Z"/><path d="M13.83,35.56h2.57V38H13.83l0,0V35.53Z"/><path d="M11.41,38H8.86V35.56h2.55l0,0V38Z"/><path d="M11.41,35.56V33h2.42v2.55l0,0H11.38Z"/><path d="M5.09,29.23,5,31.68H2.49V29.23l0,0H5.11Z"/><path d="M39.38,25.41h2.46a4.94,4.94,0,0,1-2.43,4.29,4.81,4.81,0,0,1-5.36,0,4.92,4.92,0,0,1-2.36-4.24h2.42c.45,1.78,1.22,2.48,2.73,2.51C38.12,27.94,38.9,27.12,39.38,25.41Z"/><path d="M35.43,21.52H33c0-.1-.06-.27-.16-.35-.37-.3-.77-.79-1.16-.8s-.8.48-1.2.75c-.22.15-.42.41-.64.43-.63.06-1.27,0-1.89,0a3.62,3.62,0,0,1,3.46-3.77A3.7,3.7,0,0,1,35.43,21.52Z"/><path d="M45.6,21.57c-.73,0-1.47,0-2.2,0-.13,0-.23-.27-.37-.38-.38-.3-.74-.73-1.17-.82s-1,.29-1.23.83a.69.69,0,0,1-.45.37c-.68,0-1.37,0-2,0a3.61,3.61,0,0,1,3.45-3.77A3.72,3.72,0,0,1,45.6,21.57Z"/></g></g></svg>