<svg xmlns="http://www.w3.org/2000/svg" viewBox="0 0 50.35 50.35"><defs><style>.cls-1{fill:#030303;}.cls-2{fill:#899835;}.cls-3{fill:#ffc144;}</style></defs><title>Asset 1</title><g id="Layer_2" data-name="Layer 2"><g id="Layer_1-2" data-name="Layer 1"><path class="cls-1" d="M47.2,50.35H45.43s-.07-.08-.11-.08a20,20,0,0,1-6-2.25,61.84,61.84,0,0,1-7.86-5.08c-.15-.11-.28-.28-.53-.28,0,1.37,0,2.72,0,4.08a1.17,1.17,0,0,1-1.29,1.33q-4.42,0-8.84,0a1.17,1.17,0,0,1-1.3-1.32c0-1.23,0-2.46,0-3.68,0-.14.06-.29-.07-.43-.38.25-.77.48-1.14.74-.71.51-1.39,1.07-2.12,1.56a49.89,49.89,0,0,1-5.32,3.19A26,26,0,0,1,7,49.78c-.71.23-1.44.38-2.16.56H3c0-.12-.16-.1-.25-.13A3.4,3.4,0,0,1,.11,47.49c0-.08,0-.17-.11-.19V45.72s.08-.07.09-.1a12.48,12.48,0,0,1,1.44-4.56,7.05,7.05,0,0,0,.77-3.82,8,8,0,0,1,.05-2,1.09,1.09,0,0,1,1-.9A1.19,1.19,0,0,1,4.48,35c.05.11,0,.28.18.33.09-.12.19-.25.28-.39,1.24-1.89,2.57-3.72,4-5.5.39-.5.78-1,1.2-1.49a1.07,1.07,0,0,1,1.38-.28,1.12,1.12,0,0,1,.61,1.18,1.8,1.8,0,0,1-.44.81C10.75,30.84,9.84,32,9,33.14s-1.65,2.27-2.41,3.48c.72.06.91.12,1.14.37a1.16,1.16,0,0,1-.43,1.84c-.88.5-1.78,1-2.67,1.46a1,1,0,0,0-.46.48c-.34.78-.73,1.54-1,2.33a8.88,8.88,0,0,0-.78,3.37c0,1.16.49,1.59,1.65,1.56a8.77,8.77,0,0,0,3-.69A52.17,52.17,0,0,0,19.27,39.8a.47.47,0,0,0,.19-.42c0-1.57,0-3.15,0-4.72,0-.3-.12-.35-.38-.35-.56,0-1.11,0-1.67,0-1,0-1.38-.43-1.39-1.38s0-2.13,0-3.19a1.45,1.45,0,0,0-.44-1.13A99.41,99.41,0,0,1,4.83,15.24c-.06-.09-.09-.21-.26-.23a1.19,1.19,0,0,1-.71.9c-.81.32-1.55-.26-1.57-1.25s0-2.1,0-3.15A2.18,2.18,0,0,0,2,10.44a23.89,23.89,0,0,1-1.63-4A6.43,6.43,0,0,0,0,4.92V3c.12,0,.1-.16.12-.25A3.33,3.33,0,0,1,3,.1c.08,0,.16,0,.21-.1H4.82c0,.07.08.09.15.1a14,14,0,0,1,3.35,1,43.8,43.8,0,0,1,8.36,4.73c.61.41,1.21.84,1.8,1.28A1.11,1.11,0,0,1,19,8.23a1.1,1.1,0,0,1-.78.87A1.25,1.25,0,0,1,17,8.83c-.85-.59-1.68-1.2-2.54-1.77A40.55,40.55,0,0,0,7.37,3.12a9.57,9.57,0,0,0-3.3-.85c-1.28,0-1.76.44-1.78,1.72a3.32,3.32,0,0,0,0,.34A15.28,15.28,0,0,0,3.6,8.48a3.38,3.38,0,0,0,2,2.12,5.45,5.45,0,0,1,.78.42c.4.23.81.44,1.18.7a1.1,1.1,0,0,1-.63,2c-.1,0-.22-.07-.33.05a92,92,0,0,0,9.43,12c0-1.54,0-2.94,0-4.35a3.24,3.24,0,0,1,1.38-2.79,13.26,13.26,0,0,1,15.29-.17,3.44,3.44,0,0,1,1.62,3.06q0,1.87,0,3.74c0,.13-.07.29.08.42a94.86,94.86,0,0,0,9.36-11.94c-.82,0-1.23-.24-1.38-.79a1.19,1.19,0,0,1,.7-1.41c.23-.13.47-.24.69-.38.77-.49,1.76-.69,2.31-1.42a9.65,9.65,0,0,0,1.17-2.48A8.59,8.59,0,0,0,48,3.74c-.06-1-.51-1.48-1.57-1.46a7.48,7.48,0,0,0-2.4.43,30.5,30.5,0,0,0-5.12,2.41c-2,1.14-3.84,2.43-5.69,3.76a1.14,1.14,0,0,1-1,.22,1.11,1.11,0,0,1-.83-.88A1.16,1.16,0,0,1,32,7c1.34-1,2.7-1.92,4.1-2.79A32.65,32.65,0,0,1,43.42.54c.66-.21,1.34-.36,2-.54H47.1c.06.11.17.08.26.1a3.23,3.23,0,0,1,2.79,2.49c0,.2,0,.41.2.56V4.92c-.17.11-.13.3-.15.44a13,13,0,0,1-1.36,4,6.44,6.44,0,0,0-.78,3.57,8.5,8.5,0,0,1-.05,2.2A1.08,1.08,0,0,1,47,16a1.19,1.19,0,0,1-1.13-.63c-.07-.12,0-.31-.21-.37-.78,1.12-1.52,2.28-2.37,3.36-1,1.26-1.93,2.59-2.94,3.85a73.88,73.88,0,0,1-5.54,6.24,1.58,1.58,0,0,0-.52,1.25c0,1.08,0,2.16,0,3.24A1.19,1.19,0,0,1,33,34.32c-.56,0-1.11,0-1.67,0-.31,0-.42.07-.42.4q0,2.29,0,4.57a.68.68,0,0,0,.32.61A74.6,74.6,0,0,0,38,44.62a34,34,0,0,0,5.33,2.7A9.52,9.52,0,0,0,46.4,48c1.11,0,1.57-.39,1.62-1.48a5,5,0,0,0-.11-1.22,19.1,19.1,0,0,0-1.76-4.67.88.88,0,0,0-.43-.37c-.89-.49-1.78-1-2.66-1.46a1.16,1.16,0,0,1-.66-1.38c.15-.55.57-.81,1.29-.79,0,0,0,0,.08-.07-1.43-2.2-3-4.3-4.62-6.35a6.56,6.56,0,0,1-.79-1.06,1.12,1.12,0,0,1,.51-1.54c.53-.26,1-.1,1.53.49q2.66,3.28,5,6.8a1,1,0,0,0,.38.43,1.12,1.12,0,0,1,.68-.95c.81-.36,1.6.23,1.61,1.24s0,2.26,0,3.39a1.47,1.47,0,0,0,.17.7,27.89,27.89,0,0,1,1.37,3.14,22.36,22.36,0,0,1,.74,2.92V47.3c-.16.12-.14.32-.18.48a3.37,3.37,0,0,1-1.44,2A7.32,7.32,0,0,1,47.2,50.35ZM18.3,24.68c0,1,0,2.1,0,3.14a.65.65,0,0,0,.16.54c2.1,2.12,4.22,4.21,6.43,6.21.21.19.34.22.57,0,2.19-2,4.3-4.08,6.37-6.2a.7.7,0,0,0,.22-.52q0-3.19,0-6.39a1.33,1.33,0,0,0-.64-1.18A11,11,0,0,0,19,20.24a1.46,1.46,0,0,0-.71,1.35C18.3,22.62,18.3,23.65,18.3,24.68Zm6.86,21.05h0c1,0,2,0,3,0,.34,0,.46-.12.45-.46,0-1.39,0-2.78,0-4.18a.65.65,0,0,0-.25-.55c-.95-.78-1.89-1.57-2.82-2.37a.45.45,0,0,0-.71,0c-.91.81-1.91,1.52-2.81,2.35a.73.73,0,0,0-.27.59c0,1.38,0,2.75,0,4.13,0,.4.15.5.52.5C23.22,45.73,24.19,45.74,25.15,45.74Zm3.45-8c0-.93,0-1.76,0-2.59a.31.31,0,0,0-.07-.22c-.1-.08-.18,0-.24.1a10,10,0,0,1-1.14,1.07.26.26,0,0,0,0,.45A11.66,11.66,0,0,0,28.6,37.72Zm-6.81-2.89v2.93c.53-.45,1-.83,1.42-1.2.2-.17.14-.29,0-.43ZM32,31.58a.89.89,0,0,0-.39.42C32,32,32,32,32,31.58Zm-13.61,0c-.08.47-.06.48.4.38A.74.74,0,0,0,18.36,31.58Z"/><path class="cls-2" d="M18.3,24.68c0-1,0-2.06,0-3.09A1.46,1.46,0,0,1,19,20.24a11,11,0,0,1,12.39.05A1.33,1.33,0,0,1,32,21.48q0,3.19,0,6.39a.7.7,0,0,1-.22.52c-2.07,2.12-4.18,4.2-6.37,6.2-.22.2-.36.18-.57,0-2.21-2-4.33-4.1-6.43-6.21a.65.65,0,0,1-.16-.54C18.29,26.78,18.3,25.73,18.3,24.68Z"/><path class="cls-2" d="M25.15,45.74c-1,0-1.93,0-2.9,0-.37,0-.52-.09-.52-.5,0-1.38,0-2.75,0-4.13a.73.73,0,0,1,.27-.59c.9-.83,1.9-1.54,2.81-2.35a.45.45,0,0,1,.71,0c.93.8,1.87,1.59,2.82,2.37a.65.65,0,0,1,.25.55c0,1.39,0,2.78,0,4.18,0,.34-.12.46-.45.46-1,0-2,0-3,0Z"/><path class="cls-2" d="M28.6,37.72a11.66,11.66,0,0,1-1.49-1.19.26.26,0,0,1,0-.45A10,10,0,0,0,28.29,35c.07-.06.14-.17.24-.1a.31.31,0,0,1,.07.22C28.6,36,28.6,36.79,28.6,37.72Z"/><path class="cls-2" d="M21.79,34.83l1.41,1.3c.16.15.22.27,0,.43-.45.37-.9.76-1.42,1.2Z"/><path class="cls-2" d="M32,31.58c.05.43.05.43-.39.42A.89.89,0,0,1,32,31.58Z"/><path class="cls-2" d="M18.36,31.58a.74.74,0,0,1,.4.38C18.3,32.07,18.29,32.05,18.36,31.58Z"/><path class="cls-1" d="M30.31,9.73a5.14,5.14,0,1,1-5.14-5.14A5.17,5.17,0,0,1,30.31,9.73ZM25.19,6.88A2.85,2.85,0,1,0,28,9.73,2.84,2.84,0,0,0,25.19,6.88Z"/><path class="cls-3" d="M25.19,6.88A2.85,2.85,0,1,1,22.32,9.7,2.84,2.84,0,0,1,25.19,6.88Z"/></g></g></svg>