<svg xmlns="http://www.w3.org/2000/svg" viewBox="0 0 53.84 53.82"><defs><style>.cls-1{fill:#020202;}.cls-2{fill:#899835;}.cls-3{fill:#ae5e3c;}.cls-4{fill:#ffc144;}</style></defs><title>Asset 7</title><g id="Layer_2" data-name="Layer 2"><g id="Layer_1-2" data-name="Layer 1"><path class="cls-1" d="M0,24.72c0-3.18.07-6.36,0-9.54a6.21,6.21,0,0,1,6.54-6.5,15.27,15.27,0,0,0,3.14-.06,4.17,4.17,0,0,0,3.15-2.32c.48-.93.93-1.87,1.41-2.8A6,6,0,0,1,19.89,0q5.72,0,11.44,0A6,6,0,0,1,37,3.48c.46.9.89,1.81,1.36,2.71a4.29,4.29,0,0,0,4.05,2.5h5.15a6.07,6.07,0,0,1,6.26,6.26c0,6.56,0,13.12,0,19.68a5.91,5.91,0,0,1-3.72,5.73c-1.84.83-3.7,1.6-5.56,2.39a4.28,4.28,0,0,0-2.86,4.35,6.24,6.24,0,0,1-2.9,5.81,5.51,5.51,0,0,1-3,.91c-5.89,0-11.79,0-17.68,0a6,6,0,0,1-5.92-5.93,10.54,10.54,0,0,0-.07-1.78,4.22,4.22,0,0,0-2.54-3.22C7.72,42,5.86,41.26,4,40.47a6.09,6.09,0,0,1-4-6Q0,29.6,0,24.72ZM26.91,13.9c0-.09,0-.18,0-.27,0-.66,0-.66.65-.53a3.35,3.35,0,0,1,2.79,3.1,2.15,2.15,0,0,0,.89,1.89,2.54,2.54,0,0,1-.06,4c-1,.85-.76,1.83-.8,2.95l1.54-1.32a7.1,7.1,0,0,0,1.35-10,1.69,1.69,0,0,1-.31-.95A6.06,6.06,0,0,0,27.13,7c-1.68,0-3.36,0-5,0a3,3,0,0,0-3,2.81A3.06,3.06,0,0,0,21.77,13c.8.11.8.11.84.89a1.87,1.87,0,0,0,0,.32c0,.38,0,.56-.49.58a1.33,1.33,0,0,0-1.11.69,16.32,16.32,0,0,0-1.77,4.4c-.06.27,0,.39.28.46.62.19,1.23.42,1.85.6a.45.45,0,0,1,.37.53c0,.83,0,1.66,0,2.49A2.07,2.07,0,0,0,23.8,26h1.79C27,26,27,26,26.93,27.47c0,.23-.06.32-.3.31s-.76,0-1.14,0-.3.07-.31.31a3,3,0,0,0,.49,2c.46.62.82,1.33,1.25,2,.54-.91,1-1.73,1.53-2.54a1.36,1.36,0,0,0,.21-.76c0-1.68.07-3.37,0-5a2.85,2.85,0,0,1,1.15-2.75,1.16,1.16,0,0,0,.55-1.4c-.23-.63-.79-.61-1.32-.57-.34,0-.37-.13-.37-.41,0-.74,0-1.48,0-2.22a1.63,1.63,0,0,0-1.26-1.63c-.45-.09-.53-.3-.48-.68A1.37,1.37,0,0,0,26.91,13.9ZM36.47,52a4.17,4.17,0,0,0,2.27-1.25A4.82,4.82,0,0,0,40,47.09a6,6,0,0,1,3.94-6c1.84-.78,3.69-1.55,5.51-2.37a4.2,4.2,0,0,0,2.68-4.09q0-9.9,0-19.8a4.32,4.32,0,0,0-4.49-4.46c-1.77,0-3.54,0-5.31,0A5.91,5.91,0,0,1,36.9,7.1c-.5-.94-.95-1.9-1.43-2.85a4.3,4.3,0,0,0-4.09-2.51H19.87a4.29,4.29,0,0,0-4.09,2.52c-.51,1-1,2-1.52,3a5.82,5.82,0,0,1-4.4,3.08,23.6,23.6,0,0,1-3.52.08A4.35,4.35,0,0,0,1.76,15q0,9.76,0,19.52a4.34,4.34,0,0,0,2.88,4.34c1.94.83,3.89,1.63,5.8,2.51a5.86,5.86,0,0,1,3.33,4.22A12.07,12.07,0,0,1,13.91,48a4.25,4.25,0,0,0,3.46,4V40.83c0-.9,0-.89-.91-1L16,39.73A12.89,12.89,0,0,1,5.36,28.25a68.85,68.85,0,0,1-.09-9.48,5.09,5.09,0,0,1,4-4.74A3.54,3.54,0,0,1,13.87,17a13.69,13.69,0,0,1,0,1.9,3.12,3.12,0,0,1-1,2.43,2.2,2.2,0,0,0-.74,1.95,6.46,6.46,0,0,0,7.38,6.19c1.18-.19,2.35-.4,3.53-.57.34,0,.43-.19.38-.49s.16-.62-.39-.71a3.68,3.68,0,0,1-3-3A10.2,10.2,0,0,1,20,22.69a.42.42,0,0,0-.36-.49c-.62-.18-1.23-.42-1.85-.6a.48.48,0,0,1-.41-.56,14.37,14.37,0,0,1,2.21-6.54c.18-.32.15-.41-.12-.6A4.71,4.71,0,0,1,17.6,8.56a4.79,4.79,0,0,1,4.52-3.34c1.66,0,3.33,0,5,0A7.8,7.8,0,0,1,34.66,12a2.52,2.52,0,0,0,.3,1.13,8.78,8.78,0,0,1-1.7,11.72c-.7.6-1.36,1.25-2.11,1.78a1.69,1.69,0,0,0-.76,1.74c0,.3.07.44.4.49.82.11,1.64.27,2.46.4a8.36,8.36,0,0,0,3.49.09,6.6,6.6,0,0,0,5-6.28,2,2,0,0,0-.67-1.7,3.31,3.31,0,0,1-1.08-2.62c0-.47,0-.94,0-1.41A3.5,3.5,0,0,1,44,13.93a5.21,5.21,0,0,1,4.62,5.33q0,3.71,0,7.43a12.12,12.12,0,0,1-.55,3.68c-1.75,5.49-5.44,8.7-11.19,9.46-.36,0-.42.19-.42.51,0,3.34,0,6.69,0,10ZM22.87,39.15a.61.61,0,0,1-.15-.44c-.23-2.25-.46-4.49-.67-6.74-.11-1.21-.1-1.23-1.31-1a8.39,8.39,0,0,1-5-.27c-.34-.14-.38.06-.45.29-.55,1.9-1.1,3.81-1.68,5.7-.12.38,0,.49.32.62a10.93,10.93,0,0,0,4.6.84c.45,0,.56.09.56.55,0,4.27,0,8.53,0,12.8,0,.45.1.56.56.56q7.27,0,14.53,0c.45,0,.56-.11.56-.56,0-4.28,0-8.57,0-12.85,0-.41.1-.51.51-.5a11.06,11.06,0,0,0,4.7-.86c.28-.11.39-.22.28-.55-.58-1.91-1.14-3.84-1.69-5.76-.08-.29-.17-.43-.51-.27a6.41,6.41,0,0,1-1.56.41,11.1,11.1,0,0,1-4-.3c-.39-.07-.53,0-.56.41-.14,1.64-.32,3.27-.48,4.91l-.31,3.06c-1.31-1.32-2.55-2.53-3.75-3.78-.31-.33-.48-.32-.79,0C25.33,36.7,24.09,37.92,22.87,39.15Zm19-2.9a11.45,11.45,0,0,0,5-8.89c.07-2.82,0-5.64,0-8.46a3.43,3.43,0,0,0-3.51-3.27,1.74,1.74,0,0,0-1.68,1.55c-.14,1.48,0,2.86,1.35,3.8a2.13,2.13,0,0,1,.23.23.42.42,0,0,1,.15.33,16.9,16.9,0,0,1-.15,3.14,8.13,8.13,0,0,1-3,4.81c-.16.13-.34.21-.25.51C40.63,32.06,41.23,34.13,41.85,36.25ZM7,23.16H7c0,1.32-.06,2.64,0,4A11.55,11.55,0,0,0,11.59,36c.32.25.43.22.55-.18q.8-2.84,1.66-5.66a.56.56,0,0,0-.22-.72,8.2,8.2,0,0,1-3.17-6.54,2.87,2.87,0,0,1,1.11-2.66,1.6,1.6,0,0,0,.65-1.31c0-.54,0-1.09,0-1.63a1.73,1.73,0,0,0-1.71-1.68A3.45,3.45,0,0,0,7,19C6.95,20.37,7,21.77,7,23.16ZM29.7,35.46c.17-1.64.32-3.13.46-4.61,0-.11.09-.27-.06-.33s-.21.09-.27.19l-1.67,2.78c-.08.13-.12.24,0,.37C28.66,34.36,29.13,34.86,29.7,35.46Zm-5.56,0c.55-.56,1-1,1.49-1.5.2-.19.13-.32,0-.5-.53-.86-1-1.73-1.56-2.59-.08-.13-.12-.37-.32-.31s-.09.28-.08.42C23.83,32.39,24,33.84,24.14,35.42Z"/><path class="cls-1" d="M4.37,46.88c0-.47,0-.93,0-1.4,0-.3.09-.35.36-.35,1.38,0,1.38,0,1.38,1.32,0,.14,0,.29,0,.43H4.37Z"/><path class="cls-1" d="M47.76,46.88c0-.47,0-.93,0-1.4,0-.3.09-.35.36-.35,1.38,0,1.38,0,1.38,1.32,0,.14,0,.29,0,.43H47.76Z"/><path class="cls-1" d="M4.37,48.6c-.47,0-.93,0-1.4,0-.3,0-.35-.1-.35-.36,0-1.38,0-1.38,1.32-1.38h.41V48.6Z"/><path class="cls-1" d="M6.09,46.88c.47,0,.93,0,1.4,0,.29,0,.35.09.35.36,0,1.38,0,1.38-1.32,1.38H6.09V46.86Z"/><path class="cls-1" d="M47.76,48.6c-.47,0-.93,0-1.4,0-.3,0-.35-.1-.35-.36,0-1.38,0-1.38,1.32-1.38h.41V48.6Z"/><path class="cls-1" d="M49.48,46.88c.47,0,.93,0,1.4,0,.29,0,.35.09.35.36,0,1.38,0,1.38-1.32,1.38h-.43V46.86Z"/><path class="cls-1" d="M6.09,48.6c0,.47,0,.93,0,1.4,0,.3-.09.35-.36.35-1.38,0-1.38,0-1.38-1.32,0-.14,0-.29,0-.43v0H6.1Z"/><path class="cls-1" d="M49.48,48.6c0,.47,0,.93,0,1.4,0,.3-.09.35-.36.35-1.38,0-1.38,0-1.38-1.32,0-.14,0-.29,0-.43v0H49.5Z"/><path class="cls-1" d="M43.41,5.21c0,.47,0,.93,0,1.4,0,.3-.09.35-.36.35-1.38,0-1.38,0-1.38-1.32,0-.14,0-.29,0-.43h1.72Z"/><path class="cls-1" d="M8.69,5.21c0,.47,0,.93,0,1.4,0,.3-.09.35-.36.35C7,7,7,7,7,5.64c0-.14,0-.29,0-.43H8.69Z"/><path class="cls-1" d="M43.41,3.48c.47,0,.93,0,1.4,0,.3,0,.35.1.35.36,0,1.38,0,1.38-1.32,1.38h-.41V3.48Z"/><path class="cls-1" d="M41.69,5.21c-.47,0-.93,0-1.4,0-.29,0-.35-.09-.35-.36,0-1.38,0-1.38,1.32-1.38h.43V5.22Z"/><path class="cls-1" d="M8.69,3.48c.47,0,.93,0,1.4,0,.3,0,.35.1.35.36,0,1.38,0,1.38-1.32,1.38H8.71V3.48Z"/><path class="cls-1" d="M7,5.21c-.47,0-.93,0-1.4,0-.29,0-.35-.09-.35-.36,0-1.38,0-1.38,1.32-1.38H7V5.22Z"/><path class="cls-1" d="M41.69,3.48c0-.47,0-.93,0-1.4,0-.3.09-.35.36-.35,1.38,0,1.38,0,1.38,1.32,0,.14,0,.29,0,.43v0H41.67Z"/><path class="cls-1" d="M7,3.48C7,3,7,2.55,7,2.09c0-.3.09-.35.36-.35,1.38,0,1.38,0,1.38,1.32,0,.14,0,.29,0,.43v0H7Z"/><path class="cls-2" d="M22.87,39.15c1.23-1.23,2.46-2.44,3.66-3.69.31-.32.48-.33.79,0,1.2,1.25,2.44,2.46,3.75,3.78l.31-3.06c.16-1.64.34-3.27.48-4.91,0-.43.18-.48.56-.41a11.1,11.1,0,0,0,4,.3A6.41,6.41,0,0,0,38,30.74c.34-.16.42,0,.51.27.56,1.92,1.11,3.84,1.69,5.76.1.33,0,.44-.28.55a11.06,11.06,0,0,1-4.7.86c-.4,0-.51.09-.51.5,0,4.28,0,8.57,0,12.85,0,.45-.1.56-.56.56q-7.27,0-14.53,0c-.45,0-.56-.11-.56-.56,0-4.27,0-8.53,0-12.8,0-.46-.11-.57-.56-.55a10.93,10.93,0,0,1-4.6-.84c-.32-.13-.43-.24-.32-.62.58-1.89,1.13-3.8,1.68-5.7.07-.23.11-.43.45-.29a8.39,8.39,0,0,0,5,.27c1.22-.25,1.2-.23,1.31,1,.21,2.25.44,4.49.67,6.74A.61.61,0,0,0,22.87,39.15Zm8.4,3.39h.43c1.45,0,1.44,0,1.31-1.47,0-.21-.08-.27-.29-.27H29.8c-.16,0-.28,0-.27.22,0,.48-.12,1,.08,1.43s.77.06,1.17.09C30.94,42.54,31.11,42.53,31.27,42.53Z"/><path class="cls-3" d="M22.6,13.9c0-.78,0-.78-.84-.89a3.06,3.06,0,0,1-2.65-3.24,3,3,0,0,1,3-2.81c1.68,0,3.36,0,5,0A6.06,6.06,0,0,1,33,12.78a1.69,1.69,0,0,0,.31.95,7.1,7.1,0,0,1-1.35,10L30.4,25c0-1.12-.22-2.09.8-2.95a2.54,2.54,0,0,0,.06-4,2.15,2.15,0,0,1-.89-1.89,3.35,3.35,0,0,0-2.79-3.1c-.64-.13-.64-.13-.65.53,0,.09,0,.18,0,.27a3.54,3.54,0,0,0-1.07.11,3.64,3.64,0,0,1-.59-1.59c-.09-.37.16-.89-.2-1.09s-.77,0-1.17-.05-.45.12-.43.46A11.22,11.22,0,0,0,23.83,14Z"/><path class="cls-4" d="M22.6,13.9l1.23.07a9.12,9.12,0,0,0,.71,1.27c.82,1.09.81,1.09,1.75.15l.12-.11c.21-.16.24-.3,0-.51a2,2,0,0,1-.59-.76,3.54,3.54,0,0,1,1.07-.11,1.37,1.37,0,0,1,0,.27c-.05.38,0,.58.48.68a1.63,1.63,0,0,1,1.26,1.63c0,.74,0,1.48,0,2.22,0,.28,0,.44.37.41.53,0,1.09-.06,1.32.57a1.16,1.16,0,0,1-.55,1.4,2.85,2.85,0,0,0-1.15,2.75c.1,1.67,0,3.36,0,5a1.36,1.36,0,0,1-.21.76c-.5.81-1,1.64-1.53,2.54-.43-.72-.79-1.42-1.25-2a3,3,0,0,1-.49-2c0-.24.07-.32.31-.31s.76,0,1.14,0,.29-.08.3-.31C27,26,27,26,25.59,26H23.8A2.07,2.07,0,0,1,21.72,24c0-.83,0-1.66,0-2.49a.45.45,0,0,0-.37-.53c-.62-.18-1.23-.41-1.85-.6-.26-.08-.35-.19-.28-.46A16.32,16.32,0,0,1,21,15.49a1.33,1.33,0,0,1,1.11-.69c.45,0,.54-.2.49-.58A1.87,1.87,0,0,1,22.6,13.9Z"/><path class="cls-4" d="M41.85,36.25c-.62-2.12-1.22-4.2-1.85-6.26-.09-.31.09-.38.25-.51a8.13,8.13,0,0,0,3-4.81,16.9,16.9,0,0,0,.15-3.14.42.42,0,0,0-.15-.33A2.13,2.13,0,0,0,43,21c-1.39-.93-1.49-2.32-1.35-3.8a1.74,1.74,0,0,1,1.68-1.55,3.43,3.43,0,0,1,3.51,3.27c0,2.82.06,5.64,0,8.46A11.45,11.45,0,0,1,41.85,36.25Z"/><path class="cls-4" d="M7,23.16c0-1.39,0-2.78,0-4.18a3.45,3.45,0,0,1,3.49-3.35,1.73,1.73,0,0,1,1.71,1.68c0,.54,0,1.08,0,1.63a1.6,1.6,0,0,1-.65,1.31,2.87,2.87,0,0,0-1.11,2.66,8.2,8.2,0,0,0,3.17,6.54.56.56,0,0,1,.22.72q-.85,2.82-1.66,5.66c-.11.4-.23.42-.55.18A11.55,11.55,0,0,1,7,27.12c-.08-1.32,0-2.64,0-4Z"/><path class="cls-2" d="M29.7,35.46c-.57-.59-1-1.1-1.54-1.6-.14-.14-.09-.24,0-.37l1.67-2.78c.06-.11.11-.26.27-.19s.07.22.06.33C30,32.33,29.87,33.81,29.7,35.46Z"/><path class="cls-2" d="M24.14,35.42c-.16-1.58-.31-3-.45-4.49,0-.14-.13-.36.08-.42s.24.18.32.31c.52.86,1,1.73,1.56,2.59.11.18.18.32,0,.5C25.15,34.38,24.7,34.86,24.14,35.42Z"/><path class="cls-1" d="M31.27,42.53c-.16,0-.33,0-.49,0-.41,0-1,.18-1.17-.09s-.06-.94-.08-1.43c0-.21.11-.23.27-.22h2.92c.2,0,.27.06.29.27.14,1.47.14,1.47-1.31,1.47Z"/><path class="cls-1" d="M25.84,14a2,2,0,0,0,.59.76c.22.21.19.35,0,.51l-.12.11c-.93.94-.93.93-1.75-.15A9.12,9.12,0,0,1,23.83,14a11.23,11.23,0,0,1-.38-2.22c0-.34.05-.49.43-.46s.86-.11,1.17.05.11.71.2,1.09A3.64,3.64,0,0,0,25.84,14Z"/></g></g></svg>