<svg xmlns="http://www.w3.org/2000/svg" viewBox="0 0 49.61 49.63"><defs><style>.cls-1{fill:#020201;}.cls-2{fill:#010101;}.cls-3{fill:#bc832c;}.cls-4{fill:#ffc144;}.cls-5{fill:#fb957f;}.cls-6{fill:#ae5e3c;}.cls-7{fill:#fff;}.cls-8{fill:#899835;}.cls-9{fill:#020202;}.cls-10{fill:#0a0908;}</style></defs><title>Asset 3</title><g id="Layer_2" data-name="Layer 2"><g id="Layer_1-2" data-name="Layer 1"><path class="cls-1" d="M38.44,0H40V3.21h1.6V0h1.6V3.21h1.6V0h1.58c0,1.48.06,2.95,0,4.4a8.64,8.64,0,0,1-.62,2c.45,0,1,0,1.51,0A2.29,2.29,0,0,1,49.58,8.5a23.93,23.93,0,0,1-.19,4.37,7,7,0,0,1-1.06,2.28,1.72,1.72,0,0,0-.3,1,13.94,13.94,0,0,1-.54,5.09,11.84,11.84,0,0,1-10.32,8.37l-.32,0q0,6,0,12a1.7,1.7,0,0,1,1.57,2q0,.5,0,1a1.67,1.67,0,0,1-1.78,1.87L36.25,48H49.6v1.59H0V48.06H13.39L13,46.49c-1.31-.16-1.78-.7-1.78-2q0-.43,0-.85a1.73,1.73,0,0,1,1.59-2V29.67c-.84-.17-1.69-.3-2.5-.52a12,12,0,0,1-8.7-11.4c0-.15,0-.3,0-.45a3.79,3.79,0,0,0-.71-2.79A5,5,0,0,1,0,11.39q0-1.25,0-2.5A2.4,2.4,0,0,1,2.48,6.43h.81a22.24,22.24,0,0,1,0-3.17A3.91,3.91,0,0,1,7.54,0,4,4,0,0,1,11.2,3.87a19.23,19.23,0,0,1-.08,2.49A3.72,3.72,0,0,1,9.89,8.6a.93.93,0,0,0-.26.58c0,1.42,0,2.83,0,4.25a2.46,2.46,0,0,1-1.37,2.36.48.48,0,0,0-.23.32,4.88,4.88,0,0,0,5,5.53c1.65,0,3.3,0,5,0a4.41,4.41,0,0,0,3.08-1.28,4,4,0,0,1-2-2.61,8.45,8.45,0,0,1-.16-1.34c0-.27-.07-.4-.37-.47a3.18,3.18,0,0,1-2.13-4.69,1.43,1.43,0,0,0,.06-.8A29.45,29.45,0,0,1,16,7.4a4.13,4.13,0,0,1,2.21-3.82,1.19,1.19,0,0,0,.44-.49,4.9,4.9,0,0,1,4.6-3,15.68,15.68,0,0,1,4.38.23,7.94,7.94,0,0,1,5.72,9.63,5.79,5.79,0,0,1-.15.58,1.27,1.27,0,0,0,.1,1,3.15,3.15,0,0,1-2.18,4.41c-.22.05-.39.07-.42.37-.26,2.41-.35,2.57-2.12,4.08a4.31,4.31,0,0,0,2.91,1.24c1.85,0,3.7,0,5.55,0A4.78,4.78,0,0,0,41.62,17c0-.13,0-.27,0-.4a.93.93,0,0,0-.53-1.06,2.15,2.15,0,0,1-1.07-2c0-2,0-3.94,0-5.9a.85.85,0,0,0-.31-.73,3.52,3.52,0,0,1-1.27-2.52C38.39,3,38.44,1.52,38.44,0ZM17.37,32,20,32.2c.11,0,.25,0,.32,0A2.92,2.92,0,0,0,21.63,30a2.88,2.88,0,0,1,.72-2.08c1-1,2-1.92,3-2.84.21,1,.45,2.17.67,3.33a2,2,0,0,0,1.53,1.73,3.72,3.72,0,0,1,2.27,1.76.56.56,0,0,0,.41.2c.66,0,1.32,0,2,0-.17.66-.3,1.29-.49,1.91a2.8,2.8,0,0,0,.8,3.09,3.48,3.48,0,0,1,1,3.44,9.27,9.27,0,0,1-.4,1.1h2.13V26.48h1.61V28l2.09-.4-1-4.48c-.46,0-.89.07-1.32.07h-4.7a6.21,6.21,0,0,1-3-.69.41.41,0,0,0-.56.07,5.2,5.2,0,0,1-7.12,0c-.18-.16-.31-.23-.56-.1a6.31,6.31,0,0,1-3.08.7h-6l-1,4.41,2.13.39V26.48h1.62V41.62h2.08c-.84-2.31-.69-3.09.93-5A2.44,2.44,0,0,0,18,34.34ZM24.83,8H22.38A2.26,2.26,0,0,0,20,10.49c0,.83.13,1.66.2,2.49.12,1.43.21,2.86.39,4.28a2.31,2.31,0,0,0,2.29,2q1.9,0,3.8,0a2.36,2.36,0,0,0,2.33-2c.07-.43.09-.86.13-1.29.15-1.83.34-3.65.44-5.48A2.24,2.24,0,0,0,27.28,8ZM19.57,33.58a1.55,1.55,0,0,0-.06.29,4.23,4.23,0,0,1-1.32,4.35,1.94,1.94,0,0,0-.57,1.64c.05.64.75,1.74,1.21,1.77.84.05,1.68,0,2.56,0l-.11-.24-.09-.18a3.48,3.48,0,0,1,.44-3.89,19.37,19.37,0,0,0,3.14-4.54h0s.07,0,.08,0a16.44,16.44,0,0,0,3,4.38,3.47,3.47,0,0,1,.8,3.22,11.8,11.8,0,0,1-.43,1.22h2.37a.46.46,0,0,0,.32-.09,5.09,5.09,0,0,0,.92-1.22A2.06,2.06,0,0,0,31.25,38a4,4,0,0,1-1.15-3.93,1.48,1.48,0,0,0,0-.32L30,33.64,28.6,34.73l-1.35-.68,1.16-1.36a1.92,1.92,0,0,0-1.36-1.07,3.56,3.56,0,0,1-2.56-2.79c0-.23-.11-.46-.18-.72a2.62,2.62,0,0,0-1.12,2.13,3.52,3.52,0,0,1-1.1,2.45l-.41.42.65,1-1.3.64ZM18,9.81l.2.1a2.2,2.2,0,0,0,.35-.53,3.9,3.9,0,0,1,3.87-2.94h4.85a3.83,3.83,0,0,1,3.8,2.88c.1.36.25.55.65.53a1.38,1.38,0,0,0,.1-.21,6.27,6.27,0,0,0-4.48-7.76,18.24,18.24,0,0,0-3.82-.24A3.34,3.34,0,0,0,20,4.28a.64.64,0,0,1-.47.5,2.62,2.62,0,0,0-1.85,2.1A7.53,7.53,0,0,0,18,9.81ZM40.45,27.06a10.2,10.2,0,0,0,5.75-7.38,28.21,28.21,0,0,0,.23-4.28,1.29,1.29,0,0,1,.32-.84c.42-.52.76-1.1,1.13-1.66l-.13-.12H44.83c0,.25,0,.55,0,.85a2.16,2.16,0,0,1-1,1.93,1,1,0,0,0-.56,1.1,6.33,6.33,0,0,1-3.49,5.86l-.26.16ZM1.84,12.78a4.78,4.78,0,0,0,1.07,1.84,1.21,1.21,0,0,1,.28.69c0,.82,0,1.63,0,2.45a10.17,10.17,0,0,0,2.47,6.59A10,10,0,0,0,9.2,27l.94-4.25a20.91,20.91,0,0,1-1.91-1.51,6.25,6.25,0,0,1-1.82-4.86.67.67,0,0,0-.4-.73,2.27,2.27,0,0,1-1.2-2c0-.31,0-.63,0-.89Zm11,32h24V43.28h-24Zm1.86,1.65c.24,1.76.56,1.58,1.69,1.58H34a.75.75,0,0,0,.75-.54c.11-.33.18-.67.27-1ZM4.81,4.82h0c0,.2,0,.4,0,.6A1.53,1.53,0,0,0,5.54,7c.2.11.32.38.49.55a1.24,1.24,0,0,0,.41.32A2.39,2.39,0,0,0,9.6,5.83a18.63,18.63,0,0,0,0-2,2.4,2.4,0,0,0-4.79,0C4.8,4.18,4.81,4.5,4.81,4.82Zm20,31.2c-.6.71-1.19,1.4-1.79,2.09a2.14,2.14,0,0,0,.08,3.09c.18.18.4.41.62.43.73.05,1.46,0,2.2,0a.39.39,0,0,0,.23-.07,2.24,2.24,0,0,0,.54-3.36C26.09,37.48,25.46,36.77,24.82,36ZM41.63,8q0,2.74,0,5.49c0,.59.3.94.79.94s.8-.35.8-.93c0-1.42,0-2.83,0-4.25,0-.43,0-.86,0-1.25Zm4.8,0c-1.54,0-1.6.05-1.6,1.59v0c0,1.5.06,1.56,1.58,1.56S48,11.19,48,9.62,48,8,46.42,8ZM4.81,9.66c0-.22,0-.43,0-.65,0-.69-.28-1-1-1h-.7C1.68,8,1.6,8.1,1.6,9.58s0,1.65,1.64,1.65S4.81,11.17,4.81,9.66ZM8,9.59H6.41c0,1.35,0,2.73,0,4.11a.79.79,0,0,0,1.58,0C8,12.32,8,11,8,9.59ZM27.32,21.42a1.05,1.05,0,0,0-1.15-.59,27.36,27.36,0,0,1-2.74,0,1,1,0,0,0-1.1.6A3.57,3.57,0,0,0,27.32,21.42ZM44.63,4.86h-4.4a2.33,2.33,0,0,0,4.4,0ZM31.14,11.41,31,12.91l-.12,1.46A1.61,1.61,0,0,0,32,12.93,1.58,1.58,0,0,0,31.14,11.41Zm-12.64.05a1.5,1.5,0,0,0-.88,1.6,1.41,1.41,0,0,0,1.12,1.22Z"/><path class="cls-2" d="M8,36.83H0v-8H8v1.07L9.1,29l1,1.22c-.63.53-1.25,1-1.84,1.55a.88.88,0,0,0-.27.57C8,33.85,8,35.31,8,36.83ZM2.77,32.61l1.1-1.1.94,1.09a13.57,13.57,0,0,1,1.14-.93,1,1,0,0,0,.42-1.21H1.63v4.76H6.37V33.38L4.82,34.67Z"/><path class="cls-2" d="M8,38.48v1.05l1.08-.88,1,1.21c-.62.52-1.24,1-1.82,1.54A1,1,0,0,0,8,42c0,1.46,0,2.93,0,4.41H0v-8Zm-1.63,1.6H1.64v4.74H6.38V43L4.85,44.25,2.77,42.17,3.86,41l.46.61.44.57C6.44,41,6.44,41,6.39,40.08Z"/><path d="M40,46.41V44.87h8v1.54Z"/><path d="M40,36.82V35.28h8v1.54Z"/><path d="M44.84,33.62V32.07H48v1.54Z"/><path d="M43.21,32.08v1.53H40.06V32.08Z"/><path d="M40,43.23V41.67H43.2v1.55Z"/><path d="M44.84,43.22V41.67H48v1.55Z"/><path d="M41.61,38.48V40H40.06V38.48Z"/><path d="M44.81,38.48V40H43.26V38.48Z"/><path d="M48,40H46.46V38.48H48Z"/><path class="cls-3" d="M17.37,32l.6,2.37a2.44,2.44,0,0,1-.52,2.33c-1.62,1.86-1.77,2.64-.93,5H14.44V26.48H12.82V28l-2.13-.39,1-4.41h6a6.31,6.31,0,0,0,3.08-.7c.25-.13.37-.06.56.1a5.2,5.2,0,0,0,7.12,0,.41.41,0,0,1,.56-.07,6.21,6.21,0,0,0,3,.69h4.7c.43,0,.86,0,1.32-.07l1,4.48-2.09.4V26.48H35.25V41.61H33.12a9.27,9.27,0,0,0,.4-1.1,3.48,3.48,0,0,0-1-3.44,2.8,2.8,0,0,1-.8-3.09c.19-.62.32-1.25.49-1.91-.69,0-1.35,0-2,0a.56.56,0,0,1-.41-.2,3.72,3.72,0,0,0-2.27-1.76A2,2,0,0,1,26,28.37c-.22-1.16-.46-2.32-.67-3.33-1,.91-2,1.83-3,2.84A2.88,2.88,0,0,0,21.63,30a2.92,2.92,0,0,1-1.28,2.21c-.06.06-.21,0-.32,0Z"/><path class="cls-4" d="M24.83,8h2.45a2.24,2.24,0,0,1,2.33,2.43c-.11,1.83-.29,3.65-.44,5.48,0,.43-.06.87-.13,1.29a2.36,2.36,0,0,1-2.33,2q-1.9,0-3.8,0a2.31,2.31,0,0,1-2.29-2c-.18-1.42-.27-2.85-.39-4.28-.07-.83-.16-1.66-.2-2.49A2.26,2.26,0,0,1,22.38,8h2.45Zm-1.59,9.56c2.88.34,4.93-1,4.73-3.16H26.44A1.65,1.65,0,0,1,24.59,16H23.24Zm4-4.76a.8.8,0,1,0-.82-.78A.82.82,0,0,0,27.24,12.83Zm-4-.8a.8.8,0,1,0-.79.8A.82.82,0,0,0,23.21,12Z"/><path class="cls-5" d="M19.57,33.58,21,34.73l1.3-.64-.65-1,.41-.42a3.52,3.52,0,0,0,1.1-2.45,2.62,2.62,0,0,1,1.12-2.13c.07.26.13.49.18.72a3.56,3.56,0,0,0,2.56,2.79,1.92,1.92,0,0,1,1.36,1.07l-1.16,1.36,1.35.68L30,33.64l.12.11a1.48,1.48,0,0,1,0,.32A4,4,0,0,0,31.25,38a2.06,2.06,0,0,1,.64,2.35A5.09,5.09,0,0,1,31,41.56a.46.46,0,0,1-.32.09H28.29a11.8,11.8,0,0,0,.43-1.22,3.47,3.47,0,0,0-.8-3.22,16.44,16.44,0,0,1-3-4.38s-.05,0-.08,0h0a19.37,19.37,0,0,1-3.14,4.54,3.48,3.48,0,0,0-.44,3.89l.09.18.11.24c-.88,0-1.72,0-2.56,0-.46,0-1.16-1.13-1.21-1.77a1.94,1.94,0,0,1,.57-1.64,4.23,4.23,0,0,0,1.32-4.35A1.55,1.55,0,0,1,19.57,33.58Z"/><path class="cls-6" d="M18,9.81a7.53,7.53,0,0,1-.34-2.94,2.62,2.62,0,0,1,1.85-2.1.64.64,0,0,0,.47-.5A3.34,3.34,0,0,1,23.5,1.64a18.24,18.24,0,0,1,3.82.24A6.27,6.27,0,0,1,31.8,9.63a1.38,1.38,0,0,1-.1.21c-.4,0-.55-.17-.65-.53a3.83,3.83,0,0,0-3.8-2.88H22.41a3.9,3.9,0,0,0-3.87,2.94,2.2,2.2,0,0,1-.35.53Z"/><path class="cls-4" d="M40.45,27.06l-1-4.37.26-.16a6.33,6.33,0,0,0,3.49-5.86,1,1,0,0,1,.56-1.1,2.16,2.16,0,0,0,1-1.93c0-.3,0-.6,0-.85h2.91l.13.12c-.37.56-.71,1.14-1.13,1.66a1.29,1.29,0,0,0-.32.84,28.21,28.21,0,0,1-.23,4.28A10.2,10.2,0,0,1,40.45,27.06Z"/><path class="cls-4" d="M1.84,12.78h3c0,.26,0,.58,0,.89a2.27,2.27,0,0,0,1.2,2,.67.67,0,0,1,.4.73,6.25,6.25,0,0,0,1.82,4.86,20.91,20.91,0,0,0,1.91,1.51L9.2,27a10,10,0,0,1-3.51-2.68,10.17,10.17,0,0,1-2.47-6.59c0-.82,0-1.63,0-2.45a1.21,1.21,0,0,0-.28-.69A4.78,4.78,0,0,1,1.84,12.78Z"/><path class="cls-7" d="M12.82,44.82V43.28h24v1.54Z"/><path class="cls-7" d="M14.68,46.47H35c-.09.37-.16.71-.27,1a.75.75,0,0,1-.75.54H16.38C15.24,48.06,14.92,48.23,14.68,46.47Z"/><path class="cls-7" d="M4.81,4.82c0-.32,0-.63,0-.95a2.4,2.4,0,0,1,4.79,0,18.63,18.63,0,0,1,0,2A2.39,2.39,0,0,1,6.45,7.9,1.24,1.24,0,0,1,6,7.58c-.17-.18-.29-.44-.49-.55a1.53,1.53,0,0,1-.74-1.61c0-.2,0-.4,0-.6Z"/><path class="cls-6" d="M24.82,36c.64.75,1.27,1.46,1.87,2.19a2.24,2.24,0,0,1-.54,3.36.39.39,0,0,1-.23.07c-.73,0-1.47,0-2.2,0-.22,0-.45-.25-.62-.43A2.14,2.14,0,0,1,23,38.11C23.62,37.42,24.21,36.73,24.82,36Z"/><path class="cls-7" d="M41.63,8h1.6c0,.4,0,.82,0,1.25,0,1.42,0,2.83,0,4.25,0,.58-.31.94-.8.93s-.79-.36-.79-.94Q41.62,10.74,41.63,8Z"/><path class="cls-4" d="M46.42,8C48,8,48,8.08,48,9.62s0,1.62-1.62,1.62-1.58-.06-1.58-1.56v0C44.83,8.08,44.88,8,46.42,8Z"/><path class="cls-4" d="M4.81,9.66c0,1.51-.06,1.57-1.57,1.57S1.6,11.2,1.6,9.58,1.68,8,3.14,8h.7c.68,0,1,.28,1,1C4.81,9.23,4.81,9.44,4.81,9.66Z"/><path class="cls-7" d="M8,9.59C8,11,8,12.32,8,13.68a.79.79,0,0,1-1.58,0c0-1.38,0-2.76,0-4.11Z"/><path class="cls-4" d="M27.32,21.42a3.57,3.57,0,0,1-5,0,1,1,0,0,1,1.1-.6,27.36,27.36,0,0,0,2.74,0A1.05,1.05,0,0,1,27.32,21.42Z"/><path class="cls-4" d="M31.14,11.41A1.58,1.58,0,0,1,32,12.93a1.61,1.61,0,0,1-1.12,1.43L31,12.91Z"/><path class="cls-4" d="M18.5,11.46l.24,2.82a1.41,1.41,0,0,1-1.12-1.22A1.5,1.5,0,0,1,18.5,11.46Z"/><path class="cls-8" d="M2.77,32.61l2.06,2.05,1.55-1.28v1.84H1.63V30.47H6.36a1,1,0,0,1-.42,1.21,13.57,13.57,0,0,0-1.14.93l-.94-1.09Z"/><path class="cls-8" d="M6.39,40.08c.06.93.06.93-1.62,2.13l-.44-.57L3.86,41l-1.1,1.14,2.08,2.08L6.38,43v1.84H1.64V40.08Z"/><path class="cls-9" d="M23.24,17.59V16h1.36a1.65,1.65,0,0,0,1.85-1.6H28C28.17,16.56,26.12,17.93,23.24,17.59Z"/><path class="cls-10" d="M27.24,12.83A.8.8,0,1,1,28,12,.82.82,0,0,1,27.24,12.83Z"/><path class="cls-10" d="M23.21,12a.8.8,0,1,1-.8-.79A.82.82,0,0,1,23.21,12Z"/></g></g></svg>