<svg xmlns="http://www.w3.org/2000/svg" viewBox="0 0 56.42 56.52"><defs><style>.cls-1{fill:#030303;}.cls-2{fill:#bc832c;}.cls-3{fill:#899835;}.cls-4{fill:#ffc144;}.cls-5{fill:#fff;}.cls-6{fill:#ae5e3c;}.cls-7{fill:#f6e679;}.cls-8{fill:#fefefe;}</style></defs><title>Asset 2</title><g id="Layer_2" data-name="Layer 2"><g id="Layer_1-2" data-name="Layer 1"><path class="cls-1" d="M27.27,0H29c.1.22.32.11.48.15a6,6,0,0,1,4.15,3.72A15,15,0,0,1,34,8.46a5,5,0,0,1-1.66,3.77,2.23,2.23,0,0,0-.85,2.17.36.36,0,0,1,0,.11c-.08.43.11.51.51.5,3.8,0,7.6,0,11.4,0,.79,0,.79,0,.83.78s0,.84-.81.89l-2.14,0c-.23,0-.32.06-.32.31,0,.79,0,1.58,0,2.36,0,.24.08.32.32.31l2.14,0c3.29,0,6.58,0,9.87,0a1.48,1.48,0,1,0-.06-3c-2.15,0-4.3,0-6.45,0-.88,0-.88,0-.93-.87s0-.78.83-.78l5.81,0a3.45,3.45,0,0,1,4,2.79v.77c-.19.09-.12.29-.17.43a3.18,3.18,0,0,1-3,2.31l-.82,0-.6,0H36.89c-1.28,0-1.27,0-1.27,1.29a.5.5,0,0,0,.41.57,4.07,4.07,0,0,1,2.53,5.58.49.49,0,0,0,.14.65c.74.72,1.47,1.44,2.18,2.19a1.12,1.12,0,0,0,.91.37c2.57,0,5.15,0,7.72,0,1.17,0,1.15,0,1.17,1.17,0,.37-.07.49-.47.49q-4.61,0-9.21,0a1,1,0,0,1-.76-.33c-.86-.88-1.74-1.74-2.6-2.62-.21-.22-.35-.3-.63-.09a2.39,2.39,0,0,1-.93.44c-.42.08-.45.3-.45.66,0,2.59,0,5.18,0,7.78,0,.85,0,.85-.84.9s-.8,0-.8-.89c0-1,0-2.09,0-3.14,0-.41-.06-.57-.53-.57-2.46,0-4.92,0-7.39,0a.49.49,0,0,0-.57.41,3.87,3.87,0,0,1-2.59,2.64c-.45.15-.52.36-.52.78,0,3.29,0,6.58,0,9.87,0,.89,0,.89-.87.93s-.78,0-.78-.84c0-3.35,0-6.7,0-10,0-.35,0-.53-.45-.65a4.08,4.08,0,0,1-2.52-5.55.53.53,0,0,0-.15-.7c-.76-.75-1.52-1.5-2.26-2.26A1,1,0,0,0,14.6,30H7.54c-1.21,0-1.19,0-1.2-1.21,0-.39.15-.44.48-.44q4.28,0,8.56,0a.8.8,0,0,1,.62.26c.9.92,1.82,1.82,2.72,2.74.21.22.36.3.63.08a2.22,2.22,0,0,1,1-.46c.36-.06.41-.26.4-.57,0-2.87,0-5.74,0-8.61,0-.42-.11-.51-.52-.51-3.15,0-6.29,0-9.44,0-.88,0-.88,0-1-.86a.64.64,0,0,0,0-.21c-.09-.49.12-.61.59-.59.82,0,1.64,0,2.46,0s1.43,0,2.15,0c.28,0,.39-.07.38-.37q0-1.13,0-2.26c0-.3-.1-.37-.38-.36-.71,0-1.43,0-2.15,0l-9.64,0a1.48,1.48,0,0,0-1.64,1.47,1.51,1.51,0,0,0,1.66,1.51h4c.81,0,.81,0,.9.79a.7.7,0,0,0,0,.22c.1.54-.12.67-.65.66-1.23,0-2.46,0-3.69,0l-.82,0a3.18,3.18,0,0,1-3-2.87,3.14,3.14,0,0,1,2.54-3.36A9.41,9.41,0,0,1,3.87,15l.6,0H23.55c.45,0,1.05.21,1.31-.1s0-.84.08-1.28a1,1,0,0,0-.44-1,4.92,4.92,0,0,1-1.95-3.17,13.85,13.85,0,0,1,.16-5.63A5.85,5.85,0,0,1,26.37.29,2.91,2.91,0,0,0,27.27,0ZM22.4,25.25c0,1.73,0,3.46,0,5.19a.45.45,0,0,0,.38.53,4,4,0,0,1,2.75,2.77c.07.24.16.36.45.36q3.81,0,7.62,0c.3,0,.42-.08.41-.4q0-1.1,0-2.21c0-.27-.09-.38-.34-.46a4.12,4.12,0,0,1,0-7.91c.31-.1.34-.24.34-.51,0-.77,0-1.55,0-2.32,0-.51.08-.69.64-.67,1.38,0,2.76,0,4.14,0,.38,0,.57,0,.54-.5a19.49,19.49,0,0,1,0-2c0-.37-.11-.46-.47-.46-2.48,0-5,0-7.45,0a.77.77,0,0,0-.58.22,3.66,3.66,0,0,1-5.24,0,.65.65,0,0,0-.48-.21c-2.54,0-5.08,0-7.62,0-.31,0-.36.11-.36.38,0,.72,0,1.44,0,2.15,0,.36.1.46.46.46,1.45,0,2.91,0,4.36,0,.38,0,.5.09.49.48C22.38,21.82,22.4,23.54,22.4,25.25ZM26.94,6.07c-.83,0-1.66,0-2.48,0-.29,0-.43,0-.41.38,0,.66,0,1.32,0,2a4.12,4.12,0,0,0,3.56,3.89,4.16,4.16,0,0,0,4.43-2.65A.64.64,0,0,0,32,9q-1-1.31-2-2.64a.6.6,0,0,0-.55-.27C28.6,6.08,27.77,6.07,26.94,6.07ZM34.78,24.6a2.45,2.45,0,0,0-2.45,2.5,2.49,2.49,0,0,0,2.5,2.47,2.53,2.53,0,0,0,2.47-2.52A2.49,2.49,0,0,0,34.78,24.6ZM19.09,34.92a2.49,2.49,0,0,0,2.49,2.48,2.53,2.53,0,0,0,2.48-2.5,2.49,2.49,0,0,0-2.5-2.47A2.45,2.45,0,0,0,19.09,34.92Zm13.2-28.3c.19-3.18-1.82-4.72-3.76-4.92A4,4,0,0,0,24.4,4.39c1.77,0,3.53,0,5.29,0a1.47,1.47,0,0,1,1.48.76C31.47,5.62,31.86,6.05,32.29,6.61Zm-2.49,8.11a3.7,3.7,0,0,1,0-.38c0-.4,0-.59-.52-.45a4.1,4.1,0,0,1-1.69.09c-1-.15-1-.14-1,.92,0,.28-.1.58.13.84a2.12,2.12,0,0,0,2.19.47C29.63,15.92,29.79,15.65,29.79,14.72Z"/><path class="cls-2" d="M34,56.41H29c0-.2,0-.4,0-.6q0-6.87,0-13.74c0-1.28,0-1.27-1.29-1.22-.31,0-.36.13-.36.39q0,7.64,0,15.28h-.11c-.16-.19-.37-.11-.56-.11l-4.32,0q0-1.75,0-3.5c0-.88,0-.88-.87-.92V50.36c.87,0,.87,0,.87-.93,0-3.29,0-6.58,0-9.87,0-.41.07-.63.52-.78a3.87,3.87,0,0,0,2.59-2.64.49.49,0,0,1,.57-.41c2.46,0,4.92,0,7.39,0,.47,0,.54.16.53.57,0,1,0,2.09,0,3.14,0,.84,0,.84.8.89v1.61c-.8.05-.8.05-.8.9,0,.53,0,1.07,0,1.6,0,.3-.07.43-.39.53a4.12,4.12,0,0,0,0,7.88.49.49,0,0,1,.4.58C34,54.42,34,55.41,34,56.41Z"/><path class="cls-1" d="M27.38,56.52q0-7.64,0-15.28c0-.27,0-.38.36-.39C29,40.8,29,40.79,29,42.07q0,6.87,0,13.74c0,.2,0,.4,0,.6v.11Z"/><path class="cls-3" d="M22.4,25.25c0-1.71,0-3.42,0-5.13,0-.39-.11-.49-.49-.48-1.45,0-2.91,0-4.36,0-.36,0-.47-.09-.46-.46,0-.72,0-1.43,0-2.15,0-.27,0-.39.36-.38,2.54,0,5.08,0,7.62,0a.65.65,0,0,1,.48.21,3.66,3.66,0,0,0,5.24,0,.77.77,0,0,1,.58-.22c2.48,0,5,0,7.45,0,.36,0,.48.08.47.46a19.49,19.49,0,0,0,0,2c0,.45-.16.5-.54.5-1.38,0-2.76,0-4.14,0-.56,0-.67.16-.64.67,0,.77,0,1.54,0,2.32,0,.26,0,.41-.34.51a4.12,4.12,0,0,0,0,7.91c.25.08.35.19.34.46q0,1.1,0,2.21c0,.32-.11.4-.41.4q-3.81,0-7.62,0c-.28,0-.37-.12-.45-.36A4,4,0,0,0,22.77,31a.45.45,0,0,1-.38-.53C22.4,28.7,22.4,27,22.4,25.25Zm3.32-1.92v-1.1c0-1.19,0-1.18-1.22-1.15-.34,0-.45.11-.44.45,0,.94,0,1.87,0,2.81,0,1.23,0,1.22,1.25,1.18.31,0,.42-.11.41-.42C25.71,24.5,25.72,23.91,25.72,23.32Zm0,4.67c0-.92.11-.85-.74-.84s-.92-.13-.91.73c0,1-.13.93.77.93S25.71,28.93,25.72,28Z"/><path class="cls-4" d="M26.94,6.07c.83,0,1.66,0,2.48,0a.6.6,0,0,1,.55.27Q31,7.66,32,9a.64.64,0,0,1,.09.71,4.16,4.16,0,0,1-4.43,2.65,4.12,4.12,0,0,1-3.56-3.89c0-.66,0-1.32,0-2,0-.34.12-.39.41-.38C25.28,6.08,26.11,6.07,26.94,6.07Z"/><path class="cls-4" d="M44.19,15.79h1.62c0,.87,0,.87.93.87,2.15,0,4.3,0,6.45,0a1.48,1.48,0,1,1,.06,3c-3.29,0-6.58,0-9.87,0q0-1.47,0-2.94C44.14,16.63,44.14,16.63,44.19,15.79Z"/><path class="cls-4" d="M9.84,20.43H8.24c-.09-.79-.09-.79-.9-.79h-4a1.51,1.51,0,0,1-1.66-1.51A1.48,1.48,0,0,1,3.3,16.66l9.64,0q0,1.47,0,2.94c-.82,0-1.64,0-2.46,0-.47,0-.68.1-.59.59A.64.64,0,0,1,9.84,20.43Z"/><path class="cls-5" d="M34.78,24.6a2.49,2.49,0,0,1,2.52,2.45,2.53,2.53,0,0,1-2.47,2.52,2.49,2.49,0,0,1-2.5-2.47A2.45,2.45,0,0,1,34.78,24.6Z"/><path class="cls-5" d="M19.09,34.92a2.45,2.45,0,0,1,2.46-2.49,2.49,2.49,0,0,1,2.5,2.47,2.53,2.53,0,0,1-2.48,2.5A2.49,2.49,0,0,1,19.09,34.92Z"/><path class="cls-6" d="M32.29,6.61c-.42-.56-.81-1-1.11-1.49a1.47,1.47,0,0,0-1.48-.76c-1.76.05-3.52,0-5.29,0a4,4,0,0,1,4.12-2.69C30.47,1.89,32.48,3.43,32.29,6.61Z"/><path class="cls-3" d="M12.93,19.62q0-1.47,0-2.94c.72,0,1.43,0,2.15,0,.28,0,.39.07.38.36q0,1.13,0,2.26c0,.3-.1.38-.38.37C14.36,19.62,13.65,19.63,12.93,19.62Z"/><path class="cls-3" d="M43.38,16.68q0,1.47,0,2.94l-2.14,0c-.24,0-.32-.08-.32-.31,0-.79,0-1.58,0-2.36,0-.25.09-.31.32-.31Z"/><path class="cls-7" d="M29.79,14.72c0,.94-.16,1.2-.88,1.48a2.12,2.12,0,0,1-2.19-.47c-.23-.26-.13-.56-.13-.84,0-1.05,0-1.06,1-.92a4.1,4.1,0,0,0,1.69-.09c.5-.14.56.05.52.45A3.7,3.7,0,0,0,29.79,14.72Z"/><path class="cls-1" d="M3.87,43.59c.88.05.88.05.88,1,0,2.21,0,4.41,0,6.62,0,.36.1.46.46.45,2.21,0,4.41,0,6.62,0,.86,0,.86,0,.94.8s-.07.84-.91.84c-2.74,0-5.47,0-8.21,0-.48,0-.56-.14-.56-.58,0-2.76,0-5.51,0-8.27C3.09,43.64,3.09,43.64,3.87,43.59Z"/><path class="cls-1" d="M12.76,3.86c-.08.88-.08.88-1,.88-2.19,0-4.38,0-6.57,0-.39,0-.48.09-.48.48,0,2.28,0,4.56,0,6.84,0,.56-.13.77-.68.67a.73.73,0,0,0-.22,0c-.77,0-.77,0-.77-.85,0-2.77,0-5.55,0-8.32,0-.41.1-.51.51-.51,2.77,0,5.55,0,8.32,0C12.71,3.09,12.71,3.09,12.76,3.86Z"/><path class="cls-1" d="M20.72,52.44c0-.69.51-.36.81-.46.87,0,.87,0,.87.92q0,1.75,0,3.5c-.53,0-1.2.18-1.55-.07s-.08-1-.1-1.46C20.73,54.06,20.73,53.25,20.72,52.44Z"/><path class="cls-1" d="M34.78,41.94c.85.06.85.06.85.91,0,.57,0,1.14,0,1.71,0,.2,0,.39.28.38.53,0,.92.84,1.49.31.79-.71,1.52-1.49,2.27-2.26a.85.85,0,0,1,.67-.3q2.87,0,5.73,0c.33,0,.43.06.43.42,0,1.23,0,1.23-1.23,1.23-1.4,0-2.79,0-4.19,0a.9.9,0,0,0-.73.3c-.6.62-1.22,1.23-1.83,1.84-.13.13-.23.22-.13.46,1,2.3.59,3.85-1.35,5.5a5.19,5.19,0,0,1-1.16.48c-.29.05-.25.26-.25.46,0,.9,0,1.8,0,2.69,0,.29-.08.38-.37.37s-.84,0-1.26,0c0-1,0-2,0-3a.49.49,0,0,0-.4-.58,4.12,4.12,0,0,1,0-7.88c.31-.1.4-.23.39-.53,0-.53,0-1.07,0-1.6C34,42,34,42,34.78,41.94Zm-2.46,7a2.49,2.49,0,0,0,2.49,2.48,2.53,2.53,0,0,0,2.48-2.5,2.5,2.5,0,0,0-2.5-2.47A2.46,2.46,0,0,0,32.32,48.92Z"/><path class="cls-1" d="M43.6,52.44c.05-.81.05-.81.88-.81,2.22,0,4.45,0,6.67,0,.39,0,.5-.11.49-.49,0-2.22,0-4.45,0-6.67,0-.82,0-.82.81-.88s.83,0,.83.91c0,2.75,0,5.51,0,8.26,0,.41-.11.52-.52.52-2.75,0-5.51,0-8.26,0C43.64,53.27,43.64,53.27,43.6,52.44Z"/><path class="cls-1" d="M52.45,12.76c-.82-.09-.82-.09-.82-.93,0-2.18,0-4.37,0-6.55,0-.41-.08-.55-.53-.55-2.18,0-4.37,0-6.55,0-.91,0-.91,0-1-.88s0-.77.84-.77c2.77,0,5.54,0,8.31,0,.45,0,.53.14.53.55,0,2.73,0,5.47,0,8.2C53.28,12.69,53.28,12.69,52.45,12.76Z"/><path class="cls-8" d="M25.72,23.32c0,.59,0,1.18,0,1.76,0,.31-.1.41-.41.42-1.25,0-1.25.06-1.25-1.18,0-.94,0-1.87,0-2.81,0-.34.11-.44.44-.45,1.22,0,1.22,0,1.22,1.15Q25.72,22.77,25.72,23.32Z"/><path class="cls-8" d="M25.72,28c0,.94.11.81-.89.81s-.76.1-.77-.93c0-.86-.08-.72.91-.73S25.71,27.08,25.72,28Z"/><path class="cls-5" d="M32.32,48.92a2.46,2.46,0,0,1,2.47-2.49,2.5,2.5,0,0,1,2.5,2.47,2.53,2.53,0,0,1-2.48,2.5A2.49,2.49,0,0,1,32.32,48.92Z"/></g></g></svg>