<svg xmlns="http://www.w3.org/2000/svg" viewBox="0 0 50.88 65.14"><defs><style>.cls-1{fill:#050505;}.cls-2{fill:#030303;}.cls-3{fill:#e57589;}.cls-4{fill:#de5c66;}.cls-5{fill:#020101;}</style></defs><title>Asset 5</title><g id="Layer_2" data-name="Layer 2"><g id="Layer_1-2" data-name="Layer 1"><path class="cls-1" d="M30.91,0a1.55,1.55,0,0,1,.6,1.43q0,10.39,0,20.79a9.21,9.21,0,0,0,7.08,9.15,11,11,0,0,0,2,.25c.69,0,1.11.43,1.1,1s-.48.95-1.2.92a11.15,11.15,0,0,1-8.88-4.7c-.14,0-.11.14-.11.24,0,2.1,0,4.2,0,6.29a14.77,14.77,0,0,0,4.52,10.18c.47.47.71.94.32,1.56-.7.46-1,.43-1.61-.16A17.06,17.06,0,0,1,29.6,34.36q0-16.29,0-32.57c0-.27,0-.55,0-.82,0-.44.34-.68.59-1Z"/><path class="cls-2" d="M20,65.14a1.55,1.55,0,0,1-.6-1.42c0-3.92,0-7.85,0-11.77V51.1a13.06,13.06,0,0,1-2.58,2.65A11.13,11.13,0,0,1,10.43,56c-.77,0-1.25-.35-1.25-1s.43-.93,1.18-1a9.13,9.13,0,0,0,9-8.92c.1-6.49,0-13,0-19.46,0-.1,0-.2.06-.3a.88.88,0,0,1,1-.86.86.86,0,0,1,.87.9c0,.23,0,.47,0,.7q0,18.6,0,37.19c0,.29,0,.59,0,.88s-.35.67-.59,1Z"/><path class="cls-1" d="M1,29.47c-.58-.12-1-.42-.95-1.07s.47-.86,1.2-.87l4-.05a2.8,2.8,0,0,0,1-.15c-.09-.22-.3-.29-.46-.41a7.09,7.09,0,0,1-2.7-5.39,1,1,0,0,1,.57-1,.9.9,0,0,1,1,.15,1.15,1.15,0,0,1,.34.92A5.15,5.15,0,0,0,9,26.4a1.42,1.42,0,0,0,1-.07c5.68-2.67,8.95-7.09,9.3-13.39.21-3.83.06-7.67.05-11.51A1.54,1.54,0,0,1,20,0h.76c.25.29.57.53.59,1,0,.25,0,.51,0,.76q0,5.05,0,10.1A20.09,20.09,0,0,1,21,15.24,17.27,17.27,0,0,1,4.58,29.41Z"/><path class="cls-1" d="M49.9,54c.69.16,1,.52,1,1a.91.91,0,0,1-.93.88A27.57,27.57,0,0,1,40.2,54.9a21.82,21.82,0,0,1-8.61-5.4,1,1,0,0,0-.09.67q0,6.78,0,13.55a1.56,1.56,0,0,1-.6,1.43h-.76c-.25-.29-.57-.54-.59-1,0-.25,0-.5,0-.76q0-8,0-16.08c0-.21,0-.42,0-.64a.84.84,0,0,1,.57-.77.88.88,0,0,1,1,.18,5.88,5.88,0,0,1,.49.58A20.06,20.06,0,0,0,38.28,52C41.95,53.92,45.88,54.23,49.9,54Z"/><path class="cls-3" d="M29.55,64.17l-6.14,0q0-31.57,0-63.14l6.15,0c0,.27,0,.55,0,.82q0,16.29,0,32.57a17.06,17.06,0,0,0,5.17,12.57c.59.59.92.61,1.61.16a20.54,20.54,0,0,0,2.07,1.55A1.06,1.06,0,0,0,39,50a17.74,17.74,0,0,0,6.23,1.82c1.56.16,3.13,0,4.69.13q0,1.06,0,2.12c-4,.19-7.95-.12-11.62-2a20.06,20.06,0,0,1-6.61-5.35,5.88,5.88,0,0,0-.49-.58.88.88,0,0,0-1-.18.84.84,0,0,0-.57.77c0,.21,0,.42,0,.64q0,8,0,16.08C29.6,63.67,29.57,63.92,29.55,64.17ZM26.36,53h0a10.8,10.8,0,0,0,0-1.21.83.83,0,0,0-.91-.78.82.82,0,0,0-.9.8,22.42,22.42,0,0,0,0,2.29.83.83,0,0,0,.89.82.85.85,0,0,0,.94-.83C26.39,53.74,26.36,53.37,26.36,53ZM24.51,12.18h0c0,.36,0,.72,0,1.08a.85.85,0,0,0,.91.86.83.83,0,0,0,.92-.84c0-.74,0-1.48,0-2.22a.84.84,0,0,0-.94-.84.86.86,0,0,0-.9.88C24.49,11.46,24.51,11.82,24.51,12.18Zm1.86,32.67h0c0-.38,0-.77,0-1.14a.92.92,0,0,0-1.83,0c0,.72,0,1.44,0,2.16a.87.87,0,0,0,.9.88.9.9,0,0,0,.94-.91C26.38,45.53,26.37,45.19,26.37,44.85Zm0-24.47h0c0-.4,0-.81,0-1.21a.83.83,0,0,0-.91-.79.82.82,0,0,0-.9.8,22.85,22.85,0,0,0,0,2.29.81.81,0,0,0,.88.81.84.84,0,0,0,.94-.82C26.39,21.1,26.36,20.73,26.36,20.37Zm0,16.28h0c0-.38,0-.76,0-1.14a.92.92,0,0,0-1.82,0c0,.74,0,1.48,0,2.22a.82.82,0,0,0,.93.84.84.84,0,0,0,.91-.86C26.38,37.38,26.36,37,26.36,36.66Zm0-8.12h0c0-.4,0-.81,0-1.21a.82.82,0,0,0-.91-.79.81.81,0,0,0-.91.78,22.31,22.31,0,0,0,0,2.28.81.81,0,0,0,.88.82.84.84,0,0,0,.95-.81A10.65,10.65,0,0,0,26.36,28.54Zm0,32.64h0a11.54,11.54,0,0,0,0-1.21.84.84,0,0,0-.91-.8.82.82,0,0,0-.91.79,22.2,22.2,0,0,0,0,2.29.83.83,0,0,0,.88.83.85.85,0,0,0,.95-.83A10.78,10.78,0,0,0,26.36,61.18ZM24.52,4h0c0,.38,0,.76,0,1.14a.86.86,0,0,0,.9.87.83.83,0,0,0,.93-.83,21.63,21.63,0,0,0,0-2.27.83.83,0,0,0-.89-.81.85.85,0,0,0-.94.83C24.49,3.24,24.52,3.6,24.52,4Z"/><path class="cls-2" d="M49.89,51.92c-1.56-.09-3.13,0-4.69-.13A17.74,17.74,0,0,1,39,50a1,1,0,1,1,1-1.61c1.26.85,2.41.48,3.53-.26A5.13,5.13,0,0,0,45.9,44c.05-.77.38-1.14,1-1.12s.95.46.9,1.21a7.07,7.07,0,0,1-2.72,5.31l-.58.44c.74.06,1.34.14,1.94.16,1.06,0,2.12,0,3.18,0,.76,0,1.15.26,1.24.81S50.63,51.69,49.89,51.92Z"/><path class="cls-4" d="M23.4,1q0,31.57,0,63.14l-2.09,0c0-.29,0-.59,0-.88q0-18.6,0-37.19c0-.23,0-.47,0-.7a.86.86,0,0,0-.87-.9.88.88,0,0,0-1,.86c0,.1,0,.2-.06.3L17,27.86a1.09,1.09,0,0,0-1.58,0,18.31,18.31,0,0,1-2.69,1.67C9.06,31.49,5.07,31.79,1,31.62l0-2.14,3.62-.06A17.27,17.27,0,0,0,21,15.24a20.09,20.09,0,0,0,.26-3.41q0-5.05,0-10.1c0-.25,0-.51,0-.76Z"/><path class="cls-1" d="M1,31.62c4.07.18,8.06-.13,11.76-2.08a18.31,18.31,0,0,0,2.69-1.67,1.09,1.09,0,0,1,1.58,0c.3.75.22,1.06-.41,1.52a21.22,21.22,0,0,1-13,4.16c-.82,0-1.65,0-2.47,0S0,33.18,0,32.63.31,31.76,1,31.62Z"/><path class="cls-5" d="M26.36,53c0,.36,0,.72,0,1.08a.85.85,0,0,1-.94.83.83.83,0,0,1-.89-.82,22.42,22.42,0,0,1,0-2.29.82.82,0,0,1,.9-.8.83.83,0,0,1,.91.78,10.8,10.8,0,0,1,0,1.21Z"/><path class="cls-5" d="M24.51,12.18c0-.36,0-.72,0-1.08a.86.86,0,0,1,.9-.88.84.84,0,0,1,.94.84c0,.74,0,1.48,0,2.22a.83.83,0,0,1-.92.84.85.85,0,0,1-.91-.86c0-.36,0-.72,0-1.08Z"/><path class="cls-5" d="M26.37,44.85c0,.34,0,.68,0,1a.9.9,0,0,1-.94.91.87.87,0,0,1-.9-.88c0-.72,0-1.44,0-2.16a.92.92,0,0,1,1.83,0c0,.38,0,.76,0,1.14Z"/><path class="cls-5" d="M26.36,20.37c0,.36,0,.72,0,1.08a.84.84,0,0,1-.94.82.81.81,0,0,1-.88-.81,22.85,22.85,0,0,1,0-2.29.82.82,0,0,1,.9-.8.83.83,0,0,1,.91.79c0,.4,0,.8,0,1.21Z"/><path class="cls-5" d="M26.36,36.66c0,.36,0,.72,0,1.08a.84.84,0,0,1-.91.86.82.82,0,0,1-.93-.84c0-.74,0-1.48,0-2.22a.92.92,0,0,1,1.82,0c0,.38,0,.76,0,1.14Z"/><path class="cls-5" d="M26.36,28.54a10.65,10.65,0,0,1,0,1.08.84.84,0,0,1-.95.81.81.81,0,0,1-.88-.82,22.31,22.31,0,0,1,0-2.28.81.81,0,0,1,.91-.78.82.82,0,0,1,.91.79c0,.4,0,.8,0,1.21Z"/><path class="cls-5" d="M26.36,61.18a10.78,10.78,0,0,1,0,1.08.85.85,0,0,1-.95.83.83.83,0,0,1-.88-.83,22.2,22.2,0,0,1,0-2.29.82.82,0,0,1,.91-.79.84.84,0,0,1,.91.8,11.54,11.54,0,0,1,0,1.21Z"/><path class="cls-5" d="M24.52,4c0-.36,0-.72,0-1.07a.85.85,0,0,1,.94-.83.83.83,0,0,1,.89.81,21.63,21.63,0,0,1,0,2.27.83.83,0,0,1-.93.83.86.86,0,0,1-.9-.87c0-.38,0-.76,0-1.14Z"/></g></g></svg>