<svg viewBox="0 0 24 24" xmlns="http://www.w3.org/2000/svg"><path d="M12 2c-2.72 0-3.06 0-4.12.06-1.07.05-1.8.22-2.43.46-.66.26-1.22.6-1.77 1.16-.56.55-.9 1.1-1.16 1.77-.24.64-.4 1.36-.46 2.43C2 8.94 2 9.28 2 12s0 3.06.06 4.12c.05 1.07.22 1.8.46 2.43.26.66.6 1.22 1.16 1.77.55.56 1.1.9 1.77 1.16.64.24 1.36.4 2.43.46C8.94 22 9.28 22 12 22s3.06 0 4.12-.06c1.07-.05 1.8-.22 2.43-.46.66-.26 1.22-.6 1.77-1.16.56-.55.9-1.1 1.16-1.77.24-.64.4-1.36.46-2.43.05-1.06.06-1.4.06-4.12s0-3.06-.06-4.12c-.05-1.07-.22-1.8-.46-2.43-.26-.66-.6-1.22-1.16-1.77-.55-.56-1.1-.9-1.77-1.16-.64-.24-1.36-.4-2.43-.46C15.06 2 14.72 2 12 2zm0 1.8c2.67 0 3 0 4.04.06.98.04 1.5.2 1.86.35.46.2.8.4 1.15.75.35.35.56.68.75 1.15.13.36.3.88.34 1.86.05 1.05.06 1.37.06 4.04s0 3-.06 4.04c-.05.98-.22 1.5-.35 1.86-.2.46-.4.8-.76 1.15-.35.35-.7.56-1.15.75-.36.13-.9.3-1.88.34-1.06.05-1.37.06-4.05.06-2.67 0-2.98 0-4.05-.06-.97-.05-1.5-.22-1.86-.35-.47-.2-.8-.4-1.15-.76-.34-.35-.56-.7-.74-1.15-.14-.36-.3-.9-.35-1.88-.03-1.05-.04-1.37-.04-4.03 0-2.68 0-3 .05-4.06.06-.98.22-1.52.36-1.87.18-.47.4-.8.75-1.15.36-.35.7-.57 1.16-.75.35-.13.88-.3 1.85-.35 1.07-.03 1.4-.05 4.06-.05l.04.03zm0 3.07c-2.84 0-5.13 2.3-5.13 5.13 0 2.84 2.3 5.14 5.13 5.14 2.84 0 5.14-2.3 5.14-5.14S14.84 6.87 12 6.87zm0 8.46c-1.84 0-3.33-1.5-3.33-3.33 0-1.84 1.5-3.33 3.33-3.33 1.84 0 3.33 1.5 3.33 3.33 0 1.84-1.5 3.33-3.33 3.33zm6.54-8.67c0 .67-.54 1.2-1.2 1.2-.66 0-1.2-.54-1.2-1.2 0-.66.54-1.2 1.2-1.2.66 0 1.2.54 1.2 1.2z" fill="#000" fill-rule="evenodd"/></svg>