<svg xmlns="http://www.w3.org/2000/svg" viewBox="0 0 24 24"><path d="M4 5.2c-.44 0-.8.36-.8.8v12c0 .44.36.8.8.8h16c.44 0 .8-.36.8-.8V6c0-.44-.36-.8-.8-.8H4zM4 4h16c1.1 0 2 .9 2 2v12c0 1.1-.9 2-2 2H4c-1.1 0-2-.9-2-2V6c0-1.1.9-2 2-2zm10.45 7.62l-2.1 1.74c-.24.18-.56.18-.78 0L9.4 11.52l-4.22 2.84c-.27.18-.65.1-.83-.16-.2-.27-.1-.64.16-.83l4-2.64-3.8-3.2c-.25-.2-.3-.6-.07-.84.2-.3.6-.3.84-.1L12 12.1l6.7-5.5c.24-.2.62-.2.83.1.2.22.2.6-.07.8l-4 3.3 3.75 2.6c.3.2.4.56.2.83-.2.27-.55.34-.82.15l-4.06-2.8z"/></svg>