<svg xmlns="http://www.w3.org/2000/svg" viewBox="0 0 24 24"><path d="M20.85 20.75l-.1.1c-.2.2-.56.2-.78 0l-4.77-4.78c.32-.27.6-.56.87-.87l4.77 4.77c.1.1.16.25.16.4 0 .14-.05.28-.15.38M3 10c0-3.86 3.14-7 7-7s7 3.14 7 7-3.14 7-7 7-7-3.14-7-7m18.55 9.27l-4.87-4.88C17.5 13.1 18 11.6 18 10c0-4.4-3.6-8-8-8s-8 3.6-8 8c0 4.42 3.6 8 8 8 1.62 0 3.13-.48 4.4-1.32l4.87 4.87c.3.3.68.45 1.1.45.4 0 .8-.16 1.1-.45l.08-.1c.3-.28.45-.67.45-1.1 0-.4-.16-.8-.45-1.08"/><path d="M4.6 10.36c-.27 0-.5-.23-.5-.5C4.1 6.7 6.7 4.1 9.87 4.1c.27 0 .5.23.5.5 0 .28-.23.5-.5.5-2.62 0-4.75 2.14-4.75 4.76 0 .27-.22.5-.5.5"/></svg>