<svg viewBox="0 0 24 24" xmlns="http://www.w3.org/2000/svg"><title>72 - hdpi</title><path d="M20.66 6.98A9.96 9.96 0 0 0 12 2 9.95 9.95 0 0 0 2 12a9.97 9.97 0 0 0 6 9.17c-.05-.93 0-1.7.16-2.3l1.3-5.45a3.47 3.47 0 0 1-.34-1.6c0-.73.2-1.34.56-1.84.38-.5.83-.74 1.37-.74.43 0 .77.14 1 .43.24.3.35.65.35 1.08 0 .27-.05.6-.15.98-.1.4-.23.84-.4 1.34-.15.5-.26.92-.33 1.22-.12.52-.02.97.3 1.35.32.38.74.57 1.27.57.92 0 1.68-.52 2.28-1.55.6-1.03.9-2.3.9-3.76a3.7 3.7 0 0 0-1.1-2.77 4.22 4.22 0 0 0-3.08-1.06 4.72 4.72 0 0 0-4.92 4.8c0 .77.22 1.42.67 1.95.14.18.2.36.14.56a7.47 7.47 0 0 0-.22.8c-.07.28-.23.36-.5.26A2.94 2.94 0 0 1 5.77 14a5.68 5.68 0 0 1 .63-5.8c.4-.56.87-1.04 1.42-1.46a6.66 6.66 0 0 1 2.03-1c.78-.25 1.64-.38 2.55-.38a6.7 6.7 0 0 1 3.32.82 5.86 5.86 0 0 1 2.24 2.12c.52.87.78 1.8.78 2.8 0 1.3-.23 2.46-.68 3.5a5.77 5.77 0 0 1-1.9 2.46c-.84.6-1.77.9-2.83.9a3.1 3.1 0 0 1-1.47-.38 2.17 2.17 0 0 1-.95-.88l-.7 2.75a8 8 0 0 1-1.02 2.13 9.78 9.78 0 0 0 7.86-.92A9.95 9.95 0 0 0 22 12c0-1.8-.45-3.5-1.34-5.02z" fill="#000" fill-rule="evenodd"/></svg>